<?xml version="1.0" standalone="no"?><!DOCTYPE svg PUBLIC "-//W3C//DTD SVG 1.1//EN" "http://www.w3.org/Graphics/SVG/1.1/DTD/svg11.dtd"><svg xmlns="http://www.w3.org/2000/svg" version="1.1" width="179.4px" height="18.7px" viewBox="0 -4 179.4 18.7" style="top:-4px"><desc>107 | Double Agave</desc><defs/><g id="Polygon149190"><path d="m.9.8L2.2.1h.2s-.04 4.51 0 4.5v.6l.1.1c.1.1.3.1.5.1c.02 0 0 .1 0 .1h-2s.03-.1 0-.1c.3 0 .4 0 .5-.1c.1 0 .1-.1.2-.1V1c0-.1-.1-.1-.1-.2h-.2c-.1 0-.2 0-.4.1L.9.8zm3.8 3.9c-.3-.5-.4-1.1-.4-1.8c0-.6.1-1.1.3-1.5c.1-.5.4-.8.7-1c.2-.2.5-.3.7-.3c.4 0 .8.2 1.1.7c.4.5.6 1.2.6 2c0 .7-.1 1.2-.3 1.6c-.1.4-.4.8-.6.9c-.3.2-.6.3-.8.3c-.5 0-.9-.3-1.3-.9zM5.1 3c0 .8 0 1.4.2 1.8c.2.4.4.6.7.6c.1 0 .3-.1.4-.2c.2-.1.3-.3.4-.6c.1-.5.1-1.1.1-1.9c0-.6 0-1.1-.1-1.5c-.1-.3-.3-.5-.4-.7C6.3.4 6.2.4 6 .4c-.2 0-.3.1-.5.2c-.1.3-.3.6-.3 1.1c-.1.4-.1.9-.1 1.3zM8.8.3h2.8v.1L9.9 5.7h-.5L11 .9H9.6c-.3 0-.5 0-.7.1c-.2.1-.4.3-.5.5c.01.05-.1 0-.1 0L8.8.3zM15 0v7.3h-.4V0h.4zm2.7 5.5v-.1h.2c.3 0 .4-.1.5-.2c.1-.1.1-.3.1-.6V1.2c0-.3 0-.6-.1-.6c-.1-.1-.3-.2-.5-.2h-.2v-.1s2.19-.05 2.2 0c.8 0 1.4 0 1.8.2c.4.2.7.5 1 .9c.2.4.4.9.4 1.5c0 .7-.2 1.3-.7 1.8c-.5.6-1.3.8-2.3.8c.01.05-2.4 0-2.4 0zm1.6-.3c.3 0 .6.1.8.1c.6 0 1.1-.2 1.5-.7c.4-.4.6-1 .6-1.7c0-.7-.2-1.3-.6-1.7c-.4-.4-.9-.7-1.5-.7c-.3 0-.6.1-.8.2v4.5zm6.1-3.3c.5 0 1 .2 1.3.6c.3.3.4.7.4 1.2c0 .3-.1.6-.2 1c-.2.3-.4.5-.7.7c-.2.2-.5.3-.9.3c-.5 0-.9-.3-1.2-.7c-.3-.4-.5-.8-.5-1.2c0-.3.1-.7.3-1c.2-.3.4-.5.6-.7c.3-.2.6-.2.9-.2zm.6.6c-.2-.3-.5-.4-.7-.4c-.2 0-.3.1-.5.1c-.1.1-.2.3-.3.5c-.1.2-.1.4-.1.8c0 .5.1.9.3 1.3c.2.4.5.6.8.6c.3 0 .5-.1.6-.3c.2-.2.3-.6.3-1.1c0-.6-.2-1.1-.4-1.5zm4.8-.5s-.03 2.14 0 2.1v.8c0 .1 0 .2.1.2h.4c.01-.02.1.1.1.1l-1.1.5h-.2s.02-.8 0-.8c-.3.3-.5.5-.7.6c-.1.1-.3.2-.5.2c-.2 0-.4-.1-.5-.2c-.2-.1-.3-.3-.3-.5c-.1-.1-.1-.4-.1-.7V2.7c0-.2 0-.3-.1-.4c0-.1-.1-.1-.1-.1c-.1-.1-.2-.1-.4-.1v-.1h1.2s.04 2.36 0 2.4c0 .3.1.5.2.6c.1.1.3.2.4.2c.1 0 .3-.1.4-.1c.2-.1.3-.2.5-.4V2.6c0-.2 0-.3-.1-.4c-.1 0-.2-.1-.5-.1c.05.01 0-.1 0-.1h1.3zm1.8.6c.4-.5.7-.7 1.1-.7c.4 0 .7.1 1 .4c.3.3.4.8.4 1.3c0 .7-.2 1.2-.6 1.6c-.4.3-.8.5-1.2.5c-.3 0-.5-.1-.7-.2c-.2 0-.4-.1-.6-.3V1.5c0-.4 0-.7-.1-.8c0 0 0-.1-.1-.1c0-.1 0-.1-.1-.1c-.1 0-.2 0-.3.1v-.2l1-.4h.2v2.6zm.4-.1c-.1.1-.2.2-.4.3v2.2c.1.1.3.2.4.3c.2 0 .3.1.5.1c.2 0 .4-.2.6-.4c.2-.3.3-.7.3-1.2c0-.4-.1-.8-.3-1c-.2-.3-.4-.4-.7-.4c-.1 0-.3.1-.4.1zM36.9 0s-.04 4.74 0 4.7v.5c0 .1.1.1.2.1c0 .1.2.1.3.1c.04.01 0 .1 0 .1h-1.7s-.02-.09 0-.1h.3l.2-.2V.7l-.1-.1c0-.1-.1-.1-.2-.1c0 0-.1 0-.2.1l-.1-.2l1.1-.4h.2zm1.6 3.3c0 .5.1 1 .3 1.3c.3.3.6.4 1 .4c.2 0 .4 0 .6-.2c.1-.1.3-.3.4-.6h.1c0 .4-.2.7-.5 1c-.2.3-.5.5-.9.5c-.5 0-.8-.2-1.1-.5c-.3-.4-.5-.8-.5-1.4c0-.6.2-1.1.5-1.4c.3-.4.7-.5 1.2-.5c.4 0 .7.1.9.4c.3.2.4.6.4 1h-2.4zm0-.2h1.6c0-.2 0-.4-.1-.5c0-.1-.1-.3-.3-.3c-.1-.1-.2-.2-.4-.2c-.2 0-.4.1-.5.3c-.2.2-.3.4-.3.7zm7.9.7h-2.1s-.34.81-.3.8c-.1.2-.2.4-.2.5c0 .1.1.1.1.2c.1 0 .3.1.5.1c.04 0 0 .1 0 .1h-1.6s-.03-.1 0-.1c.2 0 .3-.1.4-.1c.1-.2.3-.4.4-.8c.04-.01 1.9-4.4 1.9-4.4h.1s1.89 4.44 1.9 4.4c.1.4.3.6.4.7c.1.1.3.2.5.2v.1h-2.1v-.1c.2 0 .4 0 .4-.1c.1-.1.1-.1.1-.2c0-.1 0-.3-.1-.6c-.01.04-.3-.7-.3-.7zm-.1-.3l-.9-2.2l-1 2.2h1.9zm3.4.7c-.2-.1-.4-.2-.5-.4c-.1-.2-.2-.4-.2-.6c0-.4.1-.7.4-1c.3-.2.6-.3 1-.3c.4 0 .7 0 .9.2h1v.4h-.7c.2.2.2.4.2.7c0 .3-.1.6-.3.8c-.3.3-.6.4-1.1.4c-.1 0-.3 0-.5-.1c-.1.1-.2.2-.2.3c-.1.1-.1.1-.1.2s0 .1.1.1s.1.1.2.1h.6c.5 0 .8 0 1 .1c.2 0 .4.1.6.2c.1.2.2.4.2.6c0 .3-.1.5-.4.8c-.4.4-1 .6-1.6.6c-.5 0-.9-.1-1.3-.4c-.2-.1-.3-.2-.3-.4c0 0 0-.1.1-.2c0-.1.1-.2.2-.4c.1 0 .2-.1.4-.4c-.1-.1-.2-.1-.2-.2c-.1-.1-.1-.1-.1-.2c0-.1 0-.2.1-.3c.1-.2.2-.3.5-.6zm1.2-1.9c-.1-.2-.3-.2-.5-.2c-.2 0-.4 0-.5.2c-.1.1-.2.4-.2.7c0 .4.1.7.3.9c.1.2.3.3.5.3c.2 0 .3-.1.5-.2c.1-.2.2-.4.2-.7c0-.4-.1-.8-.3-1zm.1 3.3c-.6 0-1 0-1.3-.1c-.2.2-.3.3-.3.4c-.1.1-.1.2-.1.3c0 .2.1.3.2.4c.3.1.6.2 1.1.2c.5 0 .9-.1 1.1-.2c.2-.2.3-.4.3-.6c0-.1-.1-.2-.2-.3c-.1 0-.4-.1-.8-.1zm3.8-.6c-.4.3-.6.5-.7.5c-.2.1-.3.1-.5.1c-.2 0-.4-.1-.6-.2c-.1-.2-.2-.4-.2-.7c0-.2 0-.3.1-.5l.5-.5c.3-.1.8-.3 1.4-.5v-.2c0-.3-.1-.6-.2-.7c-.1-.1-.3-.2-.5-.2c-.2 0-.3 0-.4.1c-.1.1-.1.2-.1.3v.3c0 .1-.1.2-.1.2c-.1.1-.2.1-.3.1c-.1 0-.1 0-.2-.1c-.1 0-.1-.1-.1-.2c0-.3.1-.5.4-.7c.2-.1.5-.2.9-.2c.3 0 .6 0 .8.1c.2.1.3.2.3.4c.1.1.1.3.1.7v1.8c0 .1.1.2.1.2h.2c.1 0 .2-.1.3-.3v.2c-.3.4-.5.6-.8.6c-.1 0-.2 0-.3-.1c-.1-.1-.1-.3-.1-.5zm-.8.2c.2 0 .4-.2.8-.4V3.4c-.4.2-.7.3-.8.3l-.4.4c-.1.1-.2.3-.2.4c0 .2.1.4.2.5c.1.1.2.2.4.2zM56.1 2h1.7v.1h-.1c-.1 0-.2 0-.3.1v.5c.05.01.9 2 .9 2c0 0 .82-2.06.8-2.1c.1-.1.1-.2.1-.3v-.1c-.1 0-.1-.1-.1-.1h-.3v-.1h1.2s-.04.11 0 .1c-.2 0-.3.1-.3.1c-.1.1-.2.2-.3.4c.04-.01-1.2 3.1-1.2 3.1h-.2s-1.27-3.06-1.3-3.1c0-.1-.1-.2-.1-.3c-.1 0-.2-.1-.2-.1c-.1 0-.2-.1-.3-.1v-.1zm4.8 1.3c0 .5.1 1 .4 1.3c.2.3.5.4.9.4c.2 0 .4 0 .6-.2c.2-.1.3-.3.4-.6h.2c-.1.4-.3.7-.5 1c-.3.3-.6.5-1 .5c-.4 0-.8-.2-1.1-.5c-.3-.4-.5-.8-.5-1.4c0-.6.2-1.1.5-1.4c.3-.4.7-.5 1.2-.5c.4 0 .7.1 1 .4c.2.2.4.6.4 1h-2.5zm0-.2h1.6v-.5c-.1-.1-.2-.3-.3-.3c-.2-.1-.3-.2-.4-.2c-.2 0-.4.1-.6.3c-.2.2-.3.4-.3.7z" stroke="none" fill="#000"/></g></svg>