<?xml version="1.0" standalone="no"?><!DOCTYPE svg PUBLIC "-//W3C//DTD SVG 1.1//EN" "http://www.w3.org/Graphics/SVG/1.1/DTD/svg11.dtd"><svg xmlns="http://www.w3.org/2000/svg" version="1.1" width="460px" height="48.6px" viewBox="0 -5 460 48.6" style="top:-5px"><desc>The Twister Oval is often a centerpiece because of its strong presence and fluid motion. When put together with other...</desc><defs/><g id="Polygon120192"><path d="m1.8 34.5c-.3-.2-.6-.4-.8-.7c-.1-.3-.2-.6-.2-.9c0-.5.2-1 .6-1.4c.4-.3.9-.5 1.5-.5c.5 0 .9.1 1.3.3h1.1c.2 0 .3 0 .3.1c.1 0 .1.1.1.2c0 .1 0 .2-.1.2c0 .1-.1.1-.3.1h-.7c.2.2.3.6.3 1c0 .5-.2.9-.5 1.3c-.4.3-.9.5-1.5.5c-.3 0-.6 0-.8-.1c-.2.1-.3.3-.4.4c0 .1-.1.2-.1.2c0 .1.1.2.1.2c.1.1.2.1.4.2h.8c.8 0 1.3.1 1.5.1c.4 0 .7.2.9.4c.2.2.3.5.3.8c0 .4-.2.8-.6 1.2c-.6.6-1.4.8-2.3.8c-.8 0-1.4-.1-1.9-.5c-.3-.2-.4-.4-.4-.6v-.2c.1-.2.2-.4.4-.6c0-.1.2-.3.6-.7c-.2-.1-.3-.2-.4-.3c-.1-.1-.1-.2-.1-.3c0-.1 0-.3.1-.5c.1-.1.4-.4.8-.7zm1.7-2.9c-.2-.2-.4-.3-.7-.3c-.3 0-.5.1-.7.3c-.2.2-.3.6-.3 1c0 .6.1 1.1.4 1.4c.2.3.4.4.7.4c.3 0 .6-.1.7-.3c.2-.2.3-.6.3-1c0-.6-.1-1.1-.4-1.5zm.2 4.9c-.9 0-1.5 0-2-.1c-.2.2-.3.4-.4.5c-.1.2-.1.4-.1.5c0 .2.1.3.3.5c.4.2.9.3 1.7.3c.7 0 1.2-.1 1.5-.3c.3-.3.5-.5.5-.8c0-.2-.1-.3-.3-.4c-.2-.1-.6-.2-1.2-.2zM7.8 31v1.2c.4-.8.9-1.2 1.3-1.2c.3 0 .4 0 .6.2c.1.1.2.2.2.4c0 .2-.1.3-.2.4c-.1.1-.2.1-.3.1c-.2 0-.3 0-.5-.2c-.1-.1-.3-.1-.4-.1c0 0-.1 0-.2.1c-.1.1-.3.4-.5.7v2.6c0 .3 0 .5.1.6c0 .1.1.2.3.3c.1.1.3.1.5.1v.2H6v-.2c.3 0 .5-.1.6-.1c.1-.1.2-.2.2-.3v-3.7c0-.1-.1-.2-.1-.3c-.1 0-.2-.1-.3-.1c-.1 0-.2.1-.4.1v-.2l1.5-.6h.3zm4.9 0c.8 0 1.5.3 2 .9c.4.5.6 1.1.6 1.8c0 .4-.1.9-.4 1.4c-.2.5-.5.8-.9 1.1c-.4.2-.8.4-1.3.4c-.8 0-1.4-.4-1.9-1c-.4-.5-.6-1.1-.6-1.8c0-.5.1-.9.4-1.4c.2-.5.5-.9.9-1.1c.4-.2.8-.3 1.2-.3zm.9.9c-.3-.4-.6-.6-1-.6c-.2 0-.4.1-.6.2c-.3.2-.4.4-.5.7c-.2.3-.2.7-.2 1.1c0 .8.1 1.5.4 2c.3.6.7.8 1.2.8c.4 0 .7-.1.9-.4c.3-.3.4-.8.4-1.6c0-.9-.2-1.7-.6-2.2zm7.1-.8s-.04 3.22 0 3.2v1.1c0 .2.1.3.1.3c.1.1.2.1.3.1c.1 0 .2 0 .4-.1c-.03 0 0 .2 0 .2l-1.5.7h-.3s.02-1.16 0-1.2c-.4.5-.8.8-1 1c-.3.1-.5.2-.8.2c-.3 0-.5-.1-.7-.3c-.3-.2-.4-.4-.5-.7c-.1-.2-.1-.6-.1-1.1v-2.3c0-.3 0-.5-.1-.6c0-.1-.1-.1-.2-.2c-.1 0-.3-.1-.6-.1v-.2h1.8s.04 3.55 0 3.6c0 .4.1.8.3.9c.2.2.4.2.6.2c.2 0 .4 0 .6-.1c.2-.1.4-.3.7-.6v-3c0-.3 0-.5-.1-.6c-.2-.1-.4-.1-.7-.2c-.03.04 0-.2 0-.2h1.8zm.9.6l1.6-.7h.2v1.2c.3-.4.5-.8.8-.9c.3-.2.6-.3.9-.3c.5 0 .9.2 1.3.6c.4.5.6 1.2.6 2c0 .9-.2 1.6-.7 2.2c-.5.5-1 .8-1.7.8c-.2 0-.5-.1-.7-.2c-.1 0-.3-.1-.5-.3v1.6c0 .4 0 .6.1.7c0 .1.1.2.2.2c.1.1.3.1.6.1c-.02 0 0 .2 0 .2h-2.8v-.2h.2c.2 0 .4 0 .5-.1l.2-.2V32c0-.1-.1-.1-.2-.2h-.6c.02.04 0-.1 0-.1zm2.5.2c-.2.1-.4.3-.7.7v2.8c.1.2.2.4.4.6c.2.1.5.2.8.2c.4 0 .7-.1 1-.4c.3-.4.4-1 .4-1.7c0-.8-.2-1.4-.5-1.8c-.3-.3-.5-.5-.9-.5c-.2 0-.3.1-.5.1zm5.1-3.7c.1 0 .3.1.4.2c.1.1.1.2.1.4c0 .2 0 .3-.1.4c-.1.1-.3.2-.4.2c-.2 0-.3-.1-.5-.2c-.1-.1-.1-.2-.1-.4c0-.2 0-.3.1-.4c.1-.1.3-.2.5-.2zm.4 2.8s.03 4.2 0 4.2c0 .3.1.6.1.7c0 .1.1.2.2.2c.1.1.3.1.5.1c.03-.01 0 .2 0 .2h-2.5s-.03-.21 0-.2c.2 0 .4 0 .5-.1c.1 0 .1-.1.2-.2c.1-.2.1-.4.1-.7v-2c0-.6 0-1-.1-1.1c0-.2 0-.2-.1-.3c-.1 0-.1-.1-.2-.1c-.1 0-.3.1-.4.1c-.03.03-.1-.2-.1-.2l1.6-.6h.2zm3 1.1c.6-.8 1.2-1.1 1.8-1.1c.3 0 .5 0 .7.2c.2.1.4.4.5.7c.1.2.1.6.1 1.1v2.2c0 .3.1.6.1.7c.1.1.1.2.2.2c.1.1.3.1.5.1c.05-.01 0 .2 0 .2h-2.6v-.2h.2c.2 0 .4-.1.5-.1c.1-.1.1-.2.2-.4V33c0-.4-.1-.8-.2-1c-.1-.2-.3-.3-.6-.3c-.5 0-.9.2-1.4.7v2.8c0 .4 0 .6.1.7c0 .1.1.2.2.2c.1.1.3.1.6.1c-.03-.01 0 .2 0 .2h-2.6v-.2h.1c.3 0 .4-.1.5-.2c.1-.2.2-.4.2-.8v-1.9c0-.7 0-1.1-.1-1.2c0-.1 0-.2-.1-.3c-.1 0-.1-.1-.2-.1c-.2 0-.3.1-.4.1c-.03.03-.1-.2-.1-.2l1.6-.6h.2s.02 1.09 0 1.1zm5.8 2.4c-.3-.2-.6-.4-.8-.7c-.1-.3-.2-.6-.2-.9c0-.5.2-1 .6-1.4c.4-.3.9-.5 1.5-.5c.5 0 .9.1 1.3.3h1.1c.2 0 .2 0 .3.1c.1 0 .1.1.1.2c0 .1 0 .2-.1.2c0 .1-.1.1-.3.1h-.7c.2.2.3.6.3 1c0 .5-.2.9-.5 1.3c-.4.3-.9.5-1.5.5c-.3 0-.6 0-.8-.1c-.2.1-.3.3-.4.4c0 .1-.1.2-.1.2c0 .1.1.2.1.2c.1.1.2.1.4.2h.8c.8 0 1.3.1 1.5.1c.4 0 .7.2.9.4c.2.2.3.5.3.8c0 .4-.2.8-.6 1.2c-.6.6-1.4.8-2.3.8c-.8 0-1.4-.1-1.9-.5c-.3-.2-.5-.4-.5-.6c0-.1.1-.1.1-.2c.1-.2.2-.4.4-.6c0-.1.2-.3.6-.7c-.2-.1-.3-.2-.4-.3c-.1-.1-.1-.2-.1-.3c0-.1 0-.3.1-.5c.1-.1.4-.4.8-.7zm1.7-2.9c-.2-.2-.4-.3-.7-.3c-.3 0-.5.1-.7.3c-.2.2-.3.6-.3 1c0 .6.1 1.1.4 1.4c.2.3.4.4.7.4c.3 0 .6-.1.7-.3c.2-.2.3-.6.3-1c0-.6-.1-1.1-.4-1.5zm.2 4.9c-.9 0-1.5 0-2-.1c-.2.2-.3.4-.4.5c-.1.2-.1.4-.1.5c0 .2.1.3.3.5c.4.2.9.3 1.7.3c.7 0 1.2-.1 1.5-.3c.3-.3.5-.5.5-.8c0-.2-.1-.3-.3-.4c-.2-.1-.6-.2-1.2-.2zm6.8-8.3c.2 0 .3.1.4.2c.2.1.2.2.2.4c0 .2 0 .3-.2.4c-.1.1-.2.2-.4.2c-.1 0-.3-.1-.4-.2c-.1-.1-.2-.2-.2-.4c0-.2.1-.3.2-.4c.1-.1.3-.2.4-.2zm.5 2.8v4.2c0 .3 0 .6.1.7c0 .1.1.2.2.2c.1.1.3.1.5.1v.2h-2.6s.05-.21 0-.2c.3 0 .5 0 .6-.1c.1 0 .1-.1.2-.2c0-.2.1-.4.1-.7v-2c0-.6-.1-1-.1-1.1c0-.2-.1-.2-.1-.3c-.1 0-.2-.1-.3-.1c-.1 0-.2.1-.4.1c.05.03 0-.2 0-.2l1.6-.6h.2zm4.9 0v1.8s-.23-.03-.2 0c-.2-.6-.4-1-.6-1.2c-.2-.2-.5-.3-.9-.3c-.2 0-.4.1-.6.2c-.2.2-.3.3-.3.5c0 .2.1.4.2.5c.1.2.4.4.8.5l.8.5c.8.3 1.2.8 1.2 1.5c0 .4-.2.8-.6 1.1c-.3.3-.8.5-1.2.5c-.3 0-.7-.1-1.1-.2c-.1-.1-.2-.1-.3-.1c-.1 0-.2.1-.2.2c-.02-.03-.2 0-.2 0v-1.9h.2c.1.5.3.9.6 1.2c.3.3.6.4 1 .4c.3 0 .5-.1.7-.2c.1-.2.2-.4.2-.6c0-.2-.1-.5-.3-.6c-.2-.2-.5-.5-1.1-.7c-.5-.3-.9-.6-1.1-.8c-.1-.2-.2-.5-.2-.8c0-.4.1-.8.4-1.1c.3-.3.7-.4 1.2-.4c.2 0 .4 0 .7.1c.2.1.3.1.4.1h.1l.2-.2c-.03-.02.2 0 .2 0zm6.7 0c.7 0 1.4.3 1.9.9c.4.5.6 1.1.6 1.8c0 .4-.1.9-.4 1.4c-.2.5-.5.8-.9 1.1c-.4.2-.8.4-1.3.4c-.8 0-1.4-.4-1.9-1c-.4-.5-.6-1.1-.6-1.8c0-.5.1-.9.4-1.4c.2-.5.5-.9.9-1.1c.4-.2.8-.3 1.3-.3zm.8.9c-.3-.4-.6-.6-1-.6c-.2 0-.4.1-.6.2c-.2.2-.4.4-.5.7c-.2.3-.2.7-.2 1.1c0 .8.1 1.5.4 2c.3.6.7.8 1.2.8c.4 0 .7-.1 1-.4c.2-.3.3-.8.3-1.6c0-.9-.2-1.7-.6-2.2zm4 .2c.6-.8 1.2-1.1 1.8-1.1c.2 0 .5 0 .7.2c.2.1.4.4.5.7c.1.2.1.6.1 1.1v2.2c0 .3 0 .6.1.7c0 .1.1.2.2.2c.1.1.3.1.5.1c.02-.01 0 .2 0 .2h-2.6v-.2h.1c.3 0 .4-.1.5-.1c.1-.1.2-.2.2-.4c.1 0 .1-.2.1-.5V33c0-.4-.1-.8-.2-1c-.1-.2-.4-.3-.6-.3c-.5 0-1 .2-1.4.7v2.8c0 .4 0 .6.1.7c0 .1.1.2.2.2c.1.1.3.1.5.1c.05-.01 0 .2 0 .2h-2.6v-.2h.2c.2 0 .4-.1.5-.2c.1-.2.1-.4.1-.8v-3.1c0-.1-.1-.2-.1-.3c-.1 0-.2-.1-.3-.1c-.1 0-.2.1-.4.1c.05.03 0-.2 0-.2l1.5-.6h.3s-.01 1.09 0 1.1zm11 3.7c-.3.3-.5.5-.8.6c-.2.1-.5.2-.7.2c-.6 0-1.1-.3-1.6-.8c-.4-.4-.6-1.1-.6-1.8c0-.8.2-1.5.7-2.1c.5-.6 1.1-.9 1.9-.9c.4 0 .8.1 1.1.4v-2.1c-.1-.1-.1-.2-.2-.2c0-.1-.1-.1-.2-.1c-.1 0-.2 0-.4.1c0-.03-.1-.2-.1-.2l1.6-.7h.2s.05 6.11 0 6.1c0 .6.1 1 .1 1.1c0 .2.1.3.1.3c.1.1.2.1.2.1c.2 0 .3 0 .5-.1c-.04 0 0 .2 0 .2l-1.5.7h-.3v-.8zm-1 .1c.3 0 .7-.2 1-.5v-2.7c0-.3-.1-.5-.2-.7c-.1-.2-.3-.4-.5-.5c-.2-.1-.3-.2-.5-.2c-.4 0-.7.2-.9.5c-.4.4-.5 1-.5 1.7c0 .8.1 1.4.5 1.8c.3.4.7.6 1.1.6zm4.5-7.7c.2 0 .3.1.4.2c.1.1.2.2.2.4c0 .2-.1.3-.2.4c-.1.1-.2.2-.4.2c-.2 0-.3-.1-.4-.2c-.1-.1-.2-.2-.2-.4c0-.2.1-.3.2-.4c.1-.1.2-.2.4-.2zM79 31s-.02 4.2 0 4.2c0 .3 0 .6.1.7c0 .1.1.2.2.2c.1.1.2.1.5.1c-.02-.01 0 .2 0 .2h-2.6s.02-.21 0-.2c.3 0 .5 0 .5-.1c.1 0 .2-.1.2-.2c.1-.2.1-.4.1-.7v-3.1c-.1-.2-.1-.2-.2-.3s-.1-.1-.2-.1c-.1 0-.2.1-.4.1l-.1-.2l1.6-.6h.3zm4.8 0v1.8s-.15-.03-.2 0c-.1-.6-.3-1-.5-1.2c-.2-.2-.5-.3-.9-.3c-.3 0-.5.1-.6.2c-.2.2-.3.3-.3.5c0 .2.1.4.2.5c.1.2.4.4.7.5l.9.5c.7.3 1.1.8 1.1 1.5c0 .4-.1.8-.5 1.1c-.4.3-.8.5-1.2.5c-.3 0-.7-.1-1.1-.2c-.2-.1-.3-.1-.3-.1c-.1 0-.2.1-.2.2c-.05-.03-.2 0-.2 0v-1.9h.2c.1.5.3.9.6 1.2c.3.3.6.4 1 .4c.2 0 .5-.1.6-.2c.2-.2.3-.4.3-.6c0-.2-.1-.5-.3-.6c-.2-.2-.6-.5-1.1-.7c-.6-.3-.9-.6-1.1-.8c-.2-.2-.3-.5-.3-.8c0-.4.2-.8.5-1.1c.3-.3.7-.4 1.1-.4c.2 0 .5 0 .8.1c.2.1.3.1.4.1h.1c.1-.1.1-.1.1-.2c.05-.02.2 0 .2 0zm.8.7l1.7-.7h.2s-.03 1.23 0 1.2c.2-.4.5-.8.8-.9c.3-.2.6-.3.9-.3c.5 0 .9.2 1.3.6c.4.5.6 1.2.6 2c0 .9-.2 1.6-.8 2.2c-.4.5-.9.8-1.6.8c-.3 0-.5-.1-.7-.2c-.2 0-.3-.1-.5-.3v2.3c.1.1.2.2.3.2c.1.1.3.1.6.1c-.04 0 0 .2 0 .2h-2.8v-.2h.1c.3 0 .4 0 .6-.1l.2-.2V32l-.2-.2h-.6c0 .04-.1-.1-.1-.1zm2.6.2c-.2.1-.4.3-.7.7v2.8c.1.2.2.4.4.6c.2.1.5.2.8.2c.4 0 .7-.1.9-.4c.3-.4.5-1 .5-1.7c0-.8-.2-1.4-.5-1.8c-.3-.3-.6-.5-.9-.5c-.2 0-.4.1-.5.1zm5.5-3.7v7c0 .3 0 .6.1.7c0 .1.1.1.2.2c.1.1.3.1.6.1c-.05-.01 0 .2 0 .2H91s-.02-.21 0-.2c.2 0 .4 0 .5-.1c.1 0 .1-.1.2-.2c0-.2.1-.4.1-.7v-4.8c0-.6-.1-.9-.1-1.1c0-.1-.1-.2-.1-.2c-.1-.1-.2-.1-.2-.1c-.1 0-.3 0-.4.1l-.1-.2l1.5-.7h.3zm4.4 7.4c-.5.5-.8.7-1 .8c-.2.1-.4.1-.6.1c-.4 0-.7-.1-.9-.4c-.3-.2-.4-.5-.4-1c0-.2.1-.4.2-.6c.1-.3.4-.5.8-.8c.4-.2 1-.5 1.9-.8v-.2c0-.5 0-.9-.2-1.1c-.2-.2-.4-.3-.7-.3c-.3 0-.5.1-.6.2c-.2.2-.2.3-.2.5v.3c0 .2-.1.3-.1.4c-.1.1-.3.2-.4.2c-.1 0-.3-.1-.3-.2c-.1-.1-.2-.2-.2-.4c0-.3.2-.6.5-.9c.4-.3.8-.4 1.4-.4c.5 0 .9.1 1.2.2c.2.1.4.3.5.6c.1.1.1.5.1 1v2.7c0 .1.1.2.1.2c.1.1.1.1.2.1s.1 0 .1-.1c.1 0 .3-.2.5-.4v.3c-.4.6-.8.9-1.2.9c-.2 0-.4-.1-.5-.2c-.1-.1-.2-.4-.2-.7zm-1.1.2c.3 0 .7-.2 1.1-.5v-2c-.5.2-.9.3-1.1.4c-.3.2-.5.4-.6.6c-.2.2-.2.4-.2.6c0 .3.1.5.2.7c.2.1.4.2.6.2zm3.1-4.7h2.4v.2s-.08.04-.1 0c-.2 0-.3.1-.4.2c-.1 0-.1.1-.1.2c0 .2.1.4.2.7c-.01-.05 1.3 2.6 1.3 2.6c0 0 1.15-2.9 1.2-2.9v-.6c0-.1-.1-.1-.1-.1c-.1 0-.2-.1-.4-.1c.02.04 0-.2 0-.2h1.7s.03.24 0 .2c-.1.1-.2.1-.3.1c-.1.1-.2.2-.2.3c-.1 0-.1.2-.2.4l-2.2 5.3c-.2.5-.5.9-.8 1.1c-.3.3-.7.4-1 .4c-.2 0-.4 0-.5-.2c-.2-.1-.2-.2-.2-.4c0-.2 0-.3.1-.4c.1-.1.3-.1.4-.1c.2 0 .3 0 .6.1c.1 0 .2.1.3.1c.1 0 .2-.1.3-.2c.2-.1.3-.4.4-.7c.04 0 .4-.9.4-.9l-1.9-4c0-.1-.1-.2-.3-.4c0-.2-.1-.3-.2-.3c-.1-.1-.2-.1-.4-.2v-.2zm10.4-2.9c.2 0 .3.1.5.2c.1.1.1.2.1.4c0 .2 0 .3-.1.4c-.2.1-.3.2-.5.2c-.1 0-.3-.1-.4-.2c-.1-.1-.1-.2-.1-.4c0-.2 0-.3.1-.4c.1-.1.3-.2.4-.2zm.5 2.8s.02 4.2 0 4.2c0 .3 0 .6.1.7c0 .1.1.2.2.2c.1.1.3.1.5.1c.02-.01 0 .2 0 .2h-2.5s-.03-.21 0-.2c.2 0 .4 0 .5-.1c.1 0 .1-.1.2-.2c0-.2.1-.4.1-.7v-2c0-.6 0-1-.1-1.1c0-.2-.1-.2-.1-.3c-.1 0-.1-.1-.2-.1c-.2 0-.3.1-.4.1c-.03.03-.1-.2-.1-.2l1.6-.6h.2zm3 1.1c.6-.8 1.2-1.1 1.8-1.1c.3 0 .5 0 .7.2c.2.1.4.4.5.7c.1.2.1.6.1 1.1v2.2c0 .3.1.6.1.7c.1.1.1.2.2.2c.1.1.3.1.5.1c.04-.01 0 .2 0 .2h-2.6v-.2h.1c.3 0 .5-.1.6-.1c.1-.1.1-.2.2-.4V33c0-.4-.1-.8-.2-1c-.1-.2-.3-.3-.6-.3c-.5 0-.9.2-1.4.7v2.8c0 .4 0 .6.1.7c0 .1.1.2.2.2c.1.1.3.1.6.1c-.03-.01 0 .2 0 .2h-2.6v-.2h.1c.2 0 .4-.1.5-.2c.1-.2.2-.4.2-.8v-1.9c0-.7-.1-1.1-.1-1.2c0-.1-.1-.2-.1-.3c-.1 0-.2-.1-.3-.1c-.1 0-.2.1-.3.1c-.04.03-.1-.2-.1-.2l1.6-.6h.2s.01 1.09 0 1.1zm12.3-3.7v2.7s-.19.02-.2 0c-.1-.5-.2-.9-.4-1.2c-.1-.3-.4-.6-.7-.7c-.3-.2-.7-.3-1-.3c-.4 0-.8.1-1 .3c-.3.3-.4.6-.4.9c0 .2.1.4.2.6c.3.3.8.7 1.7 1.2c.8.4 1.2.7 1.5.9c.3.2.5.4.6.7c.2.3.2.6.2.9c0 .6-.2 1.1-.6 1.5c-.5.5-1.1.7-1.8.7c-.2 0-.4 0-.6-.1c-.2 0-.4-.1-.8-.2c-.4-.1-.6-.2-.7-.2c-.1 0-.2.1-.2.1c-.1.1-.1.2-.1.4c-.04-.03-.3 0-.3 0v-2.7h.3c.1.6.2 1 .4 1.3c.1.2.4.5.7.6c.4.2.8.3 1.2.3c.4 0 .8-.1 1.1-.4c.3-.2.4-.5.4-.9c0-.1 0-.3-.1-.5c-.1-.2-.3-.4-.5-.6c-.2-.1-.6-.3-1.3-.7c-.6-.4-1.1-.7-1.4-.9c-.3-.2-.5-.5-.6-.7c-.2-.3-.2-.6-.2-.9c0-.6.2-1.1.6-1.5c.4-.4 1-.6 1.6-.6c.5 0 .9.1 1.4.3c.2.1.3.2.4.2c.1 0 .2-.1.3-.1c0-.1.1-.2.1-.4c.01.02.2 0 .2 0zm6.2 2.7s-.04 3.22 0 3.2v1.1c0 .2.1.3.1.3c.1.1.2.1.3.1c.1 0 .2 0 .4-.1c-.04 0 0 .2 0 .2l-1.5.7h-.3v-1.2c-.4.5-.8.8-1 1c-.3.1-.5.2-.8.2c-.3 0-.5-.1-.7-.3c-.3-.2-.4-.4-.5-.7c-.1-.2-.1-.6-.1-1.1v-2.3c0-.3 0-.5-.1-.6l-.2-.2c-.1 0-.3-.1-.6-.1v-.2h1.8s.03 3.55 0 3.6c0 .4.1.8.3.9c.2.2.4.2.6.2c.2 0 .4 0 .6-.1c.2-.1.4-.3.7-.6v-3c0-.3 0-.5-.2-.6c-.1-.1-.3-.1-.6-.2c-.04.04 0-.2 0-.2h1.8zm2.6 3.4c-.3-.2-.5-.4-.7-.7c-.2-.3-.3-.6-.3-.9c0-.5.2-1 .6-1.4c.4-.3.9-.5 1.5-.5c.5 0 1 .1 1.3.3h1.1c.2 0 .3 0 .3.1h.1v.4h-.1c0 .1-.1.1-.3.1h-.6c.2.2.3.6.3 1c0 .5-.2.9-.6 1.3c-.4.3-.9.5-1.5.5c-.2 0-.5 0-.8-.1c-.2.1-.3.3-.3.4c-.1.1-.1.2-.1.2c0 .1 0 .2.1.2c0 .1.2.1.3.2h.9c.7 0 1.3.1 1.5.1c.3 0 .6.2.8.4c.3.2.4.5.4.8c0 .4-.2.8-.6 1.2c-.6.6-1.4.8-2.4.8c-.7 0-1.4-.1-1.9-.5c-.2-.2-.4-.4-.4-.6c0-.1 0-.1.1-.2c0-.2.2-.4.4-.6c0-.1.2-.3.6-.7c-.2-.1-.4-.2-.5-.3c0-.1-.1-.2-.1-.3c0-.1.1-.3.2-.5c.1-.1.3-.4.7-.7zm1.8-2.9c-.2-.2-.5-.3-.8-.3c-.3 0-.5.1-.7.3c-.2.2-.3.6-.3 1c0 .6.2 1.1.4 1.4c.2.3.5.4.8.4c.3 0 .5-.1.7-.3c.2-.2.3-.6.3-1c0-.6-.1-1.1-.4-1.5zm.2 4.9c-.9 0-1.6 0-2-.1c-.2.2-.3.4-.4.5c-.1.2-.2.4-.2.5c0 .2.1.3.4.5c.3.2.9.3 1.6.3c.7 0 1.2-.1 1.5-.3c.4-.3.5-.5.5-.8c0-.2-.1-.3-.3-.4c-.2-.1-.5-.2-1.1-.2zm5.5-.9c-.5.5-.9.7-1 .8c-.2.1-.5.1-.7.1c-.4 0-.7-.1-.9-.4c-.2-.2-.3-.5-.3-1c0-.2 0-.4.1-.6c.2-.3.5-.5.9-.8c.3-.2 1-.5 1.9-.8v-.2c0-.5-.1-.9-.3-1.1c-.1-.2-.4-.3-.7-.3c-.2 0-.4.1-.6.2c-.1.2-.2.3-.2.5v.3c0 .2 0 .3-.1.4c-.1.1-.2.2-.4.2c-.1 0-.2-.1-.3-.2c-.1-.1-.1-.2-.1-.4c0-.3.1-.6.5-.9c.3-.3.8-.4 1.4-.4c.5 0 .8.1 1.1.2c.3.1.4.3.5.6c.1.1.1.5.1 1v1.8c0 .5 0 .8.1.9c0 .1 0 .2.1.2c0 .1.1.1.1.1c.1 0 .1 0 .2-.1c.1 0 .2-.2.4-.4v.3c-.4.6-.8.9-1.2.9c-.2 0-.3-.1-.4-.2c-.1-.1-.2-.4-.2-.7zm-1.2.2c.3 0 .7-.2 1.2-.5v-2c-.6.2-1 .3-1.1.4c-.3.2-.5.4-.7.6c-.1.2-.2.4-.2.6c0 .3.1.5.3.7c.1.1.3.2.5.2zm5-4.8s-.03 1.16 0 1.2c.4-.8.9-1.2 1.3-1.2c.2 0 .4 0 .5.2c.2.1.3.2.3.4c0 .2-.1.3-.2.4c-.1.1-.2.1-.4.1c-.1 0-.2 0-.4-.2c-.2-.1-.3-.1-.4-.1c0 0-.1 0-.2.1c-.2.1-.3.4-.5.7v2.6c0 .3 0 .5.1.6c0 .1.1.2.2.3c.2.1.4.1.6.1v.2h-2.7v-.2c.3 0 .5-.1.6-.1c.1-.1.2-.2.2-.3v-3.7c0-.1-.1-.2-.2-.3c0 0-.1-.1-.2-.1c-.1 0-.3.1-.4.1c-.01.03-.1-.2-.1-.2l1.6-.6h.3zm11.7 3.2c-.03.04.2.1.2.1l-.7 2.1h-6v-.2s.25-.02.3 0c.3 0 .5-.1.7-.3c0-.2.1-.4.1-.9v-5c0-.5-.1-.8-.2-.9c-.1-.2-.4-.3-.6-.3c-.05.02-.3 0-.3 0v-.2h3.5s-.02.22 0 .2c-.4 0-.7 0-.9.1c-.2.1-.3.2-.3.3c-.1.2-.1.5-.1.9v4.9c0 .3 0 .5.1.7c0 0 .1.1.2.1c.1.1.4.1.9.1h.5c.6 0 1.1 0 1.3-.1c.2-.1.5-.3.7-.5c.2-.2.4-.6.6-1.1zm3.8 1.4c-.6.5-.9.7-1.1.8c-.2.1-.4.1-.6.1c-.4 0-.7-.1-.9-.4c-.3-.2-.4-.5-.4-1c0-.2.1-.4.2-.6c.2-.3.4-.5.8-.8c.4-.2 1.1-.5 2-.8v-.2c0-.5-.1-.9-.3-1.1c-.2-.2-.4-.3-.7-.3c-.3 0-.5.1-.6.2c-.1.2-.2.3-.2.5v.3c0 .2 0 .3-.1.4c-.1.1-.2.2-.4.2c-.1 0-.2-.1-.3-.2c-.1-.1-.2-.2-.2-.4c0-.3.2-.6.5-.9c.4-.3.8-.4 1.5-.4c.4 0 .8.1 1.1.2c.2.1.4.3.5.6c.1.1.1.5.1 1v2.7c.1.1.1.2.1.2c.1.1.1.1.2.1s.1 0 .1-.1c.1 0 .3-.2.5-.4v.3c-.4.6-.8.9-1.2.9c-.2 0-.4-.1-.5-.2c-.1-.1-.1-.4-.1-.7zm-1.2.2c.3 0 .7-.2 1.2-.5v-2c-.6.2-1 .3-1.2.4c-.3.2-.5.4-.6.6c-.1.2-.2.4-.2.6c0 .3.1.5.2.7c.2.1.4.2.6.2zm4.9-3.7c.6-.8 1.2-1.1 1.8-1.1c.3 0 .5 0 .7.2c.2.1.4.4.5.7c.1.2.2.6.2 1.1v2.9c.1.1.1.2.2.2c.1.1.3.1.6.1c-.04-.01 0 .2 0 .2H166v-.2h.1c.2 0 .4-.1.5-.1c.1-.1.1-.2.2-.4V33c0-.4-.1-.8-.2-1c-.1-.2-.3-.3-.6-.3c-.5 0-.9.2-1.4.7v2.8c0 .4.1.6.1.7c0 .1.1.2.2.2c.1.1.3.1.6.1v.2h-2.6v-.2h.1c.3 0 .4-.1.5-.2c.1-.2.2-.4.2-.8v-1.9c0-.7 0-1.1-.1-1.2c0-.1 0-.2-.1-.3c-.1 0-.1-.1-.2-.1c-.1 0-.3.1-.4.1c-.02.03-.1-.2-.1-.2l1.6-.6h.2s.03 1.09 0 1.1zm8.1 3.7c-.3.3-.5.5-.8.6c-.2.1-.5.2-.7.2c-.6 0-1.1-.3-1.6-.8c-.4-.4-.6-1.1-.6-1.8c0-.8.2-1.5.7-2.1c.5-.6 1.1-.9 1.8-.9c.5 0 .9.1 1.2.4v-2.1c-.1-.1-.1-.2-.2-.2c0-.1-.1-.1-.2-.1c-.1 0-.2 0-.4.1l-.1-.2l1.6-.7h.2s.04 6.11 0 6.1c0 .6.1 1 .1 1.1c0 .2.1.3.1.3c.1.1.2.1.2.1c.1 0 .3 0 .5-.1c-.04 0 0 .2 0 .2l-1.5.7h-.3v-.8zm-1 .1c.3 0 .7-.2 1-.5v-2.7c0-.3-.1-.5-.2-.7c-.1-.2-.3-.4-.5-.5c-.2-.1-.3-.2-.5-.2c-.4 0-.7.2-.9.5c-.4.4-.5 1-.5 1.7c0 .8.1 1.4.5 1.8c.3.4.7.6 1.1.6zm3.4 2.5v-.3c.4-.1.7-.3.9-.6c.3-.3.4-.6.4-.9c0-.1-.1-.1-.1-.2h-.1s-.1 0-.2.1c-.1 0-.2.1-.3.1c-.1 0-.3-.1-.4-.2c-.1-.1-.2-.3-.2-.5c0-.2.1-.3.2-.5c.2-.1.4-.2.6-.2c.2 0 .4.2.6.4c.2.2.3.5.3.8c0 .4-.1.8-.4 1.1c-.2.4-.7.7-1.3.9zm11.9-9.8l.1 1.8s-.26.03-.3 0c0-.3-.1-.5-.1-.7l-.5-.5c-.2-.1-.5-.1-.8-.1c.01-.01-1.1 0-1.1 0c0 0 .02 5.94 0 5.9c0 .5.1.8.2.9c.1.2.3.3.6.3c.04-.02.3 0 .3 0v.2h-3.3v-.2s.29-.02.3 0c.3 0 .6-.1.7-.3c.1-.1.1-.4.1-.9v-5.9s-.92-.01-.9 0c-.4 0-.6 0-.8.1c-.2 0-.4.2-.5.4c-.2.2-.2.5-.3.8c.04.03-.2 0-.2 0l.1-1.8h6.4zm5.2 3.5s1.62 2.47 1.6 2.5c.5.7.8 1.1 1.1 1.3c.2.2.5.3.8.3v.2h-3.3s-.03-.22 0-.2c.2 0 .4 0 .5-.1c0 0 .1-.1.2-.1v-.5c0-.1-.1-.3-.3-.5l-1.4-2l-1.6 2.1c-.2.2-.3.3-.3.4v.2c0 .2 0 .3.1.3c.1.1.3.2.6.2v.2h-2.8s.04-.22 0-.2c.2 0 .4-.1.5-.1c.3-.1.5-.3.7-.4l.8-.8c-.04-.02 1.8-2.3 1.8-2.3c0 0-1.54-2.29-1.5-2.3c-.5-.6-.8-1-1.1-1.2c-.3-.2-.6-.3-1-.3v-.2h3.6v.2c-.3 0-.5.1-.6.2c-.1.1-.2.2-.2.3c0 .1.1.3.3.6c-.03-.02 1.2 1.8 1.2 1.8c0 0 1.35-1.79 1.4-1.8c.1-.2.2-.3.2-.4c.1-.1.1-.2.1-.2c0-.1 0-.2-.1-.3c0 0-.1-.1-.2-.1c-.1-.1-.3-.1-.5-.1c-.03.02 0-.2 0-.2h2.7s.03.22 0 .2c-.2 0-.4.1-.5.1c-.2.1-.4.2-.6.4c-.1.1-.4.4-.7.8l-1.5 2zm5.1 3.2c.2 0 .3 0 .5.2c.1.1.2.2.2.4c0 .2-.1.3-.2.5c-.2.1-.3.2-.5.2c-.2 0-.3-.1-.4-.2c-.2-.2-.2-.3-.2-.5c0-.2 0-.3.2-.4c.1-.2.2-.2.4-.2z" stroke="none" fill="#000"/></g><g id="Polygon120191"><path d="m0 17.5l1.6-.6h.2s.03 1.21 0 1.2c.3-.5.6-.8.8-1c.3-.1.6-.2.9-.2c.5 0 1 .2 1.3.6c.5.5.7 1.1.7 2c0 .9-.3 1.6-.8 2.2c-.4.5-1 .7-1.6.7c-.3 0-.5 0-.8-.1c-.1 0-.3-.2-.5-.3v1.6c0 .3 0 .6.1.7c0 .1.1.1.2.2c.1 0 .3.1.6.1c.02-.02 0 .2 0 .2H0v-.2s.1-.02.1 0c.2 0 .4-.1.5-.1l.2-.2c.1-.1.1-.4.1-.8v-4.9c0-.4 0-.6-.1-.7c0-.1-.1-.1-.1-.2c-.1 0-.2-.1-.3-.1c-.1 0-.2.1-.3.1c-.04.02-.1-.2-.1-.2zm2.5.3c-.1.1-.4.3-.7.6v2c0 .4 0 .7.1.9c0 .2.2.4.4.5c.2.2.4.3.8.3c.3 0 .7-.2.9-.5c.3-.3.5-.9.5-1.6c0-.8-.2-1.4-.6-1.9c-.2-.3-.5-.4-.8-.4c-.2 0-.4 0-.6.1zm8.4-.8s-.04 3.2 0 3.2v1.1c0 .2.1.2.1.3c.1.1.2.1.3.1c.1 0 .2 0 .4-.1c-.03-.01 0 .2 0 .2l-1.5.6h-.3s.01-1.08 0-1.1c-.4.5-.8.8-1 .9c-.3.2-.5.2-.8.2c-.3 0-.5 0-.7-.2c-.3-.2-.4-.4-.5-.7c-.1-.2-.1-.6-.1-1.1V18c0-.2 0-.4-.1-.5c0-.1-.1-.2-.2-.2c-.1-.1-.3-.1-.6-.1v-.2h1.8s.04 3.53 0 3.5c0 .5.1.8.3 1c.2.2.4.2.6.2c.2 0 .4 0 .6-.1c.2-.1.4-.3.7-.6v-3c0-.3 0-.5-.1-.6c-.2-.1-.4-.2-.7-.2c-.03.03 0-.2 0-.2h1.8zm2.8-1.7v1.7h1.2v.4h-1.2s-.04 3.43 0 3.4c0 .4 0 .6.1.7c.1.1.2.2.4.2c.1 0 .2 0 .4-.1c.1-.1.2-.2.2-.4h.3c-.2.4-.4.7-.6.9c-.3.2-.5.3-.8.3c-.2 0-.3-.1-.5-.2c-.2-.1-.3-.2-.4-.4c0-.2-.1-.5-.1-.8c.01-.05 0-3.6 0-3.6h-.8s-.02-.17 0-.2c.2-.1.4-.2.6-.4c.2-.2.4-.4.6-.7l.4-.8c-.02-.02.2 0 .2 0zm6.2 0v1.7h1.2v.4h-1.2s-.03 3.43 0 3.4c0 .4 0 .6.1.7c.1.1.2.2.4.2c.1 0 .2 0 .4-.1c.1-.1.2-.2.2-.4h.3c-.2.4-.4.7-.6.9c-.3.2-.5.3-.8.3c-.1 0-.3-.1-.5-.2c-.2-.1-.3-.2-.4-.4c0-.2-.1-.5-.1-.8c.02-.05 0-3.6 0-3.6h-.8v-.2c.2-.1.4-.2.6-.4c.3-.2.5-.4.6-.7l.4-.8c-.01-.02.2 0 .2 0zm4.3 1.6c.8 0 1.4.3 1.9.9c.4.5.6 1.1.6 1.7c0 .5-.1 1-.3 1.5c-.2.5-.6.8-1 1.1c-.4.2-.8.3-1.3.3c-.8 0-1.4-.3-1.9-.9c-.4-.5-.6-1.1-.6-1.8c0-.5.2-1 .4-1.4c.2-.5.6-.9.9-1.1c.4-.2.8-.3 1.3-.3zm.8.9c-.2-.4-.6-.6-1-.6c-.2 0-.4.1-.6.2c-.2.1-.4.3-.5.6c-.1.3-.2.7-.2 1.2c0 .8.2 1.4.5 2c.3.6.7.8 1.2.8c.3 0 .6-.1.9-.4c.2-.3.3-.9.3-1.6c0-.9-.2-1.7-.6-2.2zm3.9 2.6c-.3-.2-.6-.4-.7-.7c-.2-.3-.3-.6-.3-.9c0-.6.2-1 .6-1.4c.4-.4.9-.5 1.5-.5c.5 0 .9.1 1.3.3h1.4s0 .1.1.1v.4h-1.1c.2.3.4.7.4 1.1c0 .5-.2.9-.6 1.3c-.4.3-.9.5-1.5.5c-.3 0-.5-.1-.8-.1c-.2.1-.3.2-.4.3v.5c.1.1.2.1.4.1c.1.1.4.1.8.1c.8 0 1.3 0 1.6.1c.3 0 .6.2.8.4c.2.2.3.4.3.8c0 .4-.2.8-.6 1.2c-.6.5-1.4.8-2.3.8c-.8 0-1.4-.2-1.9-.5c-.3-.2-.4-.4-.4-.6v-.3c.1-.1.2-.3.4-.6c.1 0 .3-.2.6-.6c-.2-.1-.3-.2-.4-.3c-.1-.1-.1-.2-.1-.3c0-.1 0-.3.1-.5c.2-.2.4-.4.8-.7zm1.8-2.9c-.2-.2-.5-.4-.8-.4c-.3 0-.5.1-.7.4c-.2.2-.3.5-.3 1c0 .6.1 1.1.4 1.4c.2.3.4.4.7.4c.3 0 .6-.1.8-.3c.2-.2.2-.6.2-1.1c0-.6-.1-1-.3-1.4zm.1 4.9c-.8 0-1.5-.1-2-.1c-.1.2-.3.4-.4.5c-.1.2-.1.3-.1.5c0 .2.1.3.3.5c.4.2 1 .3 1.7.3c.7 0 1.2-.1 1.5-.3c.3-.3.5-.5.5-.8c0-.2-.1-.4-.3-.4c-.2-.1-.6-.2-1.2-.2zm3.5-3.4c0 .8.1 1.4.5 1.8c.4.5.9.7 1.4.7c.3 0 .6-.1.9-.3c.2-.2.4-.5.6-1l.2.2c-.1.5-.3 1-.7 1.4c-.4.4-.9.6-1.5.6c-.6 0-1.1-.2-1.6-.7c-.4-.5-.7-1.2-.7-2c0-.9.3-1.6.7-2.1c.5-.5 1.1-.7 1.8-.7c.6 0 1 .1 1.4.5c.4.4.6.9.6 1.6h-3.6zm0-.3h2.4c0-.4-.1-.6-.1-.8c-.1-.2-.3-.3-.5-.5c-.1-.1-.3-.1-.5-.1c-.4 0-.6.1-.9.3c-.3.3-.4.6-.4 1.1zm5.8-3.4v1.7h1.3v.4h-1.3s.03 3.43 0 3.4c0 .4.1.6.2.7c.1.1.2.2.3.2c.2 0 .3 0 .4-.1c.1-.1.2-.2.3-.4h.2c-.1.4-.3.7-.6.9c-.2.2-.5.3-.7.3c-.2 0-.4-.1-.5-.2c-.2-.1-.3-.2-.4-.4c-.1-.2-.1-.5-.1-.8c-.02-.05 0-3.6 0-3.6h-.9s.04-.17 0-.2c.3-.1.5-.2.7-.4c.2-.2.4-.4.6-.7c.1-.2.2-.4.3-.8c.05-.02.2 0 .2 0zm3.3-1.2v3.9c.4-.5.8-.8 1-.9c.3-.2.5-.2.8-.2c.3 0 .5 0 .7.2c.3.2.4.4.5.8c.1.2.1.7.1 1.3v1.9c0 .3.1.5.1.7c0 .1.1.1.2.2c.1 0 .3.1.5.1v.2h-2.6v-.2s.14-.03.1 0c.3 0 .5-.1.6-.1c0-.1.1-.2.2-.4v-2.4c0-.5-.1-.9-.1-1.1c-.1-.2-.2-.3-.3-.4c-.1-.1-.3-.1-.5-.1c-.2 0-.4 0-.6.1c-.2.1-.4.3-.7.6v2.8c0 .3 0 .6.1.7l.2.2c.1 0 .3.1.6.1c-.04-.03 0 .2 0 .2h-2.6s-.05-.23 0-.2c.2 0 .4-.1.5-.1c.1-.1.1-.2.2-.3c0-.1.1-.3.1-.6v-4.8c0-.6-.1-.9-.1-1.1c0-.1-.1-.2-.1-.3h-.3s-.2 0-.3.1c-.05-.05-.1-.3-.1-.3l1.5-.6h.3zm5.2 4.9c0 .8.2 1.4.6 1.8c.4.5.8.7 1.4.7c.3 0 .6-.1.9-.3c.2-.2.4-.5.6-1l.2.2c-.1.5-.3 1-.7 1.4c-.4.4-.9.6-1.5.6c-.6 0-1.2-.2-1.6-.7c-.5-.5-.7-1.2-.7-2c0-.9.2-1.6.7-2.1c.5-.5 1-.7 1.7-.7c.6 0 1.1.1 1.5.5c.4.4.6.9.6 1.6h-3.7zm0-.3h2.5c-.1-.4-.1-.6-.2-.8c0-.2-.2-.3-.4-.5c-.2-.1-.4-.1-.6-.1c-.3 0-.6.1-.8.3c-.3.3-.4.6-.5 1.1zm5.9-1.8s.01 1.14 0 1.1c.4-.7.9-1.1 1.4-1.1c.2 0 .4 0 .5.2c.1.1.2.2.2.4c0 .1-.1.3-.2.4c-.1.1-.2.1-.3.1c-.1 0-.3 0-.5-.2c-.1-.1-.3-.2-.3-.2c-.1 0-.2.1-.3.1c-.1.2-.3.5-.5.8v2.5c0 .3 0 .6.1.7l.3.3c.1 0 .3.1.5.1c.03-.03 0 .2 0 .2h-2.7s.03-.23 0-.2c.3 0 .5-.1.6-.2c.1 0 .2-.1.2-.3c.1 0 .1-.2.1-.5v-2c0-.7-.1-1-.1-1.1c0-.2 0-.2-.1-.3c-.1-.1-.2-.1-.3-.1c-.1 0-.2.1-.4.1c.03.01 0-.2 0-.2l1.6-.6h.2zm5 .1h2.2s.04.23 0 .2c-.2 0-.3.1-.4.1c0 .1-.1.2-.1.3c0 .1.1.2.1.4c.05.01 1.2 3 1.2 3l1.1-2.4l-.3-.8c-.1-.2-.2-.4-.4-.5c0 0-.2-.1-.4-.1c-.03.03 0-.2 0-.2h2.5s-.02.23 0 .2c-.3 0-.5.1-.6.2c-.1 0-.1.1-.1.3v.2c.02 0 1.2 3 1.2 3c0 0 1.12-2.89 1.1-2.9c.1-.2.1-.4.1-.5c0-.1 0-.1-.1-.2s-.2-.1-.4-.1v-.2h1.6s.05.23 0 .2c-.3.1-.5.3-.7.7l-1.7 4.5h-.3l-1.3-3.3l-1.5 3.3h-.2s-1.73-4.39-1.7-4.4c-.1-.3-.3-.5-.4-.6c-.1-.1-.2-.1-.5-.2c.04.03 0-.2 0-.2zm10.2-2.9c.1 0 .3.1.4.2c.1.1.1.2.1.4c0 .1 0 .3-.1.4c-.1.1-.3.2-.4.2c-.2 0-.3-.1-.5-.2c-.1-.1-.1-.3-.1-.4c0-.2 0-.3.1-.4c.2-.1.3-.2.5-.2zm.4 2.8s.04 4.19 0 4.2c0 .3.1.5.1.6c.1.2.1.2.2.3c.1 0 .3.1.5.1c.04-.03 0 .2 0 .2h-2.5s-.02-.23 0-.2c.2 0 .4-.1.5-.1c.1-.1.2-.1.2-.3c.1-.1.1-.3.1-.6v-2c0-.6 0-1-.1-1.2c0-.1 0-.2-.1-.2c0-.1-.1-.1-.2-.1c-.1 0-.3.1-.4.1c-.02.01-.1-.2-.1-.2l1.6-.6h.2zm3-1.6v1.7h1.3v.4h-1.3s.02 3.43 0 3.4c0 .4.1.6.2.7c.1.1.2.2.3.2c.2 0 .3 0 .4-.1c.1-.1.2-.2.3-.4h.2c-.1.4-.3.7-.6.9c-.2.2-.5.3-.7.3c-.2 0-.4-.1-.5-.2c-.2-.1-.3-.2-.4-.4c-.1-.2-.1-.5-.1-.8c-.03-.05 0-3.6 0-3.6h-.9s.04-.17 0-.2c.3-.1.5-.2.7-.4c.2-.2.4-.4.6-.7c.1-.2.2-.4.3-.8c.04-.02.2 0 .2 0zm3.3-1.2v3.9c.4-.5.8-.8 1-.9c.3-.2.5-.2.8-.2c.3 0 .5 0 .7.2c.2.2.4.4.5.8c.1.2.1.7.1 1.3v1.9c0 .3 0 .5.1.7c0 .1.1.1.2.2c.1 0 .3.1.5.1v.2h-2.6v-.2s.14-.03.1 0c.3 0 .5-.1.5-.1c.1-.1.2-.2.3-.4v-2.4c0-.5-.1-.9-.1-1.1c-.1-.2-.2-.3-.3-.4c-.1-.1-.3-.1-.5-.1c-.2 0-.4 0-.6.1c-.2.1-.4.3-.7.6v2.8c0 .3 0 .6.1.7l.2.2c.1 0 .3.1.6.1c-.04-.03 0 .2 0 .2h-2.7s.05-.23 0-.2c.3 0 .5-.1.6-.1c.1-.1.1-.2.2-.3c0-.1.1-.3.1-.6v-4.8c0-.6-.1-.9-.1-1.1c0-.1-.1-.2-.1-.3h-.3s-.2 0-.4.1c.05-.05 0-.3 0-.3l1.5-.6h.3zm9.9 2.8c.8 0 1.4.3 1.9.9c.4.5.6 1.1.6 1.7c0 .5-.1 1-.3 1.5c-.3.5-.6.8-1 1.1c-.4.2-.8.3-1.3.3c-.8 0-1.4-.3-1.9-.9c-.4-.5-.6-1.1-.6-1.8c0-.5.1-1 .4-1.4c.2-.5.5-.9.9-1.1c.4-.2.8-.3 1.3-.3zm.8.9c-.3-.4-.6-.6-1-.6c-.2 0-.4.1-.6.2c-.2.1-.4.3-.5.6c-.2.3-.2.7-.2 1.2c0 .8.1 1.4.4 2c.3.6.7.8 1.2.8c.4 0 .7-.1 1-.4c.2-.3.3-.9.3-1.6c0-.9-.2-1.7-.6-2.2zm4-2.5v1.7h1.2v.4h-1.2v3.4c0 .4 0 .6.1.7c.1.1.3.2.4.2c.1 0 .3 0 .4-.1c.1-.1.2-.2.3-.4h.2c-.1.4-.3.7-.6.9c-.2.2-.5.3-.7.3c-.2 0-.4-.1-.6-.2c-.1-.1-.3-.2-.3-.4c-.1-.2-.2-.5-.2-.8c.05-.05 0-3.6 0-3.6h-.8s.02-.17 0-.2c.2-.1.4-.2.7-.4c.2-.2.4-.4.6-.7c0-.2.2-.4.3-.8c.02-.02.2 0 .2 0zm3.3-1.2s-.02 3.85 0 3.9c.4-.5.7-.8 1-.9c.2-.2.5-.2.7-.2c.3 0 .6 0 .8.2c.2.2.4.4.5.8c.1.2.1.7.1 1.3v1.9c0 .3 0 .5.1.7c0 .1.1.1.2.2c.1 0 .2.1.5.1c-.02-.03 0 .2 0 .2h-2.6v-.2s.11-.03.1 0c.3 0 .4-.1.5-.1c.1-.1.2-.2.2-.4v-3.5c-.1-.2-.2-.3-.3-.4c-.2-.1-.3-.1-.5-.1c-.2 0-.4 0-.6.1c-.2.1-.4.3-.7.6v3.5c.1 0 .2.1.3.2c.1 0 .3.1.5.1c.03-.03 0 .2 0 .2h-2.6s.02-.23 0-.2c.3 0 .4-.1.6-.1c.1-.1.1-.2.2-.3v-6.5c0-.1-.1-.2-.1-.3h-.3c-.1 0-.2 0-.4.1c.02-.05-.1-.3-.1-.3l1.6-.6h.3zm5.2 4.9c0 .8.2 1.4.6 1.8c.4.5.8.7 1.3.7c.4 0 .7-.1.9-.3c.3-.2.5-.5.7-1l.1.2c0 .5-.3 1-.7 1.4c-.3.4-.8.6-1.4.6c-.6 0-1.2-.2-1.6-.7c-.5-.5-.7-1.2-.7-2c0-.9.2-1.6.7-2.1c.4-.5 1-.7 1.7-.7c.6 0 1.1.1 1.5.5c.4.4.5.9.5 1.6h-3.6zm0-.3h2.4c0-.4 0-.6-.1-.8c-.1-.2-.2-.3-.4-.5c-.2-.1-.4-.1-.6-.1c-.3 0-.6.1-.9.3c-.2.3-.4.6-.4 1.1zm5.9-1.8s-.02 1.14 0 1.1c.4-.7.9-1.1 1.3-1.1c.2 0 .4 0 .6.2c.1.1.2.2.2.4c0 .1-.1.3-.2.4c-.1.1-.2.1-.3.1c-.2 0-.3 0-.5-.2c-.2-.1-.3-.2-.4-.2c0 0-.1.1-.2.1c-.2.2-.3.5-.5.8v2.5c0 .3 0 .6.1.7c0 .1.1.2.3.3c.1 0 .3.1.5.1v.2h-2.7v-.2c.3 0 .5-.1.6-.2c.1 0 .2-.1.2-.3V18c0-.2-.1-.2-.1-.3c-.1-.1-.2-.1-.3-.1c-.1 0-.2.1-.4.1l-.1-.2l1.6-.6h.3zm12.4-2.4v2.1h-.3c-.1-.5-.2-.8-.4-1.1c-.1-.2-.3-.3-.6-.5c-.1 0-.4-.1-.7-.1c-.04.03-.6 0-.6 0c0 0-.02 6.04 0 6v.8l.3.3c.1 0 .3.1.5.1c.03-.04.3 0 .3 0v.2h-4.1v-.2s.27-.04.3 0c.2 0 .4-.1.5-.2c.1 0 .2-.1.3-.2v-6.8s-.55.03-.5 0c-.6 0-1 .1-1.2.4c-.3.3-.5.7-.6 1.3h-.2v-2.1h7zm5.2 7.9l-1.4-3.9l-1.5 3.9h-.3s-1.41-3.86-1.4-3.9c-.2-.6-.4-.9-.6-1.1c-.1-.1-.2-.2-.4-.3v-.2h2.7v.2c-.2 0-.3 0-.4.1c0 .1-.1.1-.1.2c0 0 .1.2.2.6c.02-.03.8 2.1.8 2.1l.8-2.1s-.1-.17-.1-.2c-.1-.3-.2-.4-.3-.5c-.1-.1-.2-.2-.4-.2v-.2h2.8s-.05.22 0 .2c-.3 0-.4.1-.5.1v.2c0 .1 0 .3.1.6c.03-.03.8 2.1.8 2.1c0 0 .67-1.97.7-2c.1-.2.1-.4.1-.5c0-.2 0-.3-.1-.4c-.1 0-.2-.1-.4-.1v-.2h1.6s-.02.22 0 .2c-.2 0-.3.1-.4.2c-.1.1-.3.4-.4.9c-.04-.03-1.5 4.2-1.5 4.2h-.4zm4.5-8.1c.2 0 .5.1.6.3c.2.1.3.3.3.6c0 .2-.1.4-.3.6c-.2.2-.4.3-.6.3c-.3 0-.5-.1-.6-.3c-.2-.2-.3-.4-.3-.6c0-.3.1-.5.3-.6c.1-.2.3-.3.6-.3zm.8 2.6v4.3c0 .3 0 .6.1.7c.1.1.3.2.5.2c.04-.03 0 .2 0 .2h-2.9s.04-.23 0-.2c.3 0 .5-.1.6-.2c0-.1.1-.4.1-.7V18c0-.4-.1-.6-.1-.7c-.1-.1-.3-.2-.6-.2c.04.02 0-.2 0-.2h2.3zm4.6-.1v1.8h-.1c-.3-.6-.5-.9-.8-1.1c-.2-.2-.5-.3-.7-.3c-.2 0-.3 0-.4.1c-.1.1-.2.3-.2.4c0 .1 0 .2.1.3c.1.2.5.4 1.1.8c.5.4.9.7 1.1 1c.1.2.2.5.2.9c0 .3 0 .6-.2.8c-.1.3-.4.6-.6.7c-.3.2-.6.2-.9.2c-.3 0-.6 0-1.1-.2c-.1 0-.1-.1-.2-.1c-.1 0-.2.1-.3.3c-.01.02-.2 0-.2 0l-.1-1.9h.2c.2.5.4.9.7 1.1c.3.3.6.4.9.4c.2 0 .3-.1.4-.2c.1-.1.2-.2.2-.4c0-.2-.1-.3-.2-.5c-.1-.1-.3-.3-.7-.6c-.6-.4-1-.7-1.2-.9c-.2-.3-.4-.7-.4-1c0-.4.2-.8.5-1.2c.2-.3.7-.5 1.2-.5c.3 0 .6.1.8.3h.5l.2-.2c-.03-.05.2 0 .2 0zm3.3-1.9v2h1.3v.6h-1.3s-.02 3.29 0 3.3v.6c0 .1.1.2.2.2c0 .1.1.1.2.1c.2 0 .5-.2.7-.6l.2.1c-.4.8-.9 1.1-1.6 1.1c-.3 0-.6 0-.8-.2c-.3-.2-.4-.4-.5-.7v-1c-.03-.03 0-2.9 0-2.9h-.7s-.03-.23 0-.2c.4-.4.9-.7 1.2-1.1c.3-.4.6-.8.9-1.3c-.01.04.2 0 .2 0zm6.3 4.5h-2.9c0 .7.2 1.3.5 1.7c.3.3.6.5 1 .5c.2 0 .4-.1.6-.2c.2-.2.4-.4.6-.7l.2.1c-.3.6-.6 1-1 1.3c-.3.2-.7.3-1.2.3c-.8 0-1.4-.3-1.8-.9c-.3-.5-.5-1.1-.5-1.8c0-.9.3-1.6.7-2.2c.5-.5 1.1-.8 1.8-.8c.5 0 1 .3 1.4.7c.4.5.6 1.1.6 2zm-1.4-.4c0-.6 0-1-.1-1.3c-.1-.2-.2-.4-.3-.5c-.1 0-.2-.1-.3-.1c-.2 0-.4.1-.5.3c-.3.4-.4.8-.4 1.4c.04.01 0 .2 0 .2h1.6zm4.3-2.1v1.2c.4-.5.7-.9.9-1.1c.3-.2.6-.3.8-.3c.2 0 .4.1.5.2c.2.2.2.4.2.6c0 .3 0 .5-.2.6c-.1.1-.2.2-.4.2c-.2 0-.4-.1-.5-.2c-.2-.1-.3-.2-.3-.2h-.1c-.1 0-.2 0-.3.1c-.2.1-.3.3-.4.5c-.1.4-.2.8-.2 1.3v1.2s.02.33 0 .3c0 .3 0 .4.1.5c0 .1.1.1.2.2c.1 0 .2.1.4.1c.02-.03 0 .2 0 .2h-2.9s.02-.23 0-.2c.3-.1.4-.1.5-.2c.1-.1.1-.4.1-.9v-3.5c-.1-.2-.1-.2-.2-.3c-.1 0-.2-.1-.4-.1c.02.02 0-.2 0-.2h2.2zm6.4-.1l.1 1.8h-.2c-.2-.6-.5-.9-.7-1.1c-.3-.2-.5-.3-.8-.3c-.1 0-.3 0-.4.1c-.1.1-.2.3-.2.4c0 .1.1.2.2.3c.1.2.4.4 1 .8c.6.4.9.7 1.1 1c.2.2.3.5.3.9c0 .3-.1.6-.3.8c-.1.3-.3.6-.6.7c-.3.2-.6.2-.9.2c-.2 0-.6 0-1-.2c-.1 0-.2-.1-.3-.1c-.1 0-.2.1-.3.3c.03.02-.2 0-.2 0v-1.9h.1c.2.5.5.9.8 1.1c.3.3.5.4.8.4c.2 0 .3-.1.5-.2c.1-.1.1-.2.1-.4c0-.2 0-.3-.1-.5c-.2-.1-.4-.3-.8-.6c-.6-.4-1-.7-1.1-.9c-.3-.3-.4-.7-.4-1c0-.4.1-.8.4-1.2c.3-.3.7-.5 1.2-.5c.3 0 .6.1.9.3h.4l.2-.2c.01-.05.2 0 .2 0zm6.7.1c.8 0 1.4.3 1.9.9c.4.5.6 1.1.6 1.7c0 .5-.1 1-.3 1.5c-.3.5-.6.8-1 1.1c-.4.2-.8.3-1.3.3c-.8 0-1.4-.3-1.9-.9c-.4-.5-.6-1.1-.6-1.8c0-.5.1-1 .4-1.4c.2-.5.5-.9.9-1.1c.4-.2.8-.3 1.3-.3zm.8.9c-.2-.4-.6-.6-1-.6c-.2 0-.4.1-.6.2c-.2.1-.4.3-.5.6c-.1.3-.2.7-.2 1.2c0 .8.1 1.4.5 2c.3.6.7.8 1.2.8c.3 0 .6-.1.9-.4c.2-.3.3-.9.3-1.6c0-.9-.2-1.7-.6-2.2zm4.5-.4s.04 3.48 0 3.5c0 .5.1.8.2.9c.1.2.3.3.6.3c-.03-.03.4 0 .4 0v.2H162v-.2s.24-.03.2 0c.2 0 .3-.1.5-.1c.1-.1.2-.2.2-.4c.1-.1.1-.3.1-.7v-3.5h-1v-.4h1v-.3c0-.6.1-1 .2-1.4c.2-.3.5-.6.8-.8c.4-.3.7-.4 1.2-.4c.4 0 .8.1 1.1.4c.2.2.3.4.3.6c0 .1 0 .2-.1.3c-.1.1-.2.2-.3.2c-.1 0-.2-.1-.3-.1l-.4-.4c-.1-.2-.3-.4-.4-.5c-.1 0-.2-.1-.4-.1c-.1 0-.3.1-.4.2c-.1.1-.2.2-.3.4c0 .2-.1.7-.1 1.5c.04.03 0 .4 0 .4h1.4v.4h-1.4zm4.6-.4h2.4v.2s-.12.03-.1 0c-.2 0-.3.1-.4.1c0 .1-.1.2-.1.3c0 .2.1.3.1.5c.04 0 1.3 2.9 1.3 2.9l1.2-3c.1-.2.1-.4.1-.5v-.1c-.1-.1-.1-.1-.2-.1c0-.1-.2-.1-.4-.1c.03.03 0-.2 0-.2h1.7s.04.23 0 .2c-.2 0-.3.1-.4.1l-.3.6c-.03.02-1.9 4.5-1.9 4.5h-.2l-1.9-4.4c-.1-.2-.2-.4-.3-.5l-.2-.2c-.1 0-.2 0-.4-.1c-.03.03 0-.2 0-.2zm9.1 4.5c-.5.4-.9.7-1 .7c-.2.1-.4.2-.7.2c-.3 0-.6-.1-.9-.4c-.2-.2-.3-.6-.3-1c0-.2 0-.5.1-.6c.2-.3.5-.5.9-.8c.4-.2 1-.5 1.9-.8v-.2c0-.5-.1-.9-.2-1.1c-.2-.2-.5-.3-.8-.3c-.2 0-.4.1-.5.2c-.2.1-.3.3-.3.5v.3c0 .2 0 .3-.1.4c-.1.1-.2.1-.3.1c-.2 0-.3 0-.4-.1c-.1-.1-.1-.2-.1-.4c0-.4.1-.7.5-.9c.3-.3.8-.4 1.4-.4c.5 0 .8 0 1.1.2c.3.1.4.3.5.6c.1.1.2.5.2 1v2.7c0 .1 0 .2.1.2l.1.1c.1 0 .1-.1.2-.1c.1 0 .2-.2.5-.4v.3c-.5.6-.9.9-1.3.9c-.2 0-.3-.1-.4-.2c-.1-.1-.2-.4-.2-.7zm-1.1.2c.2 0 .6-.2 1.1-.6v-2c-.6.3-.9.4-1.1.5c-.3.2-.5.4-.7.6c-.1.1-.2.3-.2.6c0 .2.1.5.3.6c.1.2.3.3.6.3zm4.9-4.8s-.02 1.14 0 1.1c.4-.7.9-1.1 1.3-1.1c.2 0 .4 0 .6.2c.1.1.2.2.2.4c0 .1-.1.3-.2.4c-.1.1-.2.1-.3.1c-.2 0-.3 0-.5-.2c-.2-.1-.3-.2-.4-.2c0 0-.1.1-.2.1c-.2.2-.3.5-.5.8v2.5c0 .3 0 .6.1.7c0 .1.1.2.3.3c.1 0 .3.1.5.1v.2h-2.7v-.2c.3 0 .5-.1.6-.2c.1 0 .2-.1.2-.3V18c0-.2-.1-.2-.1-.3c-.1-.1-.2-.1-.3-.1c-.1 0-.2.1-.4.1l-.1-.2l1.6-.6h.3zm2.1.1h2.4v.2s-.11.03-.1 0c-.2 0-.3.1-.4.1c-.1.1-.1.2-.1.3c0 .2 0 .4.2.6c-.03.04 1.2 2.7 1.2 2.7c0 0 1.23-2.92 1.2-2.9c.1-.2.1-.3.1-.5v-.1c0-.1-.1-.1-.2-.1c0-.1-.1-.1-.3-.1v-.2h1.7v.2c-.1 0-.2.1-.3.1c-.1.1-.2.1-.3.3l-.2.4l-2.1 5.3c-.2.5-.5.9-.8 1.1c-.4.3-.7.4-1 .4c-.2 0-.4-.1-.6-.2c-.1-.1-.2-.3-.2-.4c0-.2.1-.3.2-.4c.1-.1.2-.2.4-.2c.1 0 .3.1.5.2h.3c.1 0 .3 0 .4-.1c.1-.1.3-.4.4-.7l.4-.9l-1.9-4c-.1-.1-.2-.3-.3-.4c-.1-.2-.2-.3-.2-.3c-.1-.1-.2-.1-.4-.2c-.04.03 0-.2 0-.2zm7.5-2.9c.1 0 .3.1.4.2c.1.1.2.2.2.4c0 .1-.1.3-.2.4c-.1.1-.3.2-.4.2c-.2 0-.3-.1-.4-.2c-.1-.1-.2-.3-.2-.4c0-.2.1-.3.2-.4c.1-.1.2-.2.4-.2zm.5 2.8s-.04 4.19 0 4.2v.6c.1.2.1.2.2.3c.1 0 .3.1.6.1c-.04-.03 0 .2 0 .2h-2.6v-.2c.3 0 .4-.1.5-.1c.1-.1.2-.1.2-.3c.1-.1.1-.3.1-.6v-3.2c-.1-.1-.1-.2-.2-.2c0-.1-.1-.1-.2-.1c-.1 0-.2.1-.4.1l-.1-.2l1.6-.6h.3zm2.9 1.1c.7-.8 1.2-1.1 1.8-1.1c.3 0 .5 0 .7.2c.3.1.4.4.5.7c.1.2.2.6.2 1v2.3c0 .3 0 .5.1.7c0 .1.1.1.2.2c0 0 .2.1.5.1c-.03-.03 0 .2 0 .2h-2.6v-.2s.08-.03.1 0c.2 0 .4-.1.5-.1c.1-.1.2-.2.2-.4v-2.7c0-.4 0-.8-.2-1c-.1-.2-.3-.3-.6-.3c-.4 0-.9.2-1.4.7v2.8c0 .3.1.6.1.6c.1.2.1.2.2.3c.1 0 .3.1.6.1v.2h-2.6v-.2s.11-.03.1 0c.3 0 .5-.1.6-.2c.1-.2.1-.4.1-.8V18c-.1-.2-.1-.3-.2-.3c0-.1-.1-.1-.2-.1c-.1 0-.3.1-.4.1l-.1-.2l1.6-.6h.2s.05 1.07 0 1.1zm5.8 2.4c-.3-.2-.6-.4-.7-.7c-.2-.3-.3-.6-.3-.9c0-.6.2-1 .6-1.4c.4-.4.9-.5 1.5-.5c.5 0 .9.1 1.3.3h1.4s0 .1.1.1v.4H203c.2.3.4.7.4 1.1c0 .5-.2.9-.6 1.3c-.4.3-.9.5-1.5.5c-.3 0-.5-.1-.8-.1c-.2.1-.3.2-.4.3v.5c.1.1.2.1.4.1c.1.1.4.1.8.1c.8 0 1.3 0 1.6.1c.3 0 .6.2.8.4c.2.2.3.4.3.8c0 .4-.2.8-.6 1.2c-.6.5-1.4.8-2.3.8c-.8 0-1.4-.2-1.9-.5c-.3-.2-.4-.4-.4-.6v-.3c.1-.1.2-.3.4-.6c.1 0 .3-.2.6-.6c-.2-.1-.3-.2-.4-.3c-.1-.1-.1-.2-.1-.3c0-.1 0-.3.1-.5c.2-.2.4-.4.8-.7zm1.8-2.9c-.2-.2-.5-.4-.8-.4c-.3 0-.5.1-.7.4c-.2.2-.3.5-.3 1c0 .6.1 1.1.4 1.4c.2.3.4.4.7.4c.3 0 .6-.1.8-.3c.2-.2.2-.6.2-1.1c0-.6-.1-1-.3-1.4zm.1 4.9c-.8 0-1.5-.1-2-.1c-.1.2-.3.4-.4.5c-.1.2-.1.3-.1.5c0 .2.1.3.3.5c.4.2 1 .3 1.7.3c.7 0 1.2-.1 1.5-.3c.3-.3.5-.5.5-.8c0-.2-.1-.4-.3-.4c-.2-.1-.6-.2-1.2-.2zm8.9-5.5v1.8s-.17-.05-.2 0c-.1-.6-.3-1-.5-1.2c-.3-.2-.5-.3-.9-.3c-.3 0-.5.1-.7.2c-.1.2-.2.3-.2.5c0 .2.1.4.2.5c.1.2.3.4.7.5l.8.4c.8.4 1.2.9 1.2 1.5c0 .5-.2.9-.5 1.2c-.4.3-.8.4-1.2.4c-.4 0-.7 0-1.1-.1c-.2-.1-.3-.1-.4-.1l-.2.2c.04-.04-.2 0-.2 0v-1.9s.24-.02.2 0c.1.5.3.9.7 1.2c.3.3.6.4 1 .4c.2 0 .4-.1.6-.2c.2-.2.3-.4.3-.6c0-.3-.1-.5-.3-.7c-.2-.1-.6-.4-1.1-.6c-.6-.3-.9-.6-1.1-.8c-.2-.2-.3-.5-.3-.8c0-.5.2-.8.5-1.1c.3-.3.6-.4 1.1-.4c.2 0 .5 0 .8.1c.2 0 .3.1.4.1c0 0 .1 0 .1-.1l.1-.1c.03-.04.2 0 .2 0zm2.5-2.8c.2 0 .3.1.4.2c.2.1.2.2.2.4c0 .1 0 .3-.2.4c-.1.1-.2.2-.4.2c-.1 0-.3-.1-.4-.2c-.1-.1-.2-.3-.2-.4c0-.2.1-.3.2-.4c.1-.1.3-.2.4-.2zm.5 2.8v4.2c0 .3 0 .5.1.6c0 .2.1.2.2.3c.1 0 .3.1.5.1v.2h-2.5s-.05-.23 0-.2c.2 0 .4-.1.5-.1c.1-.1.1-.1.2-.3c0-.1.1-.3.1-.6v-2c0-.6-.1-1-.1-1.2c0-.1-.1-.2-.1-.2c-.1-.1-.2-.1-.3-.1c-.1 0-.2.1-.3.1c-.05.01-.1-.2-.1-.2l1.6-.6h.2zm6 3.8v1.6h-4.7v-.2l3.5-4.7s-1.7.01-1.7 0c-.4 0-.6 0-.7.1c-.1 0-.2.1-.3.3c-.1.2-.2.4-.2.7c.01-.03-.2 0-.2 0V17h4.4v.2l-3.5 4.7h1.9c.4 0 .7 0 .8-.1c.2-.1.3-.2.4-.4c0-.1.1-.3.1-.7c.04-.04.2 0 .2 0zm1.6-1.7c0 .8.2 1.4.5 1.8c.4.5.9.7 1.4.7c.3 0 .6-.1.9-.3c.2-.2.5-.5.6-1l.2.2c-.1.5-.3 1-.7 1.4c-.4.4-.9.6-1.4.6c-.7 0-1.2-.2-1.7-.7c-.4-.5-.6-1.2-.6-2c0-.9.2-1.6.6-2.1c.5-.5 1.1-.7 1.8-.7c.6 0 1.1.1 1.4.5c.4.4.6.9.6 1.6h-3.6zm0-.3h2.4c0-.4-.1-.6-.1-.8c-.1-.2-.3-.3-.4-.5c-.2-.1-.4-.1-.6-.1c-.4 0-.6.1-.9.3c-.2.3-.4.6-.4 1.1zm7.7-1.8v1.8s-.18-.05-.2 0c-.1-.6-.3-1-.5-1.2c-.3-.2-.6-.3-.9-.3c-.3 0-.5.1-.7.2c-.1.2-.2.3-.2.5c0 .2.1.4.2.5c.1.2.3.4.7.5l.8.4c.8.4 1.2.9 1.2 1.5c0 .5-.2.9-.5 1.2c-.4.3-.8.4-1.3.4c-.3 0-.6 0-1.1-.1c-.1-.1-.2-.1-.3-.1c-.1 0-.1.1-.2.2c.03-.04-.2 0-.2 0v-1.9s.23-.02.2 0c.1.5.3.9.6 1.2c.3.3.7.4 1.1.4c.2 0 .4-.1.6-.2c.2-.2.3-.4.3-.6c0-.3-.1-.5-.3-.7c-.2-.1-.6-.4-1.1-.6c-.6-.3-1-.6-1.1-.8c-.2-.2-.3-.5-.3-.8c0-.5.2-.8.5-1.1c.3-.3.6-.4 1.1-.4c.2 0 .5 0 .8.1c.2 0 .3.1.4.1c0 0 .1 0 .1-.1l.1-.1c.02-.04.2 0 .2 0zm1.5 7.3v-.2c.3-.1.7-.4.9-.6c.2-.3.3-.6.3-.9c0-.1 0-.1-.1-.2c-.1 0-.2 0-.3.1h-.2c-.2 0-.4 0-.5-.1c-.1-.1-.1-.3-.1-.5c0-.2 0-.3.2-.5c.1-.1.3-.2.5-.2c.2 0 .5.1.7.4c.2.2.3.5.3.8c0 .4-.2.8-.4 1.1c-.3.4-.8.6-1.3.8zm7.1-8.9v1.7h1.2v.4h-1.2v3.4c0 .4 0 .6.1.7c.1.1.3.2.4.2c.1 0 .3 0 .4-.1c.1-.1.2-.2.3-.4h.2c-.1.4-.3.7-.6.9c-.2.2-.5.3-.7.3c-.2 0-.4-.1-.6-.2c-.1-.1-.3-.2-.3-.4c-.1-.2-.2-.5-.2-.8c.05-.05 0-3.6 0-3.6h-.8s.02-.17 0-.2c.2-.1.4-.2.7-.4c.2-.2.4-.4.6-.7c0-.2.2-.4.3-.8c.02-.02.2 0 .2 0zm3.3-1.2s-.02 3.85 0 3.9c.4-.5.7-.8 1-.9c.2-.2.5-.2.7-.2c.3 0 .6 0 .8.2c.2.2.4.4.5.8c.1.2.1.7.1 1.3v1.9c0 .3 0 .5.1.7c0 .1.1.1.2.2c.1 0 .2.1.5.1c-.02-.03 0 .2 0 .2h-2.6v-.2s.11-.03.1 0c.3 0 .4-.1.5-.1c.1-.1.2-.2.2-.4v-3.5c-.1-.2-.2-.3-.3-.4c-.2-.1-.3-.1-.5-.1c-.2 0-.4 0-.6.1c-.2.1-.4.3-.7.6v3.5c.1 0 .2.1.3.2c.1 0 .3.1.5.1c.03-.03 0 .2 0 .2h-2.6s.02-.23 0-.2c.3 0 .4-.1.6-.1c.1-.1.1-.2.2-.3v-6.5c0-.1-.1-.2-.1-.3h-.3c-.1 0-.2 0-.4.1c.02-.05-.1-.3-.1-.3l1.6-.6h.3zm5.2 4.9c0 .8.2 1.4.6 1.8c.4.5.8.7 1.3.7c.4 0 .7-.1.9-.3c.3-.2.5-.5.7-1l.1.2c0 .5-.3 1-.7 1.4c-.3.4-.8.6-1.4.6c-.6 0-1.2-.2-1.6-.7c-.5-.5-.7-1.2-.7-2c0-.9.2-1.6.7-2.1c.4-.5 1-.7 1.7-.7c.6 0 1.1.1 1.5.5c.4.4.5.9.5 1.6h-3.6zm0-.3h2.4c0-.4 0-.6-.1-.8c-.1-.2-.2-.3-.4-.5c-.2-.1-.4-.1-.6-.1c-.3 0-.6.1-.9.3c-.2.3-.4.6-.4 1.1zm11 3c-.3.3-.5.4-.8.6c-.2.1-.5.1-.7.1c-.6 0-1.1-.2-1.6-.7c-.4-.5-.6-1.1-.6-1.8c0-.8.2-1.5.7-2.1c.5-.6 1.1-.9 1.9-.9c.4 0 .8.1 1.1.4v-2.1c-.1-.1-.1-.2-.2-.3h-.2c-.1 0-.2 0-.4.1l-.1-.3l1.6-.6h.2s.05 6.09 0 6.1c0 .6.1 1 .1 1.1c0 .2.1.2.1.3c.1.1.2.1.2.1c.2 0 .3 0 .5-.1c-.04-.01 0 .2 0 .2l-1.5.6h-.3v-.7zm-1 .1c.3 0 .7-.2 1-.5v-2.7c0-.3-.1-.5-.2-.7c-.1-.3-.3-.4-.5-.5c-.2-.1-.3-.2-.5-.2c-.4 0-.7.2-.9.5c-.4.4-.5.9-.5 1.7c0 .8.1 1.4.5 1.8c.3.4.7.6 1.1.6zm4.5-7.7c.2 0 .3.1.4.2c.1.1.2.2.2.4c0 .1-.1.3-.2.4c-.1.1-.2.2-.4.2c-.2 0-.3-.1-.4-.2c-.1-.1-.2-.3-.2-.4c0-.2.1-.3.2-.4c.1-.1.2-.2.4-.2zm.5 2.8s-.02 4.19 0 4.2c0 .3 0 .5.1.6c0 .2.1.2.2.3c.1 0 .2.1.5.1c-.02-.03 0 .2 0 .2h-2.6s.02-.23 0-.2c.3 0 .5-.1.5-.1c.1-.1.2-.1.2-.3c.1-.1.1-.3.1-.6v-3.2c-.1-.1-.1-.2-.2-.2c0-.1-.1-.1-.2-.1c-.1 0-.2.1-.4.1c.02.01-.1-.2-.1-.2l1.6-.6h.3zm4.8 0v1.8s-.16-.05-.2 0c-.1-.6-.3-1-.5-1.2c-.2-.2-.5-.3-.9-.3c-.3 0-.5.1-.6.2c-.2.2-.3.3-.3.5c0 .2.1.4.2.5c.1.2.4.4.7.5l.9.4c.7.4 1.1.9 1.1 1.5c0 .5-.2.9-.5 1.2c-.4.3-.8.4-1.2.4c-.3 0-.7 0-1.1-.1c-.2-.1-.3-.1-.3-.1c-.1 0-.2.1-.2.2c-.05-.04-.2 0-.2 0v-1.9s.15-.02.2 0c.1.5.3.9.6 1.2c.3.3.6.4 1 .4c.2 0 .5-.1.6-.2c.2-.2.3-.4.3-.6c0-.3-.1-.5-.3-.7c-.2-.1-.6-.4-1.1-.6c-.6-.3-.9-.6-1.1-.8c-.2-.2-.3-.5-.3-.8c0-.5.2-.8.5-1.1c.3-.3.7-.4 1.1-.4c.2 0 .5 0 .8.1c.2 0 .3.1.4.1c0 0 .1 0 .1-.1c.1 0 .1-.1.1-.1c.04-.04.2 0 .2 0zm.8.6l1.7-.6h.2s-.03 1.21 0 1.2c.2-.5.5-.8.8-1c.3-.1.6-.2.9-.2c.5 0 .9.2 1.3.6c.4.5.6 1.1.6 2c0 .9-.2 1.6-.8 2.2c-.4.5-.9.7-1.6.7c-.3 0-.5 0-.7-.1c-.2 0-.3-.2-.5-.3v2.3c.1.1.2.1.3.2c.1 0 .3.1.6.1c-.04-.02 0 .2 0 .2H267v-.2s.15-.02.1 0c.3 0 .4-.1.6-.1c.1-.1.1-.2.2-.2v-6.4l-.2-.2s-.1-.1-.2-.1c-.1 0-.3.1-.4.1l-.1-.2zm2.6.3c-.2.1-.4.3-.7.6v2.9c.1.2.2.4.4.5c.2.2.5.3.8.3c.4 0 .7-.2.9-.5c.3-.3.5-.9.5-1.6c0-.8-.2-1.4-.5-1.9c-.3-.3-.6-.4-.9-.4c-.2 0-.4 0-.5.1zm5.5-3.7v7c0 .3 0 .5.1.6c0 .1.1.2.2.3c.1 0 .3.1.6.1c-.05-.03 0 .2 0 .2h-2.6s-.03-.23 0-.2c.2 0 .4-.1.5-.1c.1-.1.1-.1.2-.3v-6.5c0-.1-.1-.2-.1-.3h-.2c-.1 0-.3 0-.4.1c-.03-.05-.1-.3-.1-.3l1.5-.6h.3zm4.4 7.4c-.5.4-.8.7-1 .7c-.2.1-.4.2-.6.2c-.4 0-.7-.1-.9-.4c-.3-.2-.4-.6-.4-1c0-.2.1-.5.2-.6c.1-.3.4-.5.8-.8c.4-.2 1-.5 1.9-.8v-.2c0-.5 0-.9-.2-1.1c-.2-.2-.4-.3-.7-.3c-.3 0-.5.1-.6.2c-.2.1-.2.3-.2.5v.3c0 .2-.1.3-.1.4c-.1.1-.3.1-.4.1c-.1 0-.3 0-.3-.1c-.1-.1-.2-.2-.2-.4c0-.4.2-.7.5-.9c.4-.3.8-.4 1.4-.4c.5 0 .9 0 1.2.2c.2.1.4.3.5.6c.1.1.1.5.1 1v2.7c0 .1.1.2.1.2c.1 0 .1.1.2.1l.1-.1c.1 0 .3-.2.5-.4v.3c-.4.6-.8.9-1.2.9c-.2 0-.4-.1-.5-.2c-.1-.1-.2-.4-.2-.7zm-1.1.2c.3 0 .7-.2 1.1-.6v-2c-.5.3-.9.4-1.1.5c-.3.2-.5.4-.6.6c-.2.1-.2.3-.2.6c0 .2.1.5.2.6c.2.2.4.3.6.3zm3.1-4.7h2.4v.2s-.08.03-.1 0c-.2 0-.3.1-.4.1c-.1.1-.1.2-.1.3c0 .2.1.4.2.6c-.01.04 1.3 2.7 1.3 2.7c0 0 1.15-2.92 1.1-2.9c.1-.2.1-.3.1-.5v-.1c0-.1-.1-.1-.1-.1c-.1-.1-.2-.1-.4-.1c.02.03 0-.2 0-.2h1.7s.03.23 0 .2c-.1 0-.2.1-.3.1c-.1.1-.2.1-.3.3c0 0 0 .2-.1.4l-2.2 5.3c-.2.5-.5.9-.8 1.1c-.3.3-.7.4-1 .4c-.2 0-.4-.1-.5-.2c-.2-.1-.2-.3-.2-.4c0-.2 0-.3.1-.4c.1-.1.3-.2.4-.2c.2 0 .3.1.6.2h.3c.1 0 .2 0 .3-.1c.2-.1.3-.4.4-.7c.04-.02.4-.9.4-.9c0 0-1.88-4-1.9-4c0-.1-.1-.3-.3-.4c0-.2-.1-.3-.2-.3c-.1-.1-.2-.1-.4-.2v-.2zm10.4-2.9c.2 0 .3.1.5.2c.1.1.1.2.1.4c0 .1 0 .3-.1.4c-.2.1-.3.2-.5.2c-.1 0-.3-.1-.4-.2c-.1-.1-.1-.3-.1-.4c0-.2 0-.3.1-.4c.1-.1.3-.2.4-.2zm.5 2.8s.02 4.19 0 4.2c0 .3 0 .5.1.6c0 .2.1.2.2.3c.1 0 .3.1.5.1c.02-.03 0 .2 0 .2h-2.5s-.03-.23 0-.2c.2 0 .4-.1.5-.1c.1-.1.1-.1.2-.3c0-.1.1-.3.1-.6v-2c0-.6 0-1-.1-1.2c0-.1-.1-.2-.1-.2c-.1-.1-.1-.1-.2-.1c-.2 0-.3.1-.4.1c-.03.01-.1-.2-.1-.2l1.6-.6h.2zm4.9 0v1.8s-.21-.05-.2 0c-.2-.6-.3-1-.6-1.2c-.2-.2-.5-.3-.8-.3c-.3 0-.5.1-.7.2c-.2.2-.2.3-.2.5c0 .2 0 .4.1.5c.2.2.4.4.8.5l.8.4c.8.4 1.2.9 1.2 1.5c0 .5-.2.9-.6 1.2c-.3.3-.7.4-1.2.4c-.3 0-.7 0-1.1-.1c-.1-.1-.2-.1-.3-.1c-.1 0-.2.1-.2.2c0-.04-.2 0-.2 0v-1.9s.2-.02.2 0c.1.5.3.9.6 1.2c.3.3.7.4 1 .4c.3 0 .5-.1.7-.2c.1-.2.2-.4.2-.6c0-.3-.1-.5-.3-.7c-.1-.1-.5-.4-1.1-.6c-.5-.3-.9-.6-1.1-.8c-.1-.2-.2-.5-.2-.8c0-.5.1-.8.4-1.1c.3-.3.7-.4 1.2-.4c.2 0 .4 0 .7.1c.2 0 .4.1.4.1c.1 0 .1 0 .2-.1s0-.1.1-.1c-.01-.04.2 0 .2 0zM303 18c.3-.4.6-.6.6-.7l.6-.3c.2-.1.4-.1.6-.1c.3 0 .6.1.8.2c.3.2.4.5.5.9c.4-.5.7-.8 1-.9c.3-.2.6-.2.9-.2c.2 0 .5 0 .7.2c.2.1.4.4.5.7c.1.2.1.5.1 1v2.3c0 .3.1.5.1.7l.2.2c.1 0 .3.1.5.1c.03-.03 0 .2 0 .2h-2.6v-.2s.14-.03.1 0c.3 0 .4-.1.6-.2c.1 0 .1-.1.2-.3v-2.8c0-.4-.1-.7-.2-.9c-.1-.2-.4-.4-.7-.4c-.2 0-.4.1-.6.2c-.2.1-.5.3-.7.6c-.05-.03-.1 0-.1 0l.1.3s-.05 2.49 0 2.5v.7c.1 0 .1.1.2.2c.2 0 .3.1.6.1v.2h-2.7s.05-.23 0-.2c.3 0 .5-.1.6-.1c.2-.1.2-.2.3-.3v-2.9c0-.4-.1-.7-.2-.9c-.2-.2-.4-.4-.7-.4c-.2 0-.4.1-.6.2c-.3.2-.6.4-.7.6v3.5l.2.2c.1 0 .3.1.6.1v.2h-2.6v-.2c.3 0 .4-.1.5-.1c.1-.1.2-.1.2-.3c.1-.1.1-.3.1-.6V18c-.1-.2-.1-.3-.2-.3c0-.1-.1-.1-.2-.1c-.1 0-.2.1-.4.1l-.1-.2l1.6-.6h.3s-.04 1.08 0 1.1zm10.5 3.5c-.5.4-.9.7-1 .7c-.2.1-.4.2-.6.2c-.4 0-.7-.1-.9-.4c-.3-.2-.4-.6-.4-1c0-.2.1-.5.2-.6c.1-.3.4-.5.8-.8c.4-.2 1-.5 1.9-.8v-.2c0-.5-.1-.9-.2-1.1c-.2-.2-.4-.3-.7-.3c-.3 0-.5.1-.6.2c-.2.1-.2.3-.2.5v.3c0 .2-.1.3-.2.4c-.1.1-.2.1-.3.1c-.2 0-.3 0-.4-.1c-.1-.1-.1-.2-.1-.4c0-.4.2-.7.5-.9c.3-.3.8-.4 1.4-.4c.5 0 .9 0 1.2.2c.2.1.4.3.5.6c0 .1.1.5.1 1v2.7c0 .1.1.2.1.2c0 0 .1.1.2.1l.1-.1c.1 0 .2-.2.5-.4v.3c-.5.6-.9.9-1.3.9c-.1 0-.3-.1-.4-.2c-.1-.1-.2-.4-.2-.7zm-1.1.2c.3 0 .7-.2 1.1-.6v-2c-.6.3-.9.4-1.1.5c-.3.2-.5.4-.6.6c-.2.1-.2.3-.2.6c0 .2 0 .5.2.6c.2.2.4.3.6.3zm4.8-1.3c-.3-.2-.6-.4-.8-.7c-.1-.3-.2-.6-.2-.9c0-.6.2-1 .6-1.4c.4-.4.9-.5 1.5-.5c.5 0 .9.1 1.3.3h1.4v.1c.1 0 .1.1.1.2c0 .1 0 .1-.1.2h-1c.2.3.3.7.3 1.1c0 .5-.2.9-.5 1.3c-.4.3-.9.5-1.5.5c-.3 0-.6-.1-.8-.1c-.2.1-.3.2-.4.3c0 .2-.1.2-.1.3c0 .1.1.2.1.2c.1.1.2.1.4.1c.1.1.4.1.8.1c.8 0 1.3 0 1.5.1c.4 0 .7.2.9.4c.2.2.3.4.3.8c0 .4-.2.8-.6 1.2c-.6.5-1.4.8-2.3.8c-.8 0-1.4-.2-1.9-.5c-.3-.2-.4-.4-.4-.6v-.3c.1-.1.2-.3.4-.6l.6-.6c-.2-.1-.3-.2-.4-.3c-.1-.1-.1-.2-.1-.3c0-.1 0-.3.1-.5c.1-.2.4-.4.8-.7zm1.7-2.9c-.2-.2-.4-.4-.7-.4c-.3 0-.5.1-.7.4c-.2.2-.3.5-.3 1c0 .6.1 1.1.4 1.4c.2.3.4.4.7.4c.3 0 .6-.1.7-.3c.2-.2.3-.6.3-1.1c0-.6-.1-1-.4-1.4zm.2 4.9c-.9 0-1.5-.1-2-.1c-.2.2-.3.4-.4.5c-.1.2-.1.3-.1.5c0 .2.1.3.3.5c.4.2.9.3 1.7.3c.7 0 1.2-.1 1.5-.3c.3-.3.5-.5.5-.8c0-.2-.1-.4-.3-.4c-.2-.1-.6-.2-1.2-.2zm4.1-4.4c.6-.8 1.2-1.1 1.7-1.1c.3 0 .6 0 .8.2c.2.1.4.4.5.7c.1.2.1.6.1 1v2.3c0 .3 0 .5.1.7c0 .1.1.1.2.2c.1 0 .3.1.5.1v.2h-2.6v-.2s.12-.03.1 0c.3 0 .4-.1.5-.1c.1-.1.2-.2.2-.4c.1 0 .1-.2.1-.5v-2.2c0-.4-.1-.8-.2-1c-.1-.2-.4-.3-.7-.3c-.4 0-.9.2-1.3.7v3.4c.1.2.2.2.3.3c.1 0 .3.1.5.1c.04-.03 0 .2 0 .2h-2.6v-.2s.15-.03.2 0c.2 0 .4-.1.5-.2c.1-.2.1-.4.1-.8V18c0-.2-.1-.3-.1-.3c-.1-.1-.2-.1-.3-.1c-.1 0-.2.1-.4.1c.04.01 0-.2 0-.2l1.5-.6h.3s-.02 1.07 0 1.1zm5.2 1c0 .8.2 1.4.6 1.8c.4.5.8.7 1.3.7c.4 0 .7-.1.9-.3c.3-.2.5-.5.7-1l.2.2c-.1.5-.4 1-.7 1.4c-.4.4-.9.6-1.5.6c-.6 0-1.2-.2-1.6-.7c-.5-.5-.7-1.2-.7-2c0-.9.2-1.6.7-2.1c.5-.5 1-.7 1.7-.7c.6 0 1.1.1 1.5.5c.4.4.6.9.6 1.6h-3.7zm0-.3h2.5c-.1-.4-.1-.6-.2-.8c-.1-.2-.2-.3-.4-.5c-.2-.1-.4-.1-.6-.1c-.3 0-.6.1-.8.3c-.3.3-.4.6-.5 1.1zm5.9-3.4v1.7h1.2v.4h-1.2s-.02 3.43 0 3.4c0 .4 0 .6.1.7c.1.1.3.2.4.2c.1 0 .3 0 .4-.1c.1-.1.2-.2.2-.4h.3c-.2.4-.4.7-.6.9c-.2.2-.5.3-.8.3c-.1 0-.3-.1-.5-.2c-.1-.1-.3-.2-.3-.4c-.1-.2-.2-.5-.2-.8c.04-.05 0-3.6 0-3.6h-.8v-.2c.2-.1.4-.2.6-.4c.3-.2.5-.4.6-.7l.4-.8c.01-.02.2 0 .2 0zm3.1-1.2c.1 0 .3.1.4.2c.1.1.1.2.1.4c0 .1 0 .3-.1.4c-.1.1-.3.2-.4.2c-.2 0-.3-.1-.5-.2c-.1-.1-.1-.3-.1-.4c0-.2 0-.3.1-.4c.2-.1.3-.2.5-.2zm.4 2.8s.04 4.19 0 4.2c0 .3.1.5.1.6c.1.2.1.2.2.3c.1 0 .3.1.5.1c.04-.03 0 .2 0 .2h-2.5s-.02-.23 0-.2c.2 0 .4-.1.5-.1c.1-.1.2-.1.2-.3c.1-.1.1-.3.1-.6v-2c0-.6 0-1-.1-1.2c0-.1 0-.2-.1-.2c-.1-.1-.1-.1-.2-.1c-.1 0-.3.1-.4.1c-.02.01-.1-.2-.1-.2l1.6-.6h.2zm6 3.4c-.2.7-.5 1.2-.9 1.6c-.4.3-.8.5-1.3.5c-.6 0-1.2-.2-1.6-.7c-.5-.5-.7-1.2-.7-2.1c0-.8.3-1.4.8-2c.5-.5 1-.7 1.7-.7c.6 0 1 .1 1.3.4c.3.2.5.5.5.8c0 .2 0 .3-.1.4c-.1.1-.3.1-.4.1c-.2 0-.4-.1-.5-.2c-.1-.1-.1-.2-.2-.5c0-.2-.1-.4-.2-.5c-.1-.1-.3-.2-.6-.2c-.3 0-.6.2-.9.5c-.3.3-.4.8-.4 1.5c0 .6.1 1.1.4 1.6c.3.5.7.7 1.3.7c.3 0 .7-.1 1-.3c.2-.2.4-.5.6-1l.2.1zm6.6 1.2c-.5.4-.8.7-1 .7c-.2.1-.4.2-.6.2c-.4 0-.7-.1-.9-.4c-.3-.2-.4-.6-.4-1c0-.2.1-.5.2-.6c.1-.3.4-.5.8-.8c.4-.2 1-.5 1.9-.8v-.2c0-.5 0-.9-.2-1.1c-.2-.2-.4-.3-.7-.3c-.3 0-.5.1-.6.2c-.2.1-.2.3-.2.5v.3c0 .2-.1.3-.2.4c0 .1-.2.1-.3.1c-.2 0-.3 0-.4-.1c0-.1-.1-.2-.1-.4c0-.4.2-.7.5-.9c.4-.3.8-.4 1.4-.4c.5 0 .9 0 1.2.2c.2.1.4.3.5.6c0 .1.1.5.1 1v2.7c0 .1.1.2.1.2c.1 0 .1.1.2.1l.1-.1c.1 0 .3-.2.5-.4v.3c-.4.6-.9.9-1.2.9c-.2 0-.4-.1-.5-.2c-.1-.1-.2-.4-.2-.7zm-1.1.2c.3 0 .7-.2 1.1-.6v-2c-.5.3-.9.4-1.1.5c-.3.2-.5.4-.6.6c-.2.1-.2.3-.2.6c0 .2.1.5.2.6c.2.2.4.3.6.3zm4.9-3.7c.6-.8 1.2-1.1 1.8-1.1c.3 0 .5 0 .7.2c.2.1.4.4.5.7c.1.2.1.6.1 1v2.3c0 .3.1.5.1.7l.2.2c.1 0 .3.1.5.1c.04-.03 0 .2 0 .2h-2.6v-.2s.15-.03.1 0c.3 0 .5-.1.6-.1c.1-.1.1-.2.2-.4v-2.7c0-.4-.1-.8-.2-1c-.1-.2-.3-.3-.6-.3c-.5 0-.9.2-1.4.7v2.8c0 .3 0 .6.1.6c0 .2.1.2.2.3c.1 0 .3.1.6.1c-.03-.03 0 .2 0 .2h-2.6v-.2s.08-.03.1 0c.2 0 .4-.1.5-.2c.1-.2.2-.4.2-.8v-2c0-.6-.1-1-.1-1.1c0-.2-.1-.3-.1-.3c-.1-.1-.2-.1-.3-.1c-.1 0-.2.1-.3.1c-.04.01-.1-.2-.1-.2l1.6-.6h.2s.01 1.07 0 1.1zm8.1 3.7c-.3.3-.5.4-.8.6c-.2.1-.5.1-.8.1c-.5 0-1-.2-1.5-.7c-.4-.5-.6-1.1-.6-1.8c0-.8.2-1.5.7-2.1c.5-.6 1.1-.9 1.8-.9c.5 0 .9.1 1.2.4v-1c0-.6 0-.9-.1-1.1c0-.1 0-.2-.1-.3h-.2c-.1 0-.3 0-.4.1c-.03-.05-.1-.3-.1-.3l1.6-.6h.2s.02 6.09 0 6.1c0 .6 0 1 .1 1.1c0 .2 0 .2.1.3c.1.1.1.1.2.1c.1 0 .3 0 .4-.1c.04-.01.1.2.1.2l-1.6.6h-.2s-.02-.72 0-.7zm-1 .1c.3 0 .7-.2 1-.5v-2.7c0-.3-.1-.5-.2-.7c-.1-.3-.3-.4-.5-.5c-.2-.1-.4-.2-.5-.2c-.4 0-.7.2-.9.5c-.4.4-.6.9-.6 1.7c0 .8.2 1.4.5 1.8c.4.4.8.6 1.2.6zm9.1-.3c-.6.4-.9.7-1.1.7c-.2.1-.4.2-.6.2c-.4 0-.7-.1-.9-.4c-.2-.2-.4-.6-.4-1c0-.2.1-.5.2-.6c.2-.3.4-.5.8-.8c.4-.2 1.1-.5 2-.8v-.2c0-.5-.1-.9-.3-1.1c-.2-.2-.4-.3-.7-.3c-.3 0-.4.1-.6.2c-.1.1-.2.3-.2.5v.3c0 .2 0 .3-.1.4c-.1.1-.2.1-.4.1c-.1 0-.2 0-.3-.1c-.1-.1-.2-.2-.2-.4c0-.4.2-.7.5-.9c.4-.3.9-.4 1.5-.4c.4 0 .8 0 1.1.2c.2.1.4.3.5.6c.1.1.1.5.1 1v2.7c.1.1.1.2.1.2c.1 0 .1.1.2.1l.1-.1c.1 0 .3-.2.5-.4v.3c-.4.6-.8.9-1.2.9c-.2 0-.4-.1-.5-.2c-.1-.1-.1-.4-.1-.7zm-1.2.2c.3 0 .7-.2 1.2-.6v-2c-.6.3-1 .4-1.2.5c-.3.2-.5.4-.6.6c-.1.1-.2.3-.2.6c0 .2.1.5.2.6c.2.2.4.3.6.3zm3.1-4.7h2.2s.02.23 0 .2c-.2 0-.3.1-.4.1c0 .1-.1.2-.1.3c0 .1.1.2.1.4c.02.01 1.1 3 1.1 3l1.2-2.4s-.32-.8-.3-.8c-.1-.2-.2-.4-.4-.5c-.1 0-.2-.1-.5-.1c.05.03 0-.2 0-.2h2.6s-.05.23 0 .2c-.3 0-.5.1-.6.2c-.1 0-.1.1-.1.3v.2l1.2 3l1.1-2.9c.1-.2.1-.4.1-.5c0-.1 0-.1-.1-.2c-.1 0-.2-.1-.4-.1c-.04.03 0-.2 0-.2h1.6s.02.23 0 .2c-.3.1-.6.3-.7.7l-1.8 4.5h-.2l-1.3-3.3l-1.6 3.3h-.2s-1.66-4.39-1.7-4.4c-.1-.3-.2-.5-.3-.6c-.1-.1-.3-.1-.5-.2v-.2zm9.7 2c0 .8.2 1.4.6 1.8c.3.5.8.7 1.3.7c.3 0 .6-.1.9-.3c.3-.2.5-.5.6-1l.2.2c-.1.5-.3 1-.7 1.4c-.4.4-.9.6-1.4.6c-.7 0-1.2-.2-1.7-.7c-.4-.5-.6-1.2-.6-2c0-.9.2-1.6.7-2.1c.4-.5 1-.7 1.7-.7c.6 0 1.1.1 1.5.5c.3.4.5.9.5 1.6H382zm0-.3h2.4c0-.4 0-.6-.1-.8c-.1-.2-.2-.3-.4-.5c-.2-.1-.4-.1-.6-.1c-.3 0-.6.1-.9.3c-.2.3-.4.6-.4 1.1zm4.4.5h3v.9h-3v-.9zm5.2-5.1c.1 0 .3.1.4.2c.1.1.2.2.2.4c0 .1-.1.3-.2.4c-.1.1-.3.2-.4.2c-.2 0-.3-.1-.4-.2c-.1-.1-.2-.3-.2-.4c0-.2 0-.3.2-.4c.1-.1.2-.2.4-.2zm.5 2.8s-.04 4.19 0 4.2v.6c.1.2.1.2.2.3c.1 0 .3.1.6.1c-.05-.03 0 .2 0 .2h-2.6v-.2c.3 0 .4-.1.5-.1c.1-.1.2-.1.2-.3c.1-.1.1-.3.1-.6v-3.2c-.1-.1-.1-.2-.2-.2c0-.1-.1-.1-.2-.1c-.1 0-.2.1-.4.1l-.1-.2l1.6-.6h.3zM395 18c.7-.8 1.2-1.1 1.8-1.1c.3 0 .5 0 .7.2c.3.1.4.4.5.7c.1.2.2.6.2 1v3c.1.1.2.1.3.2c0 0 .2.1.5.1c-.03-.03 0 .2 0 .2h-2.6v-.2s.08-.03.1 0c.2 0 .4-.1.5-.1c.1-.1.2-.2.2-.4v-2.7c0-.4 0-.8-.2-1c-.1-.2-.3-.3-.6-.3c-.5 0-.9.2-1.4.7v2.8c0 .3.1.6.1.6c.1.2.1.2.2.3c.1 0 .3.1.6.1v.2h-2.6v-.2s.11-.03.1 0c.3 0 .5-.1.6-.2c0-.2.1-.4.1-.8V18c-.1-.2-.1-.3-.2-.3c0-.1-.1-.1-.2-.1c-.1 0-.3.1-.4.1l-.1-.2l1.6-.6h.2s.04 1.07 0 1.1zm7.8-1.1v1.8s-.2-.05-.2 0c-.1-.6-.3-1-.6-1.2c-.2-.2-.5-.3-.8-.3c-.3 0-.5.1-.7.2c-.1.2-.2.3-.2.5c0 .2 0 .4.2.5c.1.2.3.4.7.5l.8.4c.8.4 1.2.9 1.2 1.5c0 .5-.2.9-.6 1.2c-.3.3-.7.4-1.2.4c-.3 0-.7 0-1.1-.1c-.1-.1-.2-.1-.3-.1c-.1 0-.1.1-.2.2c.01-.04-.2 0-.2 0v-1.9s.21-.02.2 0c.1.5.3.9.6 1.2c.3.3.7.4 1 .4c.3 0 .5-.1.7-.2c.2-.2.2-.4.2-.6c0-.3-.1-.5-.2-.7c-.2-.1-.6-.4-1.2-.6c-.5-.3-.9-.6-1-.8c-.2-.2-.3-.5-.3-.8c0-.5.1-.8.4-1.1c.3-.3.7-.4 1.2-.4c.2 0 .5 0 .7.1c.2 0 .4.1.4.1c.1 0 .1 0 .2-.1l.1-.1c0-.04.2 0 .2 0zm.8.6l1.6-.6h.2s.03 1.21 0 1.2c.3-.5.6-.8.8-1c.3-.1.6-.2.9-.2c.5 0 1 .2 1.3.6c.5.5.7 1.1.7 2c0 .9-.3 1.6-.8 2.2c-.4.5-1 .7-1.6.7c-.3 0-.5 0-.8-.1c-.1 0-.3-.2-.5-.3v1.6c0 .3.1.6.1.7c0 .1.1.1.2.2c.1 0 .3.1.6.1c.02-.02 0 .2 0 .2h-2.7v-.2s.11-.02.1 0c.2 0 .4-.1.5-.1l.2-.2c.1-.1.1-.4.1-.8v-4.9c0-.4 0-.6-.1-.7c0-.1-.1-.1-.1-.2c-.1 0-.2-.1-.3-.1c-.1 0-.2.1-.3.1c-.04.02-.1-.2-.1-.2zm2.5.3c-.1.1-.4.3-.7.6v2c0 .4 0 .7.1.9c0 .2.2.4.4.5c.2.2.4.3.8.3c.3 0 .7-.2.9-.5c.3-.3.5-.9.5-1.6c0-.8-.2-1.4-.6-1.9c-.2-.3-.5-.4-.8-.4c-.2 0-.4 0-.6.1zm5.1-3.7c.2 0 .3.1.4.2c.1.1.2.2.2.4c0 .1-.1.3-.2.4c-.1.1-.2.2-.4.2c-.2 0-.3-.1-.4-.2c-.1-.1-.2-.3-.2-.4c0-.2.1-.3.2-.4c.1-.1.2-.2.4-.2zm.5 2.8s-.03 4.19 0 4.2v.6c.1.2.2.2.3.3c0 0 .2.1.5.1c-.03-.03 0 .2 0 .2h-2.6v-.2c.3 0 .4-.1.5-.1c.1-.1.2-.1.2-.3c.1-.1.1-.3.1-.6v-3.2c-.1-.1-.1-.2-.2-.2c0-.1-.1-.1-.2-.1c-.1 0-.2.1-.4.1l-.1-.2l1.6-.6h.3zm3 0s-.04 1.14 0 1.1c.4-.7.9-1.1 1.3-1.1c.2 0 .4 0 .5.2c.2.1.2.2.2.4c0 .1 0 .3-.1.4c-.1.1-.2.1-.4.1c-.1 0-.2 0-.4-.2c-.2-.1-.3-.2-.4-.2c-.1 0-.1.1-.2.1c-.2.2-.4.5-.5.8v2.5c0 .3 0 .6.1.7c0 .1.1.2.2.3c.2 0 .3.1.6.1c-.02-.03 0 .2 0 .2h-2.7s-.02-.23 0-.2c.3 0 .5-.1.6-.2c.1 0 .1-.1.2-.3V18c-.1-.2-.1-.2-.2-.3c0-.1-.1-.1-.2-.1c-.1 0-.3.1-.4.1c-.02.01-.1-.2-.1-.2l1.6-.6h.3zm3.7-2.8c.1 0 .3.1.4.2c.1.1.2.2.2.4c0 .1-.1.3-.2.4c-.1.1-.3.2-.4.2c-.2 0-.3-.1-.4-.2c-.2-.1-.2-.3-.2-.4c0-.2 0-.3.2-.4c.1-.1.2-.2.4-.2zm.5 2.8s-.05 4.19 0 4.2v.6c.1.2.1.2.2.3c.1 0 .3.1.6.1c-.05-.03 0 .2 0 .2h-2.6v-.2c.3 0 .4-.1.5-.1c.1-.1.2-.1.2-.3c.1-.1.1-.3.1-.6v-2c0-.6 0-1-.1-1.2c0-.1 0-.2-.1-.2c0-.1-.1-.1-.2-.1c-.1 0-.3.1-.4.1l-.1-.2l1.6-.6h.3zm2.9 1.1c.7-.8 1.2-1.1 1.8-1.1c.3 0 .5 0 .7.2c.3.1.4.4.5.7c.1.2.2.6.2 1v3c.1.1.2.1.2.2c.1 0 .3.1.6.1c-.03-.03 0 .2 0 .2h-2.6v-.2s.08-.03.1 0c.2 0 .4-.1.5-.1c.1-.1.2-.2.2-.4v-2.7c0-.4 0-.8-.2-1c-.1-.2-.3-.3-.6-.3c-.5 0-.9.2-1.4.7v2.8c0 .3.1.6.1.6c.1.2.1.2.2.3c.1 0 .3.1.6.1v.2h-2.6v-.2s.11-.03.1 0c.3 0 .5-.1.6-.2c0-.2.1-.4.1-.8v-2c0-.6 0-1-.1-1.1c0-.2 0-.3-.1-.3c0-.1-.1-.1-.2-.1c-.1 0-.3.1-.4.1c-.01.01-.1-.2-.1-.2l1.6-.6h.2s.04 1.07 0 1.1zm5.8 2.4c-.3-.2-.6-.4-.7-.7c-.2-.3-.3-.6-.3-.9c0-.6.2-1 .6-1.4c.4-.4.9-.5 1.5-.5c.5 0 .9.1 1.3.3h1.4s0 .1.1.1v.4h-1.1c.2.3.4.7.4 1.1c0 .5-.2.9-.6 1.3c-.4.3-.9.5-1.5.5c-.3 0-.6-.1-.8-.1c-.2.1-.3.2-.4.3c0 .2-.1.2-.1.3c0 .1.1.2.1.2c.1.1.2.1.4.1c.1.1.4.1.8.1c.8 0 1.3 0 1.6.1c.3 0 .6.2.8.4c.2.2.3.4.3.8c0 .4-.2.8-.6 1.2c-.6.5-1.4.8-2.3.8c-.8 0-1.4-.2-1.9-.5c-.3-.2-.4-.4-.4-.6v-.3c.1-.1.2-.3.4-.6c.1 0 .3-.2.6-.6c-.2-.1-.3-.2-.4-.3c-.1-.1-.1-.2-.1-.3c0-.1 0-.3.1-.5c.2-.2.4-.4.8-.7zm1.7-2.9c-.1-.2-.4-.4-.7-.4c-.3 0-.5.1-.7.4c-.2.2-.3.5-.3 1c0 .6.1 1.1.4 1.4c.2.3.4.4.7.4c.3 0 .6-.1.8-.3c.2-.2.2-.6.2-1.1c0-.6-.1-1-.4-1.4zm.2 4.9c-.8 0-1.5-.1-2-.1c-.1.2-.3.4-.4.5c-.1.2-.1.3-.1.5c0 .2.1.3.3.5c.4.2 1 .3 1.7.3c.7 0 1.2-.1 1.5-.3c.3-.3.5-.5.5-.8c0-.2-.1-.4-.3-.4c-.2-.1-.6-.2-1.2-.2zm3.7-1.2c.2 0 .3 0 .4.1c.2.2.2.3.2.5c0 .2-.1.3-.2.4c-.1.2-.2.2-.4.2c-.2 0-.4 0-.5-.2c-.1-.1-.2-.2-.2-.4c0-.2.1-.3.2-.5c.1-.1.3-.1.5-.1zm11-6.7l.1 1.8h-.3c0-.3-.1-.5-.1-.7c-.1-.2-.3-.4-.5-.5c-.2-.1-.5-.1-.8-.1c.02-.03-1.1 0-1.1 0c0 0 .03 5.92 0 5.9c0 .5.1.8.2.9c.1.2.4.3.7.3c-.05-.04.2 0 .2 0v.2h-3.3v-.2s.3-.04.3 0c.3 0 .6-.1.7-.3c.1-.2.1-.4.1-.9c.02.02 0-5.9 0-5.9c0 0-.91-.03-.9 0c-.4 0-.6 0-.8.1c-.2 0-.4.2-.5.4c-.1.2-.2.5-.3.8h-.2l.1-1.8h6.4zm2.3-.4s-.03 3.85 0 3.9c.4-.5.7-.8 1-.9c.2-.2.5-.2.7-.2c.3 0 .6 0 .8.2c.2.2.4.4.5.8c0 .2.1.7.1 1.3v1.9c0 .3 0 .5.1.7c0 .1.1.1.2.2c.1 0 .2.1.5.1c-.03-.03 0 .2 0 .2h-2.6v-.2s.1-.03.1 0c.2 0 .4-.1.5-.1c.1-.1.2-.2.2-.4v-2.4c0-.5 0-.9-.1-1.1c0-.2-.1-.3-.2-.4c-.2-.1-.3-.1-.5-.1c-.2 0-.4 0-.6.1c-.2.1-.4.3-.7.6v3.5c.1 0 .1.1.3.2c.1 0 .3.1.5.1c.02-.03 0 .2 0 .2h-2.6s.02-.23 0-.2c.2 0 .4-.1.6-.1c0-.1.1-.2.2-.3v-6.5c-.1-.1-.1-.2-.2-.3h-.2c-.1 0-.2 0-.4.1c.02-.05-.1-.3-.1-.3l1.6-.6h.3zm5.6 0c.2 0 .3.1.5.2c.1.1.1.2.1.4c0 .1 0 .3-.1.4c-.2.1-.3.2-.5.2c-.1 0-.3-.1-.4-.2c-.1-.1-.1-.3-.1-.4c0-.2 0-.3.1-.4c.1-.1.3-.2.4-.2zm.5 2.8s.03 4.19 0 4.2c0 .3 0 .5.1.6c0 .2.1.2.2.3c.1 0 .3.1.5.1c.02-.03 0 .2 0 .2h-2.5s-.03-.23 0-.2c.2 0 .4-.1.5-.1c.1-.1.1-.1.2-.3c0-.1.1-.3.1-.6v-2c0-.6 0-1-.1-1.2c0-.1 0-.2-.1-.2c-.1-.1-.1-.1-.2-.1c-.1 0-.3.1-.4.1c-.03.01-.1-.2-.1-.2l1.6-.6h.2zm4.9 0v1.8s-.21-.05-.2 0c-.2-.6-.3-1-.6-1.2c-.2-.2-.5-.3-.8-.3c-.3 0-.5.1-.7.2c-.2.2-.2.3-.2.5c0 .2 0 .4.1.5c.2.2.4.4.8.5l.8.4c.8.4 1.2.9 1.2 1.5c0 .5-.2.9-.6 1.2c-.3.3-.7.4-1.2.4c-.3 0-.7 0-1.1-.1c-.1-.1-.2-.1-.3-.1c-.1 0-.2.1-.2.2c0-.04-.2 0-.2 0v-1.9s.2-.02.2 0c.1.5.3.9.6 1.2c.3.3.7.4 1 .4c.3 0 .5-.1.7-.2c.1-.2.2-.4.2-.6c0-.3-.1-.5-.3-.7c-.1-.1-.5-.4-1.1-.6c-.5-.3-.9-.6-1.1-.8c-.1-.2-.2-.5-.2-.8c0-.5.1-.8.4-1.1c.3-.3.7-.4 1.2-.4c.2 0 .4 0 .7.1c.2 0 .4.1.4.1c.1 0 .1 0 .2-.1s0-.1.1-.1c-.01-.04.2 0 .2 0z" stroke="none" fill="#000"/></g><g id="Polygon120190"><path d="m6.8.4l.1 1.8h-.2c-.1-.3-.1-.6-.2-.7c-.1-.2-.3-.4-.5-.5c-.2-.1-.4-.1-.7-.1c-.05-.04-1.1 0-1.1 0c0 0-.05 5.91 0 5.9c0 .5 0 .8.1.9c.2.2.4.2.7.2c-.02.04.3 0 .3 0v.3H1.9v-.3s.32.04.3 0c.4 0 .6-.1.7-.3c.1-.1.2-.4.2-.8c-.05.01 0-5.9 0-5.9c0 0-.99-.04-1 0h-.8c-.2.1-.3.2-.5.5c-.1.2-.2.4-.2.8h-.2V.4h6.4zM9.1 0v3.8c.4-.4.8-.7 1-.9c.3-.1.5-.2.8-.2c.3 0 .5.1.7.3c.2.2.4.4.5.8c.1.2.1.7.1 1.3v1.9c0 .3 0 .5.1.7l.2.2c.1 0 .2.1.5.1v.2h-2.6v-.2s.13-.05.1 0c.3 0 .4-.1.5-.2c.1 0 .2-.1.2-.3c.1-.1.1-.2.1-.5V5.1c0-.6-.1-.9-.1-1.1c-.1-.2-.2-.3-.3-.4c-.1-.1-.3-.2-.5-.2c-.2 0-.4.1-.6.2c-.2.1-.4.3-.7.6v2.8c0 .3 0 .6.1.6c0 .1.1.2.2.3c.1 0 .3.1.5.1c.05-.05 0 .2 0 .2H7.3s.04-.25 0-.2c.3 0 .5-.1.6-.2c.1 0 .1-.1.2-.2V1.1C8.1 1 8 .9 8 .8c-.1 0-.2-.1-.3-.1c0 0-.2.1-.4.1c.04.03 0-.2 0-.2L8.8 0h.3zm5.2 4.9c0 .8.2 1.4.6 1.8c.4.5.8.7 1.3.7c.4 0 .7-.1.9-.3c.3-.2.5-.5.7-1l.2.1c-.1.6-.4 1-.7 1.5c-.4.4-.9.6-1.5.6c-.6 0-1.2-.2-1.6-.7c-.5-.5-.7-1.2-.7-2c0-.9.2-1.6.7-2.1c.5-.5 1-.8 1.7-.8c.6 0 1.1.2 1.5.6c.4.4.6.9.6 1.6h-3.7zm0-.4h2.5c-.1-.3-.1-.5-.2-.7c-.1-.2-.2-.4-.4-.5c-.2-.1-.4-.2-.6-.2c-.3 0-.6.2-.8.4c-.3.3-.4.6-.5 1zM28.7.4v2.1s-.25-.02-.3 0c-.1-.5-.2-.9-.4-1.1c-.1-.2-.3-.4-.6-.5c-.1 0-.4-.1-.7-.1c-.04.02-.6 0-.6 0c0 0-.02 6.02 0 6v.8c.1.1.2.2.3.2c.1.1.3.1.5.1c.03.04.3 0 .3 0v.3h-4.1v-.3s.27.04.3 0c.2 0 .4 0 .5-.1c.1 0 .2-.1.2-.3c.1 0 .1-.3.1-.7v-6s-.55.02-.5 0c-.6 0-1 .1-1.2.3c-.3.4-.5.8-.6 1.4c-.02-.02-.2 0-.2 0V.4h7zm5.2 7.9l-1.4-3.9L31 8.3h-.3s-1.41-3.88-1.4-3.9c-.2-.6-.4-1-.6-1.1c-.1-.2-.2-.2-.4-.3v-.2h2.7v.2c-.2 0-.3 0-.4.1c0 0-.1.1-.1.2c0 0 .1.2.2.5l.8 2.1l.8-2.1l-.1-.1c-.1-.3-.2-.5-.3-.5c-.1-.1-.2-.2-.4-.2v-.2h2.8s-.05.2 0 .2c-.3 0-.4 0-.5.1v.2c0 .1 0 .3.1.5c.03.05.8 2.1.8 2.1c0 0 .67-1.88.7-1.9c.1-.3.1-.4.1-.5c0-.2 0-.3-.1-.4c-.1 0-.2-.1-.4-.1v-.2h1.6s-.02.2 0 .2c-.2 0-.3.1-.4.2c-.1.1-.3.4-.4.8c-.04.05-1.5 4.3-1.5 4.3h-.4zM38.4.2c.2 0 .4.1.6.2c.2.2.3.4.3.7c0 .2-.1.4-.3.6c-.2.2-.4.3-.6.3c-.3 0-.5-.1-.6-.3c-.2-.2-.3-.4-.3-.6c0-.3.1-.5.3-.7c.1-.1.3-.2.6-.2zm.8 2.6v4.2c0 .4 0 .7.1.8c.1.1.3.1.5.2c.04-.05 0 .2 0 .2h-2.9s.04-.25 0-.2c.3-.1.5-.1.6-.3c0 0 .1-.3.1-.7V3.9c0-.4-.1-.6-.1-.7c-.1-.1-.3-.2-.6-.2c.04 0 0-.2 0-.2h2.3zm4.6-.2v1.9s-.15-.03-.1 0c-.3-.6-.5-.9-.8-1.1c-.2-.2-.5-.3-.7-.3c-.2 0-.3 0-.4.1c-.1.1-.2.2-.2.4c0 .1 0 .2.1.3c.1.1.5.4 1.1.8c.5.4.9.7 1.1 1c.1.2.2.5.2.8c0 .3 0 .6-.2.9c-.1.3-.4.5-.6.7c-.3.1-.6.2-.9.2c-.3 0-.6-.1-1.1-.2c-.1-.1-.2-.1-.2-.1c-.1 0-.2.1-.3.3h-.2l-.1-1.9s.21-.03.2 0c.2.5.4.9.7 1.1c.3.3.6.4.9.4c.2 0 .3-.1.4-.2c.1-.1.2-.2.2-.4c0-.2-.1-.3-.2-.5c-.1-.1-.3-.3-.7-.6c-.6-.4-1-.7-1.2-.9c-.2-.3-.4-.7-.4-1c0-.5.2-.8.5-1.2c.2-.3.7-.5 1.2-.5c.3 0 .6.1.8.2c.1.1.2.1.3.1h.2s.1-.1.2-.3c-.03.04.2 0 .2 0zM47.1.8v2h1.3v.6h-1.3s-.02 3.27 0 3.3v.6c0 .1.1.1.2.2c0 0 .1.1.2.1c.2 0 .5-.2.7-.6l.2.1c-.4.8-.9 1.1-1.6 1.1c-.3 0-.6-.1-.8-.3c-.3-.1-.4-.4-.5-.6v-1c-.03-.04 0-2.9 0-2.9h-.7s-.03-.25 0-.2c.4-.4.9-.7 1.2-1.1c.3-.4.6-.8.9-1.3c-.01.02.2 0 .2 0zm6.3 4.5h-2.9c0 .7.2 1.3.5 1.7c.3.3.6.4 1 .4c.2 0 .4 0 .6-.1c.2-.2.4-.4.6-.7l.2.1c-.3.6-.6 1-1 1.2c-.3.3-.7.4-1.2.4c-.8 0-1.4-.3-1.8-.9c-.3-.5-.5-1.1-.5-1.8c0-.9.3-1.6.7-2.2c.5-.5 1.1-.8 1.7-.8c.6 0 1.1.2 1.5.7c.4.4.6 1.1.6 2zM52 4.9c0-.6 0-1-.1-1.3c-.1-.2-.2-.4-.3-.5c-.1-.1-.2-.1-.3-.1c-.2 0-.4.1-.5.3c-.3.3-.4.8-.4 1.4c.04-.01 0 .2 0 .2h1.6zm4.3-2.1v1.2c.4-.6.7-.9.9-1.1c.3-.2.6-.3.8-.3c.2 0 .4.1.5.2c.2.2.2.3.2.6c0 .2 0 .4-.2.6c-.1.1-.2.2-.4.2c-.2 0-.4-.1-.5-.2c-.2-.1-.3-.2-.3-.2l-.1-.1c-.1 0-.2.1-.3.2c-.2.1-.3.3-.4.5c-.1.4-.2.8-.2 1.3v1.2s.02.32 0 .3c0 .2 0 .4.1.4c0 .1.1.2.2.3c.1 0 .2 0 .4.1c.02-.05 0 .2 0 .2h-2.9s.02-.25 0-.2c.3-.1.4-.1.5-.2c.1-.2.1-.4.1-.9V3.3l-.2-.2c-.1 0-.2-.1-.4-.1c.02 0 0-.2 0-.2h2.2zM66.2.3c1.2-.1 2.2.3 3 1c.8.8 1.2 1.8 1.2 2.9c0 1-.3 1.9-.9 2.6c-.8 1-1.8 1.5-3.2 1.5c-1.4 0-2.5-.4-3.3-1.4c-.6-.7-.9-1.6-.9-2.7c0-1.1.4-2.1 1.2-2.9c.8-.7 1.7-1.1 2.9-1zm.1.3c-.8 0-1.3.4-1.7 1.1c-.3.6-.4 1.5-.4 2.6c0 1.3.2 2.3.7 2.9c.3.5.8.7 1.3.7c.4 0 .8-.1 1-.3c.4-.2.6-.6.8-1.2c.2-.5.3-1.2.3-2.1c0-1-.1-1.8-.3-2.3c-.2-.5-.4-.8-.7-1.1c-.3-.2-.7-.3-1-.3zm7.3 7.7s-1.8-4.15-1.8-4.1c-.2-.5-.4-.9-.5-1c-.1-.1-.2-.2-.4-.2v-.2h2.9s-.05.2 0 .2c-.2 0-.3 0-.4.1c-.1.1-.2.2-.2.3c0 .1.1.4.3.8l.9 2s.69-1.73.7-1.7c.2-.5.3-.9.3-1.1c0-.1 0-.2-.1-.3c-.1-.1-.3-.1-.5-.1v-.2h1.8s-.03.2 0 .2c-.2 0-.3.1-.4.2c-.2.1-.3.4-.5.9c-.03 0-1.8 4.2-1.8 4.2h-.3zm6.4-.9c-.6.5-1.2.8-1.7.8c-.3 0-.6-.1-.8-.3c-.2-.2-.3-.4-.3-.7c0-.4.2-.8.5-1.1c.4-.4 1.1-.8 2.3-1.3V3.5l-.3-.3c-.1-.1-.2-.1-.4-.1c-.2 0-.5 0-.6.1c-.1.1-.2.2-.2.3c0 .1.1.1.2.3c.1.1.2.3.2.4c0 .2-.1.4-.2.5c-.1.2-.3.2-.5.2c-.3 0-.5 0-.6-.2c-.2-.1-.3-.3-.3-.5c0-.3.1-.5.3-.8c.3-.2.6-.4 1-.6c.3-.1.7-.2 1.2-.2c.5 0 .9.1 1.2.3c.3.3.5.5.6.8v3.1c0 .3 0 .4.1.5v.2h.2c.1 0 .2-.1.3-.2l.2.1c-.2.3-.4.5-.6.6c-.2.2-.5.2-.7.2c-.3 0-.6 0-.8-.2c-.1-.1-.2-.3-.3-.6zm-.6-.1c.2 0 .4-.1.6-.4V5.1c-.4.3-.8.6-1 .9c-.2.2-.2.4-.2.6c0 .2 0 .4.2.5c.1.1.2.2.4.2zM85.1.4s-.05 6.64 0 6.6c0 .4 0 .7.1.8c.1.1.2.1.5.2v.2h-2.9v-.2c.2-.1.4-.1.5-.3c.1 0 .1-.3.1-.7V1.5c0-.4 0-.6-.1-.7c-.1-.1-.2-.2-.5-.2v-.2h2.3zm5.4-.4c.1 0 .3 0 .4.2c.1.1.2.2.2.4c0 .1-.1.3-.2.4c-.1.1-.3.2-.4.2c-.2 0-.3-.1-.4-.2c-.2-.1-.2-.3-.2-.4c0-.2 0-.3.2-.4c.1-.2.2-.2.4-.2zm.4 2.7s.05 4.27 0 4.3c0 .3.1.5.1.6c.1.1.1.2.2.3c.1 0 .3.1.5.1c.05-.05 0 .2 0 .2h-2.5v-.2c.2 0 .4-.1.5-.1c.1-.1.2-.2.2-.3c.1-.1.1-.3.1-.6V4.9c0-.5 0-.9-.1-1.1c0-.1 0-.2-.1-.2c0-.1-.1-.1-.2-.1c-.1 0-.3 0-.4.1l-.1-.2l1.6-.7h.2zm4.9 0v1.8s-.19.03-.2 0c-.1-.5-.3-.9-.5-1.1c-.3-.2-.6-.3-.9-.3c-.3 0-.5 0-.7.2c-.1.1-.2.3-.2.5c0 .2 0 .4.2.5c.1.2.3.3.7.5l.8.4c.8.4 1.2.9 1.2 1.5c0 .5-.2.9-.5 1.2c-.4.3-.8.4-1.3.4c-.3 0-.6 0-1.1-.2h-.3c-.1 0-.1 0-.2.1c.02.04-.2 0-.2 0V6.4s.22-.04.2 0c.1.5.3.9.6 1.2c.3.2.7.4 1.1.4c.2 0 .4-.1.6-.3c.2-.1.2-.3.2-.5c0-.3 0-.5-.2-.7c-.2-.2-.6-.4-1.1-.7c-.6-.2-1-.5-1.1-.7c-.2-.2-.3-.5-.3-.8c0-.5.2-.8.5-1.1c.2-.3.6-.5 1.1-.5c.2 0 .5.1.8.2c.2 0 .3.1.3.1c.1 0 .2-.1.2-.1c0 0 .1-.1.1-.2c.01.04.2 0 .2 0zm6.7 0c.8 0 1.4.3 1.9.9c.4.6.6 1.2.6 1.8c0 .5-.1 1-.3 1.5c-.2.4-.5.8-.9 1.1c-.4.2-.9.3-1.4.3c-.8 0-1.4-.3-1.9-.9c-.4-.6-.6-1.2-.6-1.8c0-.5.2-1 .4-1.5c.2-.4.6-.8 1-1c.3-.2.8-.4 1.2-.4zm.9 1c-.3-.4-.7-.6-1.1-.6c-.2 0-.4.1-.6.2c-.2.1-.4.3-.5.6c-.1.3-.2.7-.2 1.2c0 .8.2 1.4.5 2c.3.5.7.8 1.2.8c.3 0 .7-.1.9-.4c.2-.4.4-.9.4-1.6c0-1-.2-1.7-.6-2.2zm4.5-.4s-.04 3.47 0 3.5c0 .5 0 .8.1.9c.2.2.4.3.6.3c-.01-.05.5 0 .5 0v.2h-3.2v-.2s.26-.05.3 0c.1 0 .3-.1.4-.2c.1 0 .2-.1.2-.3c.1-.1.1-.4.1-.7V3.3h-1v-.4h1v-.3c0-.6.1-1 .3-1.4c.1-.3.4-.6.7-.9c.4-.2.8-.3 1.2-.3c.4 0 .8.1 1.1.4c.2.2.3.4.3.6c0 .1 0 .2-.1.3c-.1.1-.2.1-.3.1h-.3c-.1-.1-.2-.2-.4-.5c-.1-.2-.2-.3-.4-.4c-.1 0-.2-.1-.3-.1c-.2 0-.4.1-.5.2c-.1 0-.2.2-.3.4v1.5c-.04.02 0 .4 0 .4h1.3v.4h-1.3zm3.3-2.1v1.7h1.3v.4h-1.3s.05 3.41 0 3.4c0 .4.1.6.2.7c.1.1.2.2.4.2c.1 0 .2-.1.3-.1c.2-.1.2-.2.3-.4h.2c-.1.4-.3.7-.5.9c-.3.1-.5.2-.8.2c-.2 0-.3 0-.5-.1c-.2-.1-.3-.2-.4-.4c-.1-.2-.1-.5-.1-.9V3.3h-.8s-.03-.19 0-.2c.2-.1.4-.2.6-.4c.2-.2.4-.5.6-.7l.4-.8c-.03-.03.1 0 .1 0zm2.7 3.7c0 .8.2 1.4.5 1.8c.4.5.9.7 1.4.7c.3 0 .6-.1.9-.3c.2-.2.5-.5.6-1l.2.1c-.1.6-.3 1-.7 1.5c-.4.4-.9.6-1.4.6c-.7 0-1.2-.2-1.7-.7c-.4-.5-.6-1.2-.6-2c0-.9.2-1.6.6-2.1c.5-.5 1.1-.8 1.8-.8c.6 0 1.1.2 1.4.6c.4.4.6.9.6 1.6h-3.6zm0-.4h2.4c0-.3-.1-.5-.1-.7c-.1-.2-.3-.4-.4-.5c-.2-.1-.4-.2-.6-.2c-.4 0-.6.2-.9.4c-.2.3-.4.6-.4 1zm5.8-.6c.7-.8 1.2-1.2 1.8-1.2c.3 0 .5.1.7.3c.3.1.4.3.5.7c.1.2.2.5.2 1v2.9l.3.3s.2.1.5.1c-.03-.05 0 .2 0 .2h-2.6v-.2s.08-.05.1 0c.2 0 .4-.1.5-.2c.1 0 .2-.1.2-.3V4.8c0-.5 0-.8-.2-1c-.1-.2-.3-.4-.6-.4c-.5 0-.9.3-1.4.8v2.8c0 .3.1.5.1.6c.1.1.1.2.2.3c.1 0 .3.1.6.1v.2H118v-.2s.11-.05.1 0c.3 0 .5-.1.6-.3c0-.1.1-.3.1-.7V3.9c-.1-.2-.1-.3-.2-.3c0-.1-.1-.1-.2-.1c-.1 0-.3 0-.4.1l-.1-.2l1.6-.7h.2s.04 1.15 0 1.2zM130 7.4c-.5.4-.9.7-1 .7c-.2.1-.4.2-.7.2c-.3 0-.6-.2-.9-.4c-.2-.3-.3-.6-.3-1c0-.2 0-.5.2-.7c.1-.2.4-.5.8-.7c.4-.2 1-.5 1.9-.8v-.2c0-.6-.1-.9-.2-1.1c-.2-.2-.4-.3-.8-.3c-.2 0-.4.1-.5.2c-.2.1-.3.3-.3.4l.1.4c0 .1-.1.3-.2.4c-.1.1-.2.1-.3.1c-.2 0-.3 0-.4-.1c-.1-.1-.1-.3-.1-.4c0-.4.2-.7.5-.9c.3-.3.8-.5 1.4-.5c.5 0 .9.1 1.2.3c.2.1.4.3.5.5c0 .2.1.5.1 1v2.8c0 .1 0 .1.1.2h.3c.1-.1.2-.2.5-.4v.3c-.5.6-.9.9-1.3.9c-.2 0-.3-.1-.4-.2c-.1-.2-.2-.4-.2-.7zm-1.1.2c.3 0 .6-.2 1.1-.6v-2c-.6.3-.9.4-1.1.5c-.3.2-.5.4-.7.5c-.1.2-.1.4-.1.6c0 .3 0 .5.2.7c.2.2.4.3.6.3zm10.8-1.4c-.2.7-.5 1.2-.9 1.6c-.4.3-.8.5-1.3.5c-.6 0-1.2-.2-1.6-.7c-.4-.5-.7-1.2-.7-2.1c0-.8.3-1.5.8-2c.5-.5 1.1-.8 1.7-.8c.6 0 1 .2 1.3.5c.3.2.5.5.5.8c0 .1 0 .3-.1.4c-.1 0-.2.1-.4.1c-.2 0-.4-.1-.5-.2c-.1-.1-.1-.3-.2-.5c0-.2-.1-.4-.2-.5c-.1-.1-.3-.2-.5-.2c-.4 0-.7.2-1 .5c-.3.3-.4.8-.4 1.4c0 .7.1 1.2.4 1.7c.3.5.7.7 1.3.7c.3 0 .7-.1 1-.4c.2-.1.4-.5.6-.9l.2.1zm1.6-1.3c0 .8.2 1.4.6 1.8c.4.5.8.7 1.3.7c.4 0 .7-.1.9-.3c.3-.2.5-.5.7-1l.1.1c0 .6-.3 1-.7 1.5c-.3.4-.8.6-1.4.6c-.6 0-1.2-.2-1.6-.7c-.5-.5-.7-1.2-.7-2c0-.9.2-1.6.7-2.1c.4-.5 1-.8 1.7-.8c.6 0 1.1.2 1.5.6c.3.4.5.9.5 1.6h-3.6zm0-.4h2.4c0-.3 0-.5-.1-.7c-.1-.2-.2-.4-.4-.5c-.2-.1-.4-.2-.6-.2c-.3 0-.6.2-.9.4c-.2.3-.4.6-.4 1zm5.9-.6c.6-.8 1.2-1.2 1.7-1.2c.3 0 .6.1.8.3c.2.1.3.3.5.7c.1.2.1.5.1 1v2.3c0 .3 0 .5.1.6c0 .1.1.2.2.3c.1 0 .3.1.5.1v.2h-2.6v-.2s.11-.05.1 0c.3 0 .4-.1.5-.2c.1 0 .2-.1.2-.3c0 0 .1-.2.1-.5V4.8c0-.5-.1-.8-.2-1c-.2-.2-.4-.4-.7-.4c-.4 0-.9.3-1.3.8v3.4l.3.3c.1 0 .2.1.5.1c.03-.05 0 .2 0 .2h-2.6v-.2s.14-.05.1 0c.3 0 .5-.1.6-.3c.1-.1.1-.3.1-.7V3.9c0-.2-.1-.3-.1-.3c-.1-.1-.2-.1-.3-.1c-.1 0-.2 0-.4.1c.03-.01-.1-.2-.1-.2l1.6-.7h.3s-.03 1.15 0 1.2zm5.9-2.7v1.7h1.2v.4h-1.2s-.05 3.41 0 3.4c0 .4 0 .6.1.7c.1.1.2.2.4.2c.1 0 .2-.1.3-.1c.2-.1.3-.2.3-.4h.2c-.1.4-.3.7-.5.9c-.3.1-.5.2-.8.2c-.2 0-.3 0-.5-.1c-.2-.1-.3-.2-.4-.4c-.1-.2-.1-.5-.1-.9V3.3h-.8s-.03-.19 0-.2c.2-.1.4-.2.6-.4c.2-.2.4-.5.6-.7l.4-.8c-.03-.03.2 0 .2 0zm2.6 3.7c0 .8.2 1.4.5 1.8c.4.5.9.7 1.4.7c.3 0 .6-.1.9-.3c.2-.2.5-.5.6-1l.2.1c-.1.6-.3 1-.7 1.5c-.4.4-.9.6-1.4.6c-.7 0-1.2-.2-1.7-.7c-.4-.5-.6-1.2-.6-2c0-.9.2-1.6.7-2.1c.4-.5 1-.8 1.7-.8c.6 0 1.1.2 1.4.6c.4.4.6.9.6 1.6h-3.6zm0-.4h2.4c0-.3 0-.5-.1-.7c-.1-.2-.2-.4-.4-.5c-.2-.1-.4-.2-.6-.2c-.3 0-.6.2-.9.4c-.2.3-.4.6-.4 1zm5.9-1.8s-.05 1.22 0 1.2c.4-.8.8-1.2 1.3-1.2c.2 0 .4.1.5.2c.2.2.2.3.2.5c0 .1 0 .3-.1.4c-.1.1-.2.1-.4.1c-.1 0-.3-.1-.4-.2c-.2-.1-.3-.2-.4-.2c-.1 0-.1.1-.2.1c-.2.2-.4.4-.5.8v2.5c0 .3 0 .5.1.7c0 .1.1.2.2.2c.2.1.3.2.6.2c-.03-.05 0 .2 0 .2h-2.7s-.02-.25 0-.2c.2 0 .4-.1.6-.2c.1 0 .1-.1.2-.3V3.8c-.1-.1-.1-.2-.2-.2c0-.1-.1-.1-.2-.1c-.1 0-.3 0-.4.1c-.02-.01-.1-.2-.1-.2l1.6-.7h.3zm2 .7l1.6-.6h.2v1.2c.3-.5.5-.8.8-1c.3-.2.6-.3.9-.3c.5 0 .9.2 1.3.7c.4.5.6 1.1.6 1.9c0 .9-.2 1.7-.7 2.3c-.5.5-1 .7-1.7.7c-.2 0-.5 0-.7-.1c-.1-.1-.3-.2-.5-.3v1.6c0 .3 0 .5.1.6c0 .1.1.2.2.3c.1 0 .3.1.6.1c-.02-.04 0 .2 0 .2h-2.8v-.2s.17-.04.2 0c.2 0 .4-.1.5-.2c.1 0 .1-.1.2-.2V3.8c0-.1-.1-.2-.2-.2c0-.1-.1-.1-.2-.1c-.1 0-.2 0-.4.1c.02 0 0-.2 0-.2zm2.5.3c-.2.1-.4.3-.7.6v2.8c.1.3.2.5.4.6c.2.2.5.3.8.3c.4 0 .7-.2 1-.5c.3-.4.4-.9.4-1.6c0-.8-.2-1.4-.5-1.9c-.3-.3-.5-.4-.9-.4c-.2 0-.3 0-.5.1zm5.1-3.7c.1 0 .2 0 .4.2c.1.1.1.2.1.4c0 .1 0 .3-.1.4c-.2.1-.3.2-.4.2c-.2 0-.3-.1-.5-.2c-.1-.1-.1-.3-.1-.4c0-.2 0-.3.1-.4c.1-.2.3-.2.5-.2zm.4 2.7s.03 4.27 0 4.3c0 .3.1.5.1.6c0 .1.1.2.2.3c.1 0 .3.1.5.1c.03-.05 0 .2 0 .2h-2.5s-.03-.25 0-.2c.2 0 .4-.1.5-.1c.1-.1.1-.2.2-.3c0-.1.1-.3.1-.6V4.9c0-.5 0-.9-.1-1.1c0-.1 0-.2-.1-.2c-.1-.1-.1-.1-.2-.1c-.1 0-.3 0-.4.1c-.03-.01-.1-.2-.1-.2l1.6-.7h.2zm2.4 2.2c0 .8.2 1.4.5 1.8c.4.5.9.7 1.4.7c.3 0 .6-.1.9-.3c.2-.2.5-.5.6-1l.2.1c-.1.6-.3 1-.7 1.5c-.4.4-.9.6-1.5.6c-.6 0-1.1-.2-1.6-.7c-.4-.5-.6-1.2-.6-2c0-.9.2-1.6.6-2.1c.5-.5 1.1-.8 1.8-.8c.6 0 1.1.2 1.4.6c.4.4.6.9.6 1.6H174zm0-.4h2.4c0-.3-.1-.5-.1-.7c-.1-.2-.3-.4-.4-.5c-.2-.1-.4-.2-.6-.2c-.4 0-.6.2-.9.4c-.2.3-.4.6-.4 1zm8.8 1.7c-.2.7-.4 1.2-.9 1.6c-.4.3-.8.5-1.3.5c-.6 0-1.2-.2-1.6-.7c-.4-.5-.7-1.2-.7-2.1c0-.8.3-1.5.8-2c.5-.5 1.1-.8 1.7-.8c.6 0 1 .2 1.3.5c.4.2.5.5.5.8c0 .1 0 .3-.1.4c-.1 0-.2.1-.4.1c-.2 0-.4-.1-.5-.2c-.1-.1-.1-.3-.2-.5c0-.2-.1-.4-.2-.5c-.1-.1-.3-.2-.5-.2c-.4 0-.7.2-1 .5c-.3.3-.4.8-.4 1.4c0 .7.1 1.2.4 1.7c.3.5.8.7 1.3.7c.4 0 .7-.1 1-.4c.2-.1.4-.5.6-.9l.2.1zm1.6-1.3c0 .8.2 1.4.6 1.8c.4.5.8.7 1.3.7c.4 0 .7-.1.9-.3c.3-.2.5-.5.7-1l.1.1c0 .6-.3 1-.7 1.5c-.3.4-.8.6-1.4.6c-.6 0-1.2-.2-1.6-.7c-.5-.5-.7-1.2-.7-2c0-.9.2-1.6.7-2.1c.4-.5 1-.8 1.7-.8c.6 0 1.1.2 1.5.6c.4.4.5.9.5 1.6h-3.6zm0-.4h2.4c0-.3 0-.5-.1-.7c-.1-.2-.2-.4-.4-.5c-.2-.1-.4-.2-.6-.2c-.3 0-.6.2-.9.4c-.2.3-.3.6-.4 1zm8.7-.7c.5-.7 1.1-1.1 1.7-1.1c.5 0 1 .3 1.4.7c.4.5.6 1.1.6 1.9c0 1-.3 1.7-.9 2.3c-.6.5-1.2.7-1.8.7c-.3 0-.6 0-1-.1c-.3-.2-.6-.3-.9-.5V2.2c0-.6 0-1-.1-1.1c0-.1 0-.2-.1-.3c-.1 0-.1-.1-.2-.1c-.1 0-.3.1-.4.1c-.03.03-.1-.2-.1-.2l1.6-.6h.2s.03 3.8 0 3.8zm.6-.1c-.1.1-.3.2-.6.5v3.1c.2.2.4.4.6.5c.2 0 .5.1.7.1c.3 0 .6-.2.9-.6c.4-.4.5-.9.5-1.6c0-.7-.1-1.2-.5-1.6c-.3-.4-.6-.5-1-.5c-.2 0-.4 0-.6.1zm4.8 1.2c0 .8.1 1.4.5 1.8c.4.5.9.7 1.4.7c.3 0 .6-.1.9-.3c.2-.2.4-.5.6-1l.2.1c-.1.6-.3 1-.7 1.5c-.4.4-.9.6-1.5.6c-.6 0-1.1-.2-1.6-.7c-.4-.5-.7-1.2-.7-2c0-.9.3-1.6.7-2.1c.5-.5 1.1-.8 1.8-.8c.6 0 1 .2 1.4.6c.4.4.6.9.6 1.6h-3.6zm0-.4h2.4c0-.3-.1-.5-.1-.7c-.1-.2-.3-.4-.5-.5c-.1-.1-.3-.2-.6-.2c-.3 0-.6.2-.8.4c-.3.3-.4.6-.4 1zm8.8 1.7c-.2.7-.5 1.2-.9 1.6c-.4.3-.8.5-1.3.5c-.6 0-1.2-.2-1.6-.7c-.5-.5-.7-1.2-.7-2.1c0-.8.3-1.5.8-2c.5-.5 1-.8 1.7-.8c.6 0 1 .2 1.3.5c.3.2.5.5.5.8c0 .1 0 .3-.1.4c-.1 0-.3.1-.4.1c-.2 0-.4-.1-.5-.2c-.1-.1-.1-.3-.2-.5c0-.2-.1-.4-.2-.5c-.1-.1-.3-.2-.6-.2c-.3 0-.6.2-.9.5c-.3.3-.4.8-.4 1.4c0 .7.1 1.2.4 1.7c.3.5.7.7 1.3.7c.3 0 .7-.1 1-.4c.2-.1.4-.5.6-.9l.2.1zm3.7 1.2c-.5.4-.9.7-1 .7c-.2.1-.4.2-.7.2c-.3 0-.6-.2-.9-.4c-.2-.3-.3-.6-.3-1c0-.2 0-.5.1-.7c.2-.2.5-.5.9-.7c.3-.2 1-.5 1.9-.8v-.2c0-.6-.1-.9-.3-1.1c-.1-.2-.4-.3-.7-.3c-.2 0-.4.1-.6.2c-.1.1-.2.3-.2.4v.4c0 .1 0 .3-.1.4c-.1.1-.2.1-.4.1c-.1 0-.2 0-.3-.1c-.1-.1-.1-.3-.1-.4c0-.4.1-.7.5-.9c.3-.3.8-.5 1.4-.5c.5 0 .8.1 1.1.3c.3.1.4.3.5.5c.1.2.1.5.1 1v1.8c0 .5.1.8.1 1c0 .1 0 .1.1.2h.3l.4-.4v.3c-.4.6-.8.9-1.2.9c-.2 0-.3-.1-.4-.2c-.1-.2-.2-.4-.2-.7zm-1.2.2c.3 0 .7-.2 1.2-.6v-2c-.6.3-1 .4-1.1.5c-.3.2-.5.4-.7.5c-.1.2-.2.4-.2.6c0 .3.1.5.3.7c.1.2.3.3.5.3zm8-4.7s.05 3.18 0 3.2c0 .6.1 1 .1 1.1c0 .1.1.2.1.3c.1 0 .2.1.3.1c.1 0 .2-.1.4-.1c-.05-.03 0 .2 0 .2l-1.5.6h-.3V7.2c-.5.5-.8.8-1 .9c-.3.2-.5.2-.8.2c-.3 0-.5-.1-.8-.2c-.2-.2-.3-.4-.4-.7c-.1-.3-.1-.6-.1-1.1V3.9c0-.2-.1-.4-.1-.5c-.1-.1-.1-.2-.2-.2c-.2-.1-.3-.1-.6-.1c-.02.01 0-.2 0-.2h1.8s.02 3.52 0 3.5c0 .5.1.8.3 1c.1.1.4.2.6.2c.2 0 .3 0 .6-.1c.2-.1.4-.3.7-.6v-3c0-.3-.1-.5-.2-.6c-.1-.1-.3-.2-.6-.2c-.04.01 0-.2 0-.2h1.7zm4.7-.2v1.8s-.17.03-.2 0c-.1-.5-.3-.9-.5-1.1c-.3-.2-.5-.3-.9-.3c-.3 0-.5 0-.7.2c-.1.1-.2.3-.2.5c0 .2.1.4.2.5c.1.2.3.3.7.5l.8.4c.8.4 1.2.9 1.2 1.5c0 .5-.2.9-.5 1.2c-.4.3-.8.4-1.2.4c-.4 0-.7 0-1.1-.2h-.4s-.1 0-.2.1c.04.04-.2 0-.2 0V6.4s.24-.04.2 0c.1.5.3.9.7 1.2c.3.2.6.4 1 .4c.2 0 .4-.1.6-.3c.2-.1.3-.3.3-.5c0-.3-.1-.5-.3-.7c-.2-.2-.6-.4-1.1-.7c-.6-.2-.9-.5-1.1-.7c-.2-.2-.3-.5-.3-.8c0-.5.2-.8.5-1.1c.3-.3.7-.5 1.1-.5c.2 0 .5.1.8.2c.2 0 .3.1.4.1l.1-.1s.1-.1.1-.2c.03.04.2 0 .2 0zm2.1 2.2c0 .8.2 1.4.5 1.8c.4.5.9.7 1.4.7c.3 0 .6-.1.9-.3c.3-.2.5-.5.6-1l.2.1c-.1.6-.3 1-.7 1.5c-.4.4-.9.6-1.4.6c-.7 0-1.2-.2-1.7-.7c-.4-.5-.6-1.2-.6-2c0-.9.2-1.6.7-2.1c.4-.5 1-.8 1.7-.8c.6 0 1.1.2 1.4.6c.4.4.6.9.6 1.6h-3.6zm0-.4h2.4c0-.3 0-.5-.1-.7c-.1-.2-.2-.4-.4-.5c-.2-.1-.4-.2-.6-.2c-.3 0-.6.2-.9.4c-.2.3-.4.6-.4 1zm9.8-1.8c.8 0 1.5.3 2 .9c.4.6.6 1.2.6 1.8c0 .5-.1 1-.4 1.5c-.2.4-.5.8-.9 1.1c-.4.2-.8.3-1.3.3c-.8 0-1.5-.3-1.9-.9c-.4-.6-.6-1.2-.6-1.8c0-.5.1-1 .3-1.5c.3-.4.6-.8 1-1c.4-.2.8-.4 1.2-.4zm.9 1c-.3-.4-.6-.6-1-.6c-.2 0-.5.1-.7.2c-.2.1-.3.3-.5.6c-.1.3-.1.7-.1 1.2c0 .8.1 1.4.4 2c.3.5.7.8 1.2.8c.4 0 .7-.1.9-.4c.3-.4.4-.9.4-1.6c0-1-.2-1.7-.6-2.2zm4.5-.4v3.5c0 .5.1.8.2.9c.1.2.3.3.5.3c.03-.05.5 0 .5 0v.2h-3.1v-.2s.2-.05.2 0c.2 0 .3-.1.4-.2c.1 0 .2-.1.3-.3v-.7c.05-.03 0-3.5 0-3.5h-1v-.4h1s.05-.35 0-.3c0-.6.1-1 .3-1.4c.2-.3.4-.6.8-.9c.3-.2.7-.3 1.1-.3c.4 0 .8.1 1.2.4c.2.2.3.4.3.6c0 .1-.1.2-.2.3c-.1.1-.2.1-.3.1h-.3c-.1-.1-.2-.2-.3-.5l-.4-.4c-.1 0-.3-.1-.4-.1c-.2 0-.3.1-.5.2c-.1 0-.2.2-.2.4c-.1.2-.1.7-.1 1.5v.4h1.4v.4h-1.4zm6.1-3.3c.2 0 .3 0 .4.2c.2.1.2.2.2.4c0 .1 0 .3-.2.4c-.1.1-.2.2-.4.2c-.1 0-.3-.1-.4-.2c-.1-.1-.1-.3-.1-.4c0-.2 0-.3.1-.4c.1-.2.3-.2.4-.2zm.5 2.7s.02 4.27 0 4.3c0 .3 0 .5.1.6c0 .1.1.2.2.3c.1 0 .3.1.5.1v.2h-2.5s-.04-.25 0-.2c.2 0 .4-.1.5-.1c.1-.1.1-.2.2-.3c0-.1.1-.3.1-.6V4.9c0-.5-.1-.9-.1-1.1c0-.1-.1-.2-.1-.2c-.1-.1-.2-.1-.3-.1c-.1 0-.2 0-.3.1c-.04-.01-.1-.2-.1-.2l1.6-.7h.2zm3-1.5v1.7h1.2v.4h-1.2v3.4c0 .4 0 .6.1.7c.1.1.3.2.4.2c.1 0 .3-.1.4-.1c.1-.1.2-.2.3-.4h.2c-.1.4-.3.7-.6.9c-.2.1-.5.2-.7.2c-.2 0-.4 0-.6-.1c-.1-.1-.2-.2-.3-.4c-.1-.2-.2-.5-.2-.9c.05.04 0-3.5 0-3.5h-.8s.02-.19 0-.2c.2-.1.4-.2.7-.4c.2-.2.4-.5.6-.7c0-.2.2-.4.3-.8c.02-.03.2 0 .2 0zm5.1 1.5v1.8s-.15.03-.2 0c-.1-.5-.3-.9-.5-1.1c-.2-.2-.5-.3-.9-.3c-.2 0-.5 0-.6.2c-.2.1-.3.3-.3.5c0 .2.1.4.2.5c.1.2.4.3.7.5l.9.4c.7.4 1.1.9 1.1 1.5c0 .5-.1.9-.5 1.2c-.4.3-.8.4-1.2.4c-.3 0-.7 0-1.1-.2h-.3c-.1 0-.2 0-.2.1c-.04.04-.2 0-.2 0V6.4s.16-.04.2 0c.1.5.3.9.6 1.2c.3.2.6.4 1 .4c.3 0 .5-.1.6-.3c.2-.1.3-.3.3-.5c0-.3-.1-.5-.3-.7c-.2-.2-.6-.4-1.1-.7c-.6-.2-.9-.5-1.1-.7c-.2-.2-.3-.5-.3-.8c0-.5.2-.8.5-1.1c.3-.3.7-.5 1.1-.5c.2 0 .5.1.8.2c.2 0 .3.1.4.1l.1-.1c.1 0 .1-.1.1-.2c.05.04.2 0 .2 0zm7.6 0v1.8s-.23.03-.2 0c-.2-.5-.4-.9-.6-1.1c-.2-.2-.5-.3-.9-.3c-.2 0-.4 0-.6.2c-.2.1-.3.3-.3.5c0 .2.1.4.2.5c.1.2.4.3.7.5l.9.4c.8.4 1.2.9 1.2 1.5c0 .5-.2.9-.6 1.2c-.4.3-.8.4-1.2.4c-.3 0-.7 0-1.1-.2h-.3c-.1 0-.2 0-.2.1c-.02.04-.2 0-.2 0V6.4s.18-.04.2 0c.1.5.3.9.6 1.2c.3.2.6.4 1 .4c.3 0 .5-.1.7-.3c.1-.1.2-.3.2-.5c0-.3-.1-.5-.3-.7c-.2-.2-.5-.4-1.1-.7c-.5-.2-.9-.5-1.1-.7c-.2-.2-.2-.5-.2-.8c0-.5.1-.8.4-1.1c.3-.3.7-.5 1.2-.5c.2 0 .4.1.7.2c.2 0 .3.1.4.1c.1 0 .1-.1.1-.1c.1 0 .1-.1.2-.2c-.03.04.2 0 .2 0zm2.7-1.5v1.7h1.2v.4h-1.2s-.04 3.41 0 3.4c0 .4 0 .6.1.7c.1.1.2.2.4.2c.1 0 .2-.1.4-.1c.1-.1.2-.2.2-.4h.3c-.2.4-.4.7-.6.9c-.3.1-.5.2-.8.2c-.1 0-.3 0-.5-.1c-.2-.1-.3-.2-.4-.4c0-.2-.1-.5-.1-.9c.02.04 0-3.5 0-3.5h-.8s-.02-.19 0-.2c.2-.1.4-.2.6-.4c.2-.2.4-.5.6-.7l.4-.8c-.01-.03.2 0 .2 0zm3.2 1.5s.04 1.22 0 1.2c.5-.8.9-1.2 1.4-1.2c.2 0 .4.1.5.2c.2.2.2.3.2.5c0 .1 0 .3-.1.4c-.1.1-.2.1-.4.1c-.1 0-.3-.1-.4-.2c-.2-.1-.3-.2-.4-.2c-.1 0-.1.1-.2.1c-.2.2-.4.4-.6.8v2.5c0 .3.1.5.2.7c0 .1.1.2.2.2c.1.1.3.2.6.2c-.04-.05 0 .2 0 .2h-2.7s-.03-.25 0-.2c.2 0 .4-.1.6-.2c.1 0 .1-.1.2-.3V3.8c-.1-.1-.1-.2-.2-.2c0-.1-.1-.1-.2-.1c-.1 0-.3 0-.4.1c-.03-.01-.1-.2-.1-.2l1.6-.7h.2zm5 0c.8 0 1.4.3 1.9.9c.4.6.6 1.2.6 1.8c0 .5-.1 1-.3 1.5c-.2.4-.5.8-.9 1.1c-.4.2-.9.3-1.4.3c-.8 0-1.4-.3-1.9-.9c-.4-.6-.5-1.2-.5-1.8c0-.5.1-1 .3-1.5c.2-.4.6-.8 1-1c.3-.2.8-.4 1.2-.4zm.9 1c-.3-.4-.7-.6-1.1-.6c-.2 0-.4.1-.6.2c-.2.1-.4.3-.5.6c-.1.3-.2.7-.2 1.2c0 .8.2 1.4.5 2c.3.5.7.8 1.2.8c.4 0 .7-.1.9-.4c.2-.4.4-.9.4-1.6c0-1-.2-1.7-.6-2.2zm3.9.2c.7-.8 1.2-1.2 1.8-1.2c.3 0 .5.1.7.3c.2.1.4.3.5.7c.1.2.2.5.2 1v2.9c.1.1.2.2.2.3c.1 0 .3.1.6.1c-.03-.05 0 .2 0 .2h-2.6v-.2s.07-.05.1 0c.2 0 .4-.1.5-.2c.1 0 .2-.1.2-.3V4.8c0-.5 0-.8-.2-1c-.1-.2-.3-.4-.6-.4c-.5 0-.9.3-1.4.8v2.8c0 .3.1.5.1.6c.1.1.1.2.2.3c.1 0 .3.1.6.1v.2h-2.6v-.2s.11-.05.1 0c.3 0 .5-.1.5-.3c.1-.1.2-.3.2-.7v-2c0-.6 0-1-.1-1.1c0-.2 0-.3-.1-.3c0-.1-.1-.1-.2-.1c-.1 0-.3 0-.4.1l-.1-.2l1.6-.7h.2s.04 1.15 0 1.2zm5.8 2.3c-.3-.1-.6-.3-.7-.6c-.2-.3-.3-.6-.3-1c0-.5.2-.9.6-1.3c.4-.4.9-.6 1.5-.6c.5 0 .9.2 1.3.4h1.4l.1.1v.4h-1.1c.2.3.3.7.3 1.1c0 .5-.1.9-.5 1.2c-.4.4-.9.6-1.5.6c-.3 0-.6-.1-.8-.2l-.4.4c0 .1-.1.2-.1.3c0 .1.1.1.1.2c.1.1.2.1.4.1c.1 0 .4.1.8.1c.8 0 1.3 0 1.5.1c.4 0 .7.1.9.3c.2.3.3.5.3.8c0 .5-.2.9-.6 1.3c-.6.5-1.4.8-2.3.8c-.8 0-1.4-.2-1.9-.5c-.3-.2-.4-.4-.4-.6v-.3c.1-.1.2-.3.4-.6c.1 0 .3-.2.6-.6c-.2-.1-.3-.2-.4-.3c-.1-.1-.1-.2-.1-.3c0-.2 0-.3.1-.5c.1-.2.4-.4.8-.8zm1.7-2.8c-.1-.3-.4-.4-.7-.4c-.3 0-.5.1-.7.4c-.2.2-.3.5-.3 1c0 .6.1 1.1.4 1.4c.2.3.4.4.7.4c.3 0 .6-.1.8-.3c.1-.3.2-.6.2-1.1c0-.6-.1-1.1-.4-1.4zm.2 4.9c-.8 0-1.5-.1-2-.1c-.1.2-.3.3-.4.5c-.1.2-.1.3-.1.5c0 .2.1.3.3.5c.4.2 1 .3 1.7.3c.7 0 1.2-.1 1.5-.4c.3-.2.5-.5.5-.7c0-.2-.1-.4-.3-.5c-.2 0-.6-.1-1.2-.1zm5.1-4.9l1.7-.6h.2s-.03 1.19 0 1.2c.2-.5.5-.8.8-1c.3-.2.5-.3.9-.3c.5 0 .9.2 1.3.7c.4.5.6 1.1.6 1.9c0 .9-.2 1.7-.8 2.3c-.4.5-.9.7-1.6.7c-.3 0-.5 0-.7-.1c-.2-.1-.3-.2-.5-.3v2.2l.3.3c.1 0 .3.1.6.1c-.04-.04 0 .2 0 .2h-2.8v-.2s.15-.04.1 0c.3 0 .4-.1.6-.2c.1 0 .1-.1.2-.2V3.8c-.1-.1-.1-.2-.2-.2c0-.1-.1-.1-.2-.1c-.1 0-.3 0-.4.1l-.1-.2zm2.6.3c-.2.1-.4.3-.7.6v2.8c.1.3.2.5.4.6c.2.2.5.3.8.3c.4 0 .7-.2.9-.5c.3-.4.5-.9.5-1.6c0-.8-.2-1.4-.5-1.9c-.3-.3-.6-.4-.9-.4c-.2 0-.4 0-.5.1zm5.2-1s.03 1.22 0 1.2c.5-.8.9-1.2 1.4-1.2c.2 0 .4.1.5.2c.1.2.2.3.2.5c0 .1 0 .3-.1.4c-.1.1-.3.1-.4.1c-.1 0-.3-.1-.4-.2c-.2-.1-.3-.2-.4-.2c-.1 0-.2.1-.2.1c-.2.2-.4.4-.6.8v2.5c0 .3.1.5.1.7c.1.1.2.2.3.2c.1.1.3.2.6.2c-.05-.05 0 .2 0 .2h-2.7s-.04-.25 0-.2c.2 0 .4-.1.6-.2c0 0 .1-.1.2-.3V4.9c0-.6 0-.9-.1-1.1c0-.1 0-.2-.1-.2c-.1-.1-.1-.1-.2-.1c-.2 0-.3 0-.4.1c-.04-.01-.1-.2-.1-.2l1.6-.7h.2zm3.3 2.2c0 .8.2 1.4.6 1.8c.3.5.8.7 1.3.7c.4 0 .7-.1.9-.3c.3-.2.5-.5.7-1l.1.1c0 .6-.3 1-.7 1.5c-.4.4-.8.6-1.4.6c-.7 0-1.2-.2-1.6-.7c-.5-.5-.7-1.2-.7-2c0-.9.2-1.6.7-2.1c.4-.5 1-.8 1.7-.8c.6 0 1.1.2 1.5.6c.3.4.5.9.5 1.6h-3.6zm0-.4h2.4c0-.3 0-.5-.1-.7c-.1-.2-.2-.4-.4-.5c-.2-.1-.4-.2-.6-.2c-.3 0-.6.2-.9.4c-.2.3-.4.6-.4 1zm7.7-1.8v1.8s-.16.03-.2 0c-.1-.5-.3-.9-.5-1.1c-.2-.2-.5-.3-.9-.3c-.3 0-.5 0-.6.2c-.2.1-.3.3-.3.5c0 .2.1.4.2.5c.1.2.4.3.7.5l.9.4c.7.4 1.1.9 1.1 1.5c0 .5-.2.9-.5 1.2c-.4.3-.8.4-1.2.4c-.4 0-.7 0-1.1-.2h-.3c-.1 0-.2 0-.2.1c-.05.04-.2 0-.2 0V6.4s.15-.04.2 0c.1.5.3.9.6 1.2c.3.2.6.4 1 .4c.2 0 .5-.1.6-.3c.2-.1.3-.3.3-.5c0-.3-.1-.5-.3-.7c-.2-.2-.6-.4-1.1-.7c-.6-.2-.9-.5-1.1-.7c-.2-.2-.3-.5-.3-.8c0-.5.2-.8.5-1.1c.3-.3.7-.5 1.1-.5c.2 0 .5.1.8.2c.2 0 .3.1.4.1l.1-.1c.1 0 .1-.1.1-.2c.04.04.2 0 .2 0zm2.1 2.2c0 .8.2 1.4.6 1.8c.3.5.8.7 1.3.7c.4 0 .7-.1.9-.3c.3-.2.5-.5.7-1l.1.1c0 .6-.3 1-.7 1.5c-.4.4-.8.6-1.4.6c-.7 0-1.2-.2-1.6-.7c-.5-.5-.7-1.2-.7-2c0-.9.2-1.6.7-2.1c.4-.5 1-.8 1.7-.8c.6 0 1.1.2 1.5.6c.3.4.5.9.5 1.6h-3.6zm0-.4h2.4c0-.3 0-.5-.1-.7c-.1-.2-.2-.4-.4-.5c-.2-.1-.4-.2-.6-.2c-.3 0-.6.2-.9.4c-.2.3-.4.6-.4 1zm5.9-.6c.6-.8 1.2-1.2 1.7-1.2c.3 0 .6.1.8.3c.2.1.3.3.5.7c0 .2.1.5.1 1v2.3c0 .3 0 .5.1.6c0 .1.1.2.2.3c.1 0 .2.1.5.1v.2h-2.6v-.2s.1-.05.1 0c.2 0 .4-.1.5-.2c.1 0 .2-.1.2-.3V4.8c0-.5 0-.8-.1-1c-.2-.2-.4-.4-.7-.4c-.4 0-.9.3-1.3.8v3.4c.1.1.2.2.2.3c.1 0 .3.1.6.1c.02-.05 0 .2 0 .2h-2.6v-.2s.13-.05.1 0c.3 0 .5-.1.6-.3c.1-.1.1-.3.1-.7V3.9c-.1-.2-.1-.3-.2-.3c0-.1-.1-.1-.2-.1c-.1 0-.2 0-.4.1c.02-.01-.1-.2-.1-.2l1.6-.7h.3s-.03 1.15 0 1.2zm8.8 2.3c-.2.7-.4 1.2-.8 1.6c-.5.3-.9.5-1.4.5c-.6 0-1.1-.2-1.6-.7c-.4-.5-.7-1.2-.7-2.1c0-.8.3-1.5.8-2c.5-.5 1.1-.8 1.8-.8c.5 0 .9.2 1.2.5c.4.2.5.5.5.8c0 .1 0 .3-.1.4c-.1 0-.2.1-.4.1c-.2 0-.4-.1-.5-.2c-.1-.1-.1-.3-.1-.5c-.1-.2-.1-.4-.3-.5c-.1-.1-.3-.2-.5-.2c-.4 0-.7.2-1 .5c-.3.3-.4.8-.4 1.4c0 .7.1 1.2.4 1.7c.3.5.8.7 1.3.7c.4 0 .7-.1 1-.4c.2-.1.4-.5.6-.9l.2.1zm1.6-1.3c0 .8.2 1.4.6 1.8c.4.5.8.7 1.3.7c.4 0 .7-.1.9-.3c.3-.2.5-.5.7-1l.2.1c-.1.6-.4 1-.7 1.5c-.4.4-.9.6-1.5.6c-.6 0-1.2-.2-1.6-.7c-.5-.5-.7-1.2-.7-2c0-.9.2-1.6.7-2.1c.5-.5 1-.8 1.7-.8c.6 0 1.1.2 1.5.6c.4.4.6.9.6 1.6h-3.7zm0-.4h2.5c-.1-.3-.1-.5-.2-.7c-.1-.2-.2-.4-.4-.5c-.2-.1-.4-.2-.6-.2c-.3 0-.6.2-.8.4c-.3.3-.4.6-.5 1zm10.3 2.9c-.6.4-.9.7-1 .7c-.2.1-.5.2-.7.2c-.4 0-.7-.2-.9-.4c-.2-.3-.3-.6-.3-1c0-.2 0-.5.1-.7c.2-.2.5-.5.8-.7c.4-.2 1.1-.5 2-.8v-.2c0-.6-.1-.9-.3-1.1c-.1-.2-.4-.3-.7-.3c-.2 0-.4.1-.6.2c-.1.1-.2.3-.2.4v.4c0 .1 0 .3-.1.4c-.1.1-.2.1-.4.1c-.1 0-.2 0-.3-.1c-.1-.1-.1-.3-.1-.4c0-.4.1-.7.5-.9c.3-.3.8-.5 1.4-.5c.4 0 .8.1 1.1.3c.3.1.4.3.5.5c.1.2.1.5.1 1v1.8c0 .5 0 .8.1 1c0 .1 0 .1.1.2h.3c0-.1.2-.2.4-.4v.3c-.4.6-.8.9-1.2.9c-.2 0-.3-.1-.4-.2c-.2-.2-.2-.4-.2-.7zm-1.2.2c.3 0 .7-.2 1.2-.6v-2c-.6.3-1 .4-1.1.5c-.3.2-.6.4-.7.5c-.1.2-.2.4-.2.6c0 .3.1.5.3.7c.1.2.3.3.5.3zm5-3.7c.6-.8 1.2-1.2 1.7-1.2c.3 0 .6.1.8.3c.2.1.3.3.5.7c0 .2.1.5.1 1v2.3c0 .3 0 .5.1.6c0 .1.1.2.2.3c.1 0 .2.1.5.1c-.02-.05 0 .2 0 .2h-2.6v-.2s.09-.05.1 0c.2 0 .4-.1.5-.2c.1 0 .2-.1.2-.3V4.8c0-.5 0-.8-.2-1c-.1-.2-.3-.4-.6-.4c-.4 0-.9.3-1.3.8v3.4c.1.1.1.2.2.3c.1 0 .3.1.6.1v.2h-2.6v-.2s.12-.05.1 0c.3 0 .5-.1.6-.3c.1-.1.1-.3.1-.7V3.9c-.1-.2-.1-.3-.2-.3c0-.1-.1-.1-.2-.1c-.1 0-.2 0-.4.1c.01-.01-.1-.2-.1-.2l1.6-.7h.3s-.05 1.15 0 1.2zm8 3.7c-.2.2-.5.4-.7.5c-.3.2-.5.2-.8.2c-.6 0-1.1-.2-1.5-.7c-.5-.5-.7-1.1-.7-1.9c0-.7.3-1.4.7-2c.5-.7 1.1-1 1.9-1c.4 0 .8.2 1.1.5V1.1c-.1-.1-.1-.2-.2-.3c0 0-.1-.1-.2-.1c-.1 0-.2.1-.4.1l-.1-.2l1.6-.6h.3s-.03 6.07 0 6.1v1.1c0 .1.1.2.1.3c.1 0 .2.1.3.1c.1 0 .2-.1.4-.1c-.02-.03 0 .2 0 .2l-1.5.6h-.3s.02-.73 0-.7zm-1 .1c.4 0 .7-.2 1-.5V4.5c0-.3-.1-.5-.2-.8c-.1-.2-.3-.3-.4-.4c-.2-.2-.4-.2-.6-.2c-.3 0-.6.1-.9.4c-.3.4-.5 1-.5 1.8c0 .8.1 1.4.5 1.8c.3.4.7.6 1.1.6zm10.2-4.4h-2.3s-.04 3.44 0 3.4v.9l.3.3c.2 0 .4.1.6.1c.04-.05 0 .2 0 .2h-2.9v-.2s.28-.05.3 0c.2 0 .4-.1.5-.2c.1-.2.2-.5.2-1V3.3h-1v-.4h1c0-.8.1-1.3.3-1.7c.2-.4.4-.7.7-.9c.4-.2.7-.3 1.1-.3c.4 0 .8.1 1.1.4c.03.01.8-.4.8-.4h.3s-.03 6.94 0 6.9v.7c.1.1.1.2.3.3c.1 0 .2 0 .5.1v.2h-2.6v-.2c.2-.1.4-.1.6-.2l.2-.2v-.7c.02.04 0-3.6 0-3.6zm0-.4s.02-1.72 0-1.7c-.1.1-.2.2-.4.2c-.2 0-.3-.2-.6-.5c-.2-.3-.4-.5-.6-.5c-.2 0-.3.1-.4.1c-.1.2-.2.3-.3.5v1.4c-.04-.02 0 .5 0 .5h2.3zm7.1 0s-.02 3.18 0 3.2v1.1c.1.1.1.2.2.3c0 0 .1.1.2.1c.1 0 .2-.1.4-.1l.1.2l-1.6.6h-.3s.03-1.1 0-1.1c-.4.5-.8.8-1 .9c-.2.2-.5.2-.8.2c-.2 0-.5-.1-.7-.2c-.2-.2-.4-.4-.5-.7c-.1-.3-.1-.6-.1-1.1V3.9c0-.2 0-.4-.1-.5c0-.1-.1-.2-.2-.2c-.1-.1-.3-.1-.6-.1v-.2h1.9s-.04 3.52 0 3.5c0 .5 0 .8.2 1c.2.1.4.2.6.2c.2 0 .4 0 .6-.1c.2-.1.4-.3.7-.6v-3c0-.3 0-.5-.1-.6c-.1-.1-.4-.2-.7-.2v-.2h1.8zm2.6-2.9c.2 0 .3 0 .4.2c.1.1.2.2.2.4c0 .1-.1.3-.2.4c-.1.1-.2.2-.4.2c-.2 0-.3-.1-.4-.2c-.1-.1-.2-.3-.2-.4c0-.2.1-.3.2-.4c.1-.2.2-.2.4-.2zm.5 2.7s-.03 4.27 0 4.3v.6l.3.3s.2.1.5.1c-.03-.05 0 .2 0 .2h-2.6v-.2c.3 0 .4-.1.5-.1c.1-.1.2-.2.2-.3c.1-.1.1-.3.1-.6V3.8c-.1-.1-.1-.2-.2-.2c0-.1-.1-.1-.2-.1c-.1 0-.2 0-.4.1c.01-.01-.1-.2-.1-.2l1.6-.7h.3zm5.1 4.9c-.2.2-.5.4-.7.5c-.3.2-.5.2-.8.2c-.6 0-1.1-.2-1.5-.7c-.4-.5-.7-1.1-.7-1.9c0-.7.3-1.4.8-2c.4-.7 1-1 1.8-1c.5 0 .8.2 1.1.5V1.1c0-.1-.1-.2-.1-.3c-.1 0-.2-.1-.3-.1c-.1 0-.2.1-.4.1c.03.03 0-.2 0-.2l1.5-.6h.3s-.02 6.07 0 6.1v1.1c.1.1.1.2.2.3c0 0 .1.1.2.1c.1 0 .2-.1.4-.1c0-.03.1.2.1.2l-1.6.6h-.3s.04-.73 0-.7zm-1 .1c.4 0 .7-.2 1-.5V4.5c0-.3-.1-.5-.2-.8c-.1-.2-.2-.3-.4-.4c-.2-.2-.4-.2-.6-.2c-.3 0-.6.1-.9.4c-.3.4-.5 1-.5 1.8c0 .8.2 1.4.5 1.8c.3.4.7.6 1.1.6zm7.7-3.8l.7-.7c.2-.1.3-.3.5-.3c.2-.1.4-.2.6-.2c.4 0 .6.1.9.3c.2.2.4.5.5.9c.4-.5.7-.8 1-.9c.2-.2.5-.3.8-.3c.3 0 .5.1.7.3c.3.1.4.3.6.7c0 .2.1.5.1 1v2.3c0 .3 0 .5.1.6c0 .1.1.2.2.3c.1 0 .2.1.5.1c-.02-.05 0 .2 0 .2h-2.6v-.2s.09-.05.1 0c.2 0 .4-.1.5-.2c.1 0 .2-.1.2-.3V4.7c0-.4 0-.7-.1-.9c-.2-.2-.4-.4-.7-.4c-.2 0-.5.1-.7.2c-.2.1-.4.3-.7.5v2.9c0 .3 0 .6.1.6c0 .1.1.2.2.3c.1 0 .3.1.6.1c-.04-.05 0 .2 0 .2h-2.7v-.2c.3 0 .5-.1.6-.2c.1 0 .2-.1.2-.3c0 0 .1-.2.1-.5V4.7c0-.4-.1-.7-.2-.9c-.2-.3-.4-.4-.7-.4c-.3 0-.5.1-.7.2c-.3.1-.5.3-.7.5v2.9c0 .3 0 .5.1.6c0 .1.1.2.2.3c.1 0 .3.1.6.1c-.04-.05 0 .2 0 .2h-2.6s-.04-.25 0-.2c.2 0 .4-.1.5-.1c.1-.1.1-.2.2-.3c0-.1.1-.3.1-.6v-2c0-.6-.1-1-.1-1.2c0-.1-.1-.2-.1-.2c-.1-.1-.2-.1-.3-.1c-.1 0-.2 0-.3.1c-.04-.01-.1-.2-.1-.2l1.6-.7h.2v1.2zm10.2-1.2c.8 0 1.4.3 1.9.9c.4.6.6 1.2.6 1.8c0 .5-.1 1-.3 1.5c-.3.4-.6.8-1 1.1c-.4.2-.8.3-1.3.3c-.8 0-1.4-.3-1.9-.9c-.4-.6-.6-1.2-.6-1.8c0-.5.1-1 .4-1.5c.2-.4.5-.8.9-1c.4-.2.8-.4 1.3-.4zm.8 1c-.2-.4-.6-.6-1-.6c-.2 0-.4.1-.6.2c-.2.1-.4.3-.5.6c-.1.3-.2.7-.2 1.2c0 .8.1 1.4.4 2c.4.5.8.8 1.3.8c.3 0 .6-.1.9-.4c.2-.4.3-.9.3-1.6c0-1-.2-1.7-.6-2.2zm4-2.5v1.7h1.2v.4h-1.2s.01 3.41 0 3.4c0 .4.1.6.2.7c0 .1.2.2.3.2c.2 0 .3-.1.4-.1c.1-.1.2-.2.3-.4h.2c-.1.4-.3.7-.6.9c-.2.1-.5.2-.7.2c-.2 0-.4 0-.5-.1c-.2-.1-.3-.2-.4-.4c-.1-.2-.1-.5-.1-.9c-.04.04 0-3.5 0-3.5h-.9s.02-.19 0-.2c.2-.1.5-.2.7-.4c.2-.2.4-.5.6-.7c0-.2.2-.4.3-.8c.03-.03.2 0 .2 0zm3.1-1.2c.1 0 .3 0 .4.2c.1.1.2.2.2.4c0 .1-.1.3-.2.4c-.1.1-.3.2-.4.2c-.2 0-.3-.1-.4-.2c-.1-.1-.2-.3-.2-.4c0-.2.1-.3.2-.4c.1-.2.2-.2.4-.2zm.5 2.7s-.04 4.27 0 4.3v.6c.1.1.2.2.2.3c.1 0 .3.1.6.1c-.04-.05 0 .2 0 .2h-2.6v-.2c.3 0 .4-.1.5-.1c.1-.1.2-.2.2-.3c.1-.1.1-.3.1-.6V3.8c-.1-.1-.1-.2-.2-.2c0-.1-.1-.1-.2-.1c-.1 0-.2 0-.4.1l-.1-.2l1.6-.7h.3zm4 0c.8 0 1.4.3 1.9.9c.4.6.6 1.2.6 1.8c0 .5-.1 1-.3 1.5c-.2.4-.6.8-1 1.1c-.3.2-.8.3-1.3.3c-.8 0-1.4-.3-1.9-.9c-.4-.6-.6-1.2-.6-1.8c0-.5.2-1 .4-1.5c.2-.4.6-.8.9-1c.4-.2.9-.4 1.3-.4zm.8 1c-.2-.4-.6-.6-1-.6c-.2 0-.4.1-.6.2c-.2.1-.4.3-.5.6c-.1.3-.2.7-.2 1.2c0 .8.2 1.4.5 2c.3.5.7.8 1.2.8c.3 0 .6-.1.9-.4c.2-.4.4-.9.4-1.6c0-1-.2-1.7-.7-2.2zm4 .2c.6-.8 1.2-1.2 1.8-1.2c.3 0 .5.1.7.3c.2.1.4.3.5.7c.1.2.2.5.2 1v2.9c.1.1.1.2.2.3c.1 0 .3.1.6.1c-.04-.05 0 .2 0 .2h-2.6v-.2s.07-.05.1 0c.2 0 .4-.1.5-.2c.1 0 .1-.1.2-.3V4.8c0-.5-.1-.8-.2-1c-.1-.2-.3-.4-.6-.4c-.5 0-.9.3-1.4.8v2.8c0 .3.1.5.1.6c0 .1.1.2.2.3c.1 0 .3.1.6.1v.2h-2.6v-.2s.1-.05.1 0c.3 0 .4-.1.5-.3c.1-.1.2-.3.2-.7v-2c0-.6 0-1-.1-1.1c0-.2 0-.3-.1-.3c-.1-.1-.1-.1-.2-.1c-.1 0-.3 0-.4.1c-.02-.01-.1-.2-.1-.2l1.6-.7h.2s.03 1.15 0 1.2zM414 7c.2 0 .3.1.4.2c.2.2.2.3.2.5c0 .2 0 .3-.2.4c-.1.2-.2.2-.4.2c-.2 0-.3 0-.5-.2c-.1-.1-.2-.2-.2-.4c0-.2.1-.4.2-.5c.2-.1.3-.2.5-.2zM429.2.4v.2c-.2 0-.4 0-.5.1l-.4.4c0 .1-.2.5-.3 1c-.02-.04-2.2 6.2-2.2 6.2h-.2l-1.8-4.9l-1.8 4.9h-.2s-2.29-6.43-2.3-6.4c-.2-.5-.3-.8-.3-.9l-.3-.3c-.2-.1-.3-.1-.6-.1c.04-.02 0-.2 0-.2h2.9v.2s-.12-.02-.1 0c-.2 0-.4 0-.5.1c-.1.1-.1.2-.1.4c0 .1 0 .4.2.9c.01-.02 1.5 4.3 1.5 4.3l1.3-3.7l-.2-.6s-.18-.55-.2-.5c-.1-.2-.1-.4-.2-.6c-.1 0-.2-.1-.2-.1c-.1-.1-.2-.2-.3-.2h-.4c.04-.02 0-.2 0-.2h3.1v.2s-.24-.02-.2 0c-.3 0-.4 0-.5.1c-.1.1-.2.2-.2.4c0 .2.1.5.3 1l1.5 4.2s1.48-4.24 1.5-4.2c.1-.5.2-.8.2-1c0-.1 0-.2-.1-.3c0-.1-.1-.1-.2-.1c-.1-.1-.3-.1-.5-.1c-.03-.02 0-.2 0-.2h2.3zm2-.4v3.8c.4-.4.8-.7 1-.9c.3-.1.5-.2.8-.2c.3 0 .5.1.7.3c.2.2.4.4.5.8c.1.2.1.7.1 1.3v1.9c0 .3 0 .5.1.7l.2.2c.1 0 .2.1.5.1v.2h-2.6v-.2s.13-.05.1 0c.3 0 .4-.1.5-.2c.1 0 .2-.1.2-.3c.1-.1.1-.2.1-.5V5.1c0-.6-.1-.9-.1-1.1c-.1-.2-.2-.3-.3-.4c-.1-.1-.3-.2-.5-.2c-.2 0-.4.1-.6.2c-.2.1-.4.3-.7.6v2.8c0 .3 0 .6.1.6c0 .1.1.2.2.3c.1 0 .3.1.5.1c.05-.05 0 .2 0 .2h-2.6s.04-.25 0-.2c.3 0 .5-.1.6-.2c.1 0 .1-.1.2-.2V1.1c0-.1-.1-.2-.1-.3c-.1 0-.2-.1-.3-.1c0 0-.2.1-.4.1c.04.03 0-.2 0-.2l1.5-.6h.3zm5.2 4.9c0 .8.2 1.4.6 1.8c.4.5.8.7 1.3.7c.4 0 .7-.1.9-.3c.3-.2.5-.5.7-1l.2.1c-.1.6-.4 1-.7 1.5c-.4.4-.9.6-1.5.6c-.6 0-1.2-.2-1.6-.7c-.5-.5-.7-1.2-.7-2c0-.9.2-1.6.7-2.1c.5-.5 1-.8 1.7-.8c.6 0 1.1.2 1.5.6c.4.4.6.9.6 1.6h-3.7zm0-.4h2.5c-.1-.3-.1-.5-.2-.7c-.1-.2-.2-.4-.4-.5c-.2-.1-.4-.2-.6-.2c-.3 0-.6.2-.8.4c-.3.3-.4.6-.5 1zm5.9-.6c.6-.8 1.2-1.2 1.8-1.2c.2 0 .5.1.7.3c.2.1.4.3.5.7c.1.2.1.5.1 1v2.3c0 .3 0 .5.1.6c0 .1.1.2.2.3c.1 0 .3.1.5.1c.02-.05 0 .2 0 .2h-2.6v-.2s.13-.05.1 0c.3 0 .4-.1.5-.2c.1 0 .2-.1.2-.3c.1 0 .1-.2.1-.5V4.8c0-.5-.1-.8-.2-1c-.1-.2-.4-.4-.6-.4c-.5 0-1 .3-1.4.8v2.8c0 .3 0 .5.1.6c0 .1.1.2.2.3c.1 0 .3.1.5.1c.05-.05 0 .2 0 .2h-2.6v-.2s.16-.05.2 0c.2 0 .4-.1.5-.3c.1-.1.1-.3.1-.7V3.9c0-.2-.1-.3-.1-.3c-.1-.1-.2-.1-.3-.1c-.1 0-.2 0-.4.1c.04-.01 0-.2 0-.2l1.5-.7h.3v1.2z" stroke="none" fill="#000"/></g></svg>