<?xml version="1.0" standalone="no"?><!DOCTYPE svg PUBLIC "-//W3C//DTD SVG 1.1//EN" "http://www.w3.org/Graphics/SVG/1.1/DTD/svg11.dtd"><svg xmlns="http://www.w3.org/2000/svg" version="1.1" width="269.3px" height="36.2px" viewBox="0 -5 269.3 36.2" style="top:-5px"><desc>Kinetic Works by Lyman Whitaker</desc><defs/><g id="Polygon93657"><path d="m16.6.5h3.7l-.1.6s-.37-.03-.4 0c-.3 0-.5 0-.6.1c-.1 0-.2.1-.3.3c-.1.1-.2.4-.3.8c.03-.04-.7 3-.7 3c0 0 4.22-3.28 4.2-3.3c.3-.2.4-.3.5-.4c0-.1.1-.2.1-.3c0-.1-.1-.1-.2-.2h-.5c.04-.03-.2 0-.2 0l.1-.6h3.7s-.15.57-.1.6h-.7c-.2.1-.3.2-.5.2c-.1.1-.3.3-.7.5c.05.03-3.4 2.6-3.4 2.6c0 0 2.08 3.89 2.1 3.9c.2.4.3.7.5.8c.1.1.2.2.4.3c.1 0 .4.1.7.1l-.1.5H20l.2-.5s.29-.05.3 0c.3 0 .5-.1.5-.1c.1-.1.2-.2.2-.3c0-.1-.1-.3-.2-.6l-1.7-3.4l-1.6 1.2l-.5 2.2c0 .2-.1.4-.1.5c0 .1.1.1.1.2c.1.1.2.2.3.2c.1 0 .2.1.5.1c0-.05.3 0 .3 0l-.2.5h-3.7l.1-.5s.26-.05.3 0c.3 0 .5-.1.7-.1c.1-.1.2-.2.3-.4c.1-.1.2-.3.2-.6l1.4-6.2c.1-.3.1-.5.1-.6v-.3c-.1-.1-.2-.1-.3-.2h-.5c-.01-.03-.3 0-.3 0l.2-.6zM28.1 0c.2 0 .3.1.5.2c.1.1.2.3.2.5c0 .2-.1.4-.3.6c-.1.2-.3.3-.6.3c-.2 0-.3-.1-.5-.2c-.1-.2-.2-.3-.2-.5c0-.3.1-.5.3-.6c.2-.2.4-.3.6-.3zm.1 3.3L27 8.6c-.1.2-.1.3-.1.5c0 .1 0 .2.1.3c.1 0 .2.1.3.1c.1 0 .2-.1.3-.1c.2-.2.4-.4.6-.8l.5.4c-.3.4-.6.6-.9.8c-.3.2-.6.3-.9.3c-.3 0-.5-.1-.8-.3c-.2-.2-.3-.4-.3-.7c0-.2.1-.5.1-.8c.05.01.9-3.9.9-3.9h-1.5s.13-.59.1-.6c.4 0 .8-.1 1.1-.1c.3-.1.7-.2 1.1-.4c.03-.03.6 0 .6 0zm4.5 0s-.45 2.12-.5 2.1c.3-.4.5-.7.7-.9c.4-.4.8-.7 1.2-.9c.4-.2.8-.3 1.1-.3c.3 0 .6 0 .8.1c.2.2.4.3.6.6c.1.2.2.4.2.6c0 .2-.1.5-.2.9L36 8.4c-.1.3-.1.5-.1.6c0 .2 0 .3.1.3c.1.1.2.1.3.1c.3 0 .7-.3 1.2-.9l.5.4c-.4.5-.8.8-1.1 1c-.3.2-.6.2-.9.2c-.3 0-.5 0-.7-.1c-.1-.1-.3-.2-.4-.4c-.1-.2-.1-.4-.1-.6c0-.2 0-.4.1-.7l.6-3c.1-.3.1-.5.1-.6c0-.2 0-.4-.2-.5c-.1-.1-.3-.2-.5-.2c-.2 0-.5.1-.7.2c-.3.2-.6.4-.9.7c-.3.3-.5.7-.8 1.1c-.2.5-.5 1-.7 1.7c-.1.2-.2.7-.3 1.2l-.2 1.1h-1.2l1.3-5.6h-1.3s.17-.57.2-.6c.4 0 .8-.1 1-.2c.3 0 .6-.2.9-.3c.05-.03.5 0 .5 0zm12.2 4.9l.4.5c-.6.5-1.2.9-1.8 1.1c-.6.3-1.2.4-1.8.4c-.8 0-1.5-.3-2-.7c-.4-.5-.7-1.2-.7-2c0-.7.2-1.4.6-2.1c.4-.6 1-1.1 1.7-1.5c.7-.4 1.5-.6 2.3-.6c.7 0 1.2.1 1.6.4c.3.3.5.7.5 1.1c0 .2-.1.5-.2.7c-.2.3-.5.6-.8.8c-.4.2-1 .4-1.7.6c-.7.1-1.6.2-2.7.3v.4c0 .3.1.6.2.9c.2.3.4.5.7.7c.2.2.5.3.8.3c.4 0 .9-.2 1.4-.4c.5-.2 1-.5 1.5-.9zm-4.5-1.6c1-.1 1.8-.2 2.3-.3c.7-.2 1.2-.4 1.5-.7c.3-.2.4-.5.4-.8c0-.2-.1-.5-.3-.6c-.2-.2-.5-.3-.9-.3c-.4 0-.8.1-1.2.4c-.5.2-.8.5-1.1.9c-.3.4-.6.9-.7 1.4zm9.7-5.5l-.5 2.3h1.5l-.2.7h-1.5l-.9 4c-.1.4-.1.6-.1.8c0 .2 0 .3.1.4c.1.1.2.2.4.2c.1 0 .2-.1.3-.1c.1-.1.3-.2.4-.3l.6-.6l.4.4c-.4.5-.7.8-1.1 1c-.3.2-.6.3-.9.3c-.4 0-.7-.1-.9-.4c-.3-.2-.4-.5-.4-.8c0-.3 0-.5.1-.7c-.02-.04.9-4.2.9-4.2h-1.6s.18-.5.2-.5c.4-.1.8-.2 1.1-.4c.3-.2.6-.4.8-.8c.3-.3.5-.7.8-1.3c-.03.02.5 0 .5 0zM54.7 0c.2 0 .3.1.5.2c.1.1.2.3.2.5c0 .2-.1.4-.3.6c-.1.2-.3.3-.6.3c-.2 0-.3-.1-.5-.2c-.1-.2-.2-.3-.2-.5c0-.3.1-.5.3-.6c.1-.2.4-.3.6-.3zm.1 3.3l-1.2 5.3c-.1.2-.1.3-.1.5c0 .1 0 .2.1.3c.1 0 .2.1.3.1c.1 0 .2-.1.3-.1c.2-.2.4-.4.6-.8l.5.4c-.3.4-.6.6-.9.8c-.3.2-.6.3-.9.3c-.3 0-.6-.1-.8-.3c-.2-.2-.3-.4-.3-.7c0-.2.1-.5.1-.8c.05.01.9-3.9.9-3.9h-1.5s.12-.59.1-.6c.4 0 .8-.1 1.1-.1c.3-.1.7-.2 1.1-.4c.03-.03.6 0 .6 0zm7.3 4.9l.4.4c-1.2 1.1-2.3 1.6-3.4 1.6c-.5 0-1-.1-1.4-.3c-.4-.2-.7-.6-.9-1c-.2-.4-.3-.8-.3-1.3c0-.8.2-1.5.5-2.2c.4-.7 1-1.2 1.6-1.6c.6-.3 1.3-.5 2-.5c.6 0 1.2.1 1.6.5c.4.3.6.7.6 1.1c0 .3-.1.5-.2.7c-.1.1-.3.2-.5.2c-.2 0-.3 0-.4-.2c-.1-.1-.2-.2-.2-.4c.02.02 0-.2 0-.2c0 0 .04-.23 0-.2c0-.2-.1-.4-.2-.6c-.2-.2-.5-.2-.7-.2c-.5 0-.9.1-1.3.4c-.4.3-.8.8-1.1 1.4c-.3.6-.5 1.2-.5 1.9c0 .3.1.6.3.9c.1.3.3.5.5.6c.3.2.6.2.8.2c.3 0 .5 0 .8-.1L61 9c.2-.2.6-.5 1.1-.8zM69.3.5h3.4l-.2.6s-.2-.03-.2 0h-.6c-.1.1-.2.1-.2.2c-.1.1-.1.3-.1.4v.3l.5 6.7l3.1-6s-.04-.7 0-.7c-.1-.3-.1-.5-.2-.6c0-.1-.1-.2-.2-.3h-.6l.1-.6h3.4l-.2.6s-.26-.03-.3 0h-.5c-.1.1-.2.1-.2.2c-.1.1-.1.3-.1.4v.3l.5 6.8L80.1 2c.1-.3.2-.4.2-.5c0-.1 0-.2-.1-.3c0 0-.1-.1-.2-.1h-.5c-.01-.03-.2 0-.2 0l.1-.6h3.1s-.13.57-.1.6h-.7c-.1.1-.2.1-.3.2c-.1.1-.2.4-.4.7c.03 0-4.1 8-4.1 8h-1.2l-.5-5.9l-3.1 5.9h-1.2s-.75-8-.7-8c-.1-.3-.1-.5-.2-.6c0-.1-.1-.2-.2-.3h-.6c-.03-.03.1-.6.1-.6zM86 3.3c.8 0 1.4.2 1.9.7c.5.5.8 1.2.8 1.9c0 .8-.2 1.5-.5 2.2c-.4.7-.9 1.2-1.4 1.6c-.6.3-1.3.5-2 .5c-.5 0-1-.1-1.4-.3c-.4-.2-.7-.6-1-1c-.2-.4-.3-.9-.3-1.4c0-.8.2-1.5.5-2.2c.4-.6.9-1.1 1.5-1.5c.6-.4 1.2-.5 1.9-.5zm0 .6c-.5 0-.9.2-1.3.4c-.4.3-.7.8-1 1.4c-.2.6-.4 1.2-.4 1.9c0 .6.2 1 .4 1.4c.3.4.7.6 1.2.6c.4 0 .8-.2 1.1-.5c.4-.2.7-.7 1-1.3c.3-.6.4-1.3.4-1.9c0-.4 0-.8-.2-1.1c-.1-.3-.3-.5-.5-.7c-.2-.1-.5-.2-.7-.2zm7-.6s-.54 2.11-.5 2.1c.2-.5.5-.9.8-1.2c.3-.3.6-.6 1-.7c.2-.2.5-.2.7-.2c.2 0 .4 0 .6.2c.1.1.2.3.2.5c0 .2-.1.3-.2.4c-.1.2-.2.2-.4.2c-.1 0-.2 0-.4-.1h-.4c-.4 0-.8.2-1.2.8c-.6.8-1.1 1.9-1.4 3.5c-.03 0-.3 1.2-.3 1.2h-1.1l1.2-5.6h-1.2l.1-.6c.4 0 .8-.1 1.1-.2l.9-.3c-.04-.03.5 0 .5 0zM99.6 0s-1.49 6.64-1.5 6.6c.5-.8 1-1.4 1.5-1.9c.5-.5 1-.9 1.5-1.1c.4-.2.9-.3 1.4-.3c.4 0 .8 0 1 .2c.2.2.3.3.3.6c0 .1 0 .3-.1.4c-.2.1-.3.1-.4.1h-.3c-.1 0-.2-.1-.4-.3c-.3-.2-.6-.3-.8-.3c-.2 0-.5.1-.8.3c-.2.1-.5.3-.9.6l1.3 3.5c.2.4.4.7.5.8c.2.2.3.2.5.2c.1 0 .3 0 .5-.1l.7-.7l.4.4c-.4.4-.7.7-1 .9c-.3.2-.6.2-.9.2c-.3 0-.5 0-.7-.1c-.2-.1-.3-.2-.5-.4c-.2-.2-.3-.5-.4-.8l-1.2-3c-.5.6-.8 1.2-1.1 1.8c-.4.8-.7 1.7-.9 2.4c.02.03-1.1 0-1.1 0l2.1-8.9H97s.09-.53.1-.5c.7-.1 1.4-.3 2-.6h.5zm8.4 5.9l1.2.4c.1.1.4.2.7.3c.3.2.5.3.7.4c.1.2.3.3.4.6c.1.2.1.4.1.6c0 .3-.1.7-.3 1c-.2.3-.6.5-1 .7c-.4.2-1 .3-1.6.3c-.7 0-1.3-.1-1.9-.3c-.5-.2-.9-.5-1.2-.7c-.2-.3-.4-.6-.4-.8c0-.2.1-.3.2-.4c.1-.1.2-.2.4-.2c.1 0 .2.1.3.1c.1 0 .1.1.2.2c.1 0 .2.2.3.4c.1.2.2.3.3.4c.1.1.2.2.4.3l.6.3c.2 0 .5.1.7.1c.5 0 .8-.1 1.1-.2c.3-.1.5-.2.7-.4c.1-.2.2-.4.2-.6c0-.2-.2-.4-.4-.6c-.3-.2-.6-.4-1.1-.6h-.2l-.9-.3c-.6-.3-1-.5-1.3-.8c-.2-.3-.4-.6-.4-1c0-.3.1-.6.3-.9c.3-.3.6-.5 1-.7c.4-.1.9-.2 1.5-.2c.9 0 1.7.2 2.3.5c.4.3.6.6.6 1c0 .1 0 .3-.1.4c-.1.1-.3.1-.4.1c-.2 0-.3 0-.4-.1c-.1-.1-.3-.3-.4-.5c-.2-.3-.5-.5-.7-.6c-.3-.1-.6-.2-1-.2c-.5 0-.9.1-1.2.3c-.3.2-.4.4-.4.7c0 .2.1.4.2.5c.2.2.5.3.9.5zM121.1 0s-1.23 5.35-1.2 5.3c.2-.3.4-.6.6-.8c.4-.4.8-.7 1.2-.9c.4-.2.8-.3 1.2-.3c.6 0 1.1.2 1.5.6c.4.4.6 1 .6 1.6c0 .8-.3 1.6-.7 2.4c-.4.7-.9 1.3-1.5 1.7c-.6.4-1.2.6-1.9.6c-.4 0-.7-.1-1.1-.2c-.3-.1-.6-.3-.9-.6c-.04-.03-.4.6-.4.6h-.8l2-8.9h-1.3s.15-.53.1-.5c.7-.1 1.4-.3 2-.6h.6zm-1.3 6.6c-.3.6-.5 1.3-.7 2.2c.2.2.5.4.8.5c.2.2.5.2.8.2c.4 0 .9-.1 1.3-.5c.5-.3.9-.8 1.2-1.4c.3-.7.5-1.4.5-2c0-.3-.1-.6-.2-.9c-.1-.2-.2-.3-.4-.5c-.1-.1-.3-.1-.5-.1c-.5 0-.9.1-1.4.5c-.5.5-1 1.2-1.4 2zm12.9-3.2h1.1s-1.39 6.31-1.4 6.3c-.1.4-.2.7-.2.9c-.2.4-.3.7-.5 1c-.2.4-.5.6-.9.9c-.3.2-.7.4-1.1.6c-.4.1-.8.2-1.3.2c-.8 0-1.4-.2-1.8-.5c-.4-.3-.6-.6-.6-.9c0-.2 0-.3.1-.4c.1-.1.3-.2.4-.2c.1 0 .3 0 .4.1c.2.1.3.3.5.5c.1.2.3.4.4.5c.3.1.5.2.8.2c.4 0 .8-.1 1.2-.4c.4-.2.7-.5.9-.9c.2-.4.4-.9.6-1.6l.4-1.5c-.3.4-.6.8-1 1.1c-.3.3-.6.5-1 .7c-.3.1-.7.2-1 .2c-.5 0-.9-.1-1.2-.4c-.2-.3-.4-.6-.4-.9c0-.3.1-.5.1-.7c.03-.04 1-3.8 1-3.8h-1.7l.2-.6c.4 0 .7 0 .9-.1c.3-.1.7-.2 1.2-.4c-.02-.03.7 0 .7 0c0 0-1.17 4.91-1.2 4.9c0 .3-.1.5-.1.6c0 .2.1.3.2.5c.2.1.4.2.6.2c.3 0 .6-.1.9-.3c.4-.3.8-.6 1.1-1.1c.3-.4.6-.9.9-1.6c.2-.5.4-1.1.5-1.8c.02-.02.3-1.3.3-1.3zm8.5-2.9h3.8l-.2.6s-.26-.03-.3 0c-.3 0-.5 0-.6.1c-.2 0-.3.1-.3.3c-.1.1-.2.4-.3.8l-1.5 6.5v.3c0 .1 0 .1.1.2h.9c.7 0 1.2-.1 1.7-.2c.4-.2.8-.5 1.2-.8c.3-.3.7-.8 1.1-1.5c-.02-.02.6.2.6.2l-1.5 3h-6.8l.1-.5s.3-.05.3 0c.3 0 .5-.1.6-.1c.2-.1.3-.2.4-.3c.1-.1.1-.4.2-.7l1.4-6.3c.1-.2.1-.4.1-.5c0-.1 0-.2-.1-.3c0-.1-.1-.1-.2-.2h-.5c-.01-.03-.3 0-.3 0l.1-.6zm13.5 2.9h1.1l-1.4 6.3c-.1.4-.2.7-.2.9c-.2.4-.3.7-.6 1c-.2.4-.4.6-.8.9c-.3.2-.7.4-1.1.6c-.4.1-.9.2-1.4.2c-.7 0-1.3-.2-1.7-.5c-.5-.3-.7-.6-.7-.9c0-.2.1-.3.2-.4c.1-.1.2-.2.4-.2c.1 0 .3 0 .4.1l.5.5c.1.2.3.4.4.5c.2.1.5.2.8.2c.4 0 .8-.1 1.2-.4c.4-.2.7-.5.9-.9c.2-.4.4-.9.6-1.6l.3-1.5c-.3.4-.6.8-.9 1.1c-.3.3-.7.5-1 .7c-.4.1-.7.2-1 .2c-.5 0-.9-.1-1.2-.4c-.2-.3-.4-.6-.4-.9c0-.3.1-.5.1-.7l.9-3.8h-1.6l.2-.6c.3 0 .6 0 .9-.1c.3-.1.7-.2 1.2-.4c-.04-.03.7 0 .7 0c0 0-1.19 4.91-1.2 4.9c-.1.3-.1.5-.1.6c0 .2.1.3.2.5c.2.1.3.2.5.2c.3 0 .6-.1.9-.3c.5-.3.8-.6 1.2-1.1c.3-.4.6-.9.8-1.6c.3-.5.4-1.1.6-1.8l.3-1.3zm3.9 1h-1.3l.2-.6c.4 0 .8-.1 1.1-.2c.3-.1.5-.2.8-.3c.01-.03.5 0 .5 0c0 0-.33 1.55-.3 1.6c.2-.4.5-.7.7-.9c.3-.3.5-.4.9-.6c.3-.1.6-.1.9-.1c.4 0 .8.1 1.1.4c.2.2.4.5.4.8c0 .1 0 .2-.1.3c.3-.4.5-.6.8-.9c.2-.2.5-.3.8-.5c.3-.1.6-.1.9-.1c.5 0 .8.1 1.1.4c.3.3.4.6.4.9v.6l-.7 3.2c-.1.3-.2.6-.2.7c0 .1.1.2.2.3c0 0 .1.1.3.1c.1 0 .3-.1.5-.2c.1-.1.4-.3.7-.7l.4.4c-.3.4-.6.7-1 .9c-.3.2-.6.2-.9.2c-.4 0-.7-.1-.9-.3c-.2-.2-.4-.4-.4-.7c0-.2.1-.4.1-.7l.7-3.1c.1-.3.1-.5.1-.6c0-.2 0-.4-.2-.5c-.1-.1-.3-.2-.5-.2c-.2 0-.4.1-.7.2c-.3.2-.6.4-.9.8c-.2.3-.5.7-.7 1.2c-.2.6-.4 1.4-.6 2.2c0 .1-.1.2-.1.3c.02 0-.3 1.3-.3 1.3h-1.1s1.08-4.75 1.1-4.7v-.6c0-.2 0-.4-.2-.5c-.1-.1-.3-.2-.5-.2c-.2 0-.5.1-.8.3c-.3.2-.6.4-.8.8c-.3.4-.5.8-.7 1.4c-.2.6-.4 1.1-.5 1.5c.01.04-.4 2-.4 2h-1.2l1.3-5.6zm17.5-1h.9s-1.08 5.18-1.1 5.2v.4c0 .2 0 .3.1.4c0 0 .1.1.2.1c.1 0 .3-.1.4-.2c.2-.1.4-.4.6-.7l.5.4c-.4.4-.7.7-.9.8c-.3.2-.6.3-.9.3c-.3 0-.4 0-.6-.1c-.2-.1-.3-.2-.4-.4c-.1-.2-.1-.4-.1-.5c0-.2 0-.5.1-.9c-.4.5-.7.9-1 1.2c-.3.3-.7.5-1 .6c-.3.1-.7.2-1 .2c-.6 0-1.1-.2-1.4-.6c-.4-.5-.6-1.1-.6-1.8c0-.8.1-1.6.5-2.3c.4-.7.9-1.3 1.5-1.6c.6-.4 1.2-.6 1.9-.6c.4 0 .8 0 1.1.2c.4.1.7.4.9.6c.03.05.3-.7.3-.7zm-.5 1.3c-.2-.2-.5-.4-.8-.5c-.3-.2-.6-.2-.8-.2c-.5 0-.9.1-1.3.4c-.5.3-.8.8-1.1 1.5c-.3.7-.5 1.4-.5 2.1c0 .3.1.5.2.8c.1.2.2.4.4.5c.1.1.3.2.5.2c.4 0 .8-.2 1.2-.5c.5-.4.9-.9 1.3-1.7c.5-.8.7-1.6.9-2.6zm6.2-1.4s-.46 2.12-.5 2.1c.3-.4.5-.7.7-.9c.4-.4.8-.7 1.2-.9c.4-.2.8-.3 1.1-.3c.3 0 .6 0 .8.1c.2.2.4.3.6.6c.1.2.2.4.2.6c0 .2-.1.5-.2.9l-.6 2.9c-.1.3-.2.5-.2.6c0 .2.1.3.2.3c.1.1.2.1.3.1c.3 0 .7-.3 1.2-.9l.5.4c-.4.5-.8.8-1.1 1c-.3.2-.6.2-.9.2c-.3 0-.5 0-.7-.1c-.1-.1-.3-.2-.4-.4c-.1-.2-.1-.4-.1-.6v-.7l.7-3c.1-.3.1-.5.1-.6c0-.2 0-.4-.2-.5c-.1-.1-.3-.2-.5-.2c-.2 0-.5.1-.7.2c-.3.2-.6.4-.9.7c-.3.3-.5.7-.8 1.1c-.2.5-.5 1-.7 1.7c-.1.2-.2.7-.3 1.2l-.2 1.1h-1.2l1.3-5.6h-1.3s.17-.57.2-.6c.4 0 .8-.1 1-.2c.2 0 .6-.2.9-.3c.04-.03.5 0 .5 0zm12-2.8h3.3l-.1.6s-.25-.03-.2 0h-.6c-.1.1-.2.1-.3.2v.7c-.03 0 .5 6.7.5 6.7l3.1-6s-.08-.7-.1-.7c0-.3-.1-.5-.1-.6l-.3-.3h-.5c-.04-.03.1-.6.1-.6h3.3l-.1.6s-.3-.03-.3 0h-.5c-.1.1-.2.1-.3.2v.7c-.03 0 .5 6.8.5 6.8c0 0 3.36-6.8 3.4-6.8c.1-.3.2-.4.2-.5c0-.1-.1-.2-.1-.3c-.1 0-.1-.1-.2-.1h-.5c-.05-.03-.3 0-.3 0l.1-.6h3.1s-.08.57-.1.6h-.6c-.1.1-.2.1-.3.2c-.1.1-.2.4-.4.7c-.02 0-4.2 8-4.2 8h-1.1l-.6-5.9l-3.1 5.9h-1.1l-.8-8c0-.3-.1-.5-.1-.6l-.3-.3h-.6c.03-.03.2-.6.2-.6zm16.3-.5s-1.21 5.36-1.2 5.4c.3-.5.7-.9 1-1.2c.4-.3.8-.6 1.2-.7c.3-.2.7-.2 1-.2c.5 0 .9.1 1.2.4c.3.2.5.6.5.9c0 .2-.1.5-.1.7l-.8 3.2v.5c0 .2 0 .3.1.3c.1.1.2.2.3.2c.2 0 .3-.1.5-.2c.3-.2.5-.4.7-.7l.5.4c-.6.8-1.3 1.1-2 1.1c-.4 0-.7-.1-.9-.3c-.2-.2-.3-.4-.3-.7c0-.2 0-.4.1-.7l.7-3.2c0-.2.1-.4.1-.5c0-.2-.1-.4-.3-.5c-.1-.1-.3-.2-.5-.2c-.3 0-.7.1-1 .3c-.5.3-.9.7-1.3 1.2c-.4.5-.7 1.1-1 1.7c-.2.6-.4 1.1-.5 1.6c0 .05-.3 1.2-.3 1.2h-1.1l2-8.9h-1.3s.17-.53.2-.5c.7-.1 1.3-.3 2-.6h.5zm8.1 0c.2 0 .4.1.5.2c.1.1.2.3.2.5c0 .2-.1.4-.3.6c-.1.2-.3.3-.5.3c-.2 0-.4-.1-.6-.2c-.1-.2-.2-.3-.2-.5c0-.3.1-.5.3-.6c.2-.2.4-.3.6-.3zm.1 3.3l-1.2 5.3c0 .2-.1.3-.1.5c0 .1.1.2.1.3c.1 0 .2.1.3.1c.1 0 .2-.1.3-.1c.2-.2.4-.4.6-.8l.5.4c-.3.4-.6.6-.9.8c-.3.2-.6.3-.9.3c-.3 0-.5-.1-.7-.3c-.3-.2-.4-.4-.4-.7c0-.2.1-.5.2-.8c-.04.01.9-3.9.9-3.9h-1.6s.14-.59.1-.6c.4 0 .8-.1 1.1-.1c.3-.1.7-.2 1.1-.4c.04-.03.6 0 .6 0zm4.8-2.2l-.5 2.3h1.5l-.1.7h-1.6s-.87 4.03-.9 4c0 .4-.1.6-.1.8c0 .2.1.3.2.4c0 .1.2.2.3.2c.1 0 .2-.1.3-.1c.2-.1.3-.2.4-.3l.6-.6l.4.4c-.4.5-.7.8-1 1c-.3.2-.7.3-1 .3c-.4 0-.7-.1-.9-.4c-.3-.2-.4-.5-.4-.8c0-.3.1-.5.1-.7l.9-4.2h-1.5l.1-.5c.5-.1.8-.2 1.1-.4c.3-.2.6-.4.8-.8c.3-.3.6-.7.8-1.3c0 .02.5 0 .5 0zm8.3 2.3h.9s-1.08 5.18-1.1 5.2v.4c0 .2 0 .3.1.4c0 0 .1.1.2.1c.1 0 .3-.1.4-.2c.2-.1.4-.4.6-.7l.5.4c-.4.4-.7.7-.9.8c-.3.2-.6.3-.9.3c-.3 0-.5 0-.6-.1c-.2-.1-.3-.2-.4-.4c-.1-.2-.1-.4-.1-.5c0-.2 0-.5.1-.9c-.4.5-.7.9-1 1.2c-.3.3-.7.5-1 .6c-.3.1-.7.2-1 .2c-.6 0-1.1-.2-1.4-.6c-.4-.5-.6-1.1-.6-1.8c0-.8.1-1.6.5-2.3c.4-.7.9-1.3 1.5-1.6c.6-.4 1.2-.6 1.9-.6c.4 0 .8 0 1.1.2c.4.1.7.4.9.6c.03.05.3-.7.3-.7zm-.5 1.3c-.2-.2-.5-.4-.8-.5c-.3-.2-.6-.2-.8-.2c-.5 0-.9.1-1.3.4c-.5.3-.8.8-1.1 1.5c-.3.7-.5 1.4-.5 2.1c0 .3.1.5.2.8c.1.2.2.4.4.5c.1.1.3.2.5.2c.4 0 .8-.2 1.2-.5c.5-.4.9-.9 1.3-1.7c.5-.8.7-1.6.9-2.6zm6.9-4.7l-1.5 6.6c.5-.8.9-1.4 1.5-1.9c.5-.5 1-.9 1.4-1.1c.5-.2 1-.3 1.5-.3c.4 0 .8 0 1 .2c.2.2.3.3.3.6c0 .1 0 .3-.2.4c-.1.1-.2.1-.4.1h-.2c-.1 0-.2-.1-.5-.3c-.2-.2-.5-.3-.7-.3c-.2 0-.5.1-.9.3c-.2.1-.4.3-.8.6l1.3 3.5c.2.4.4.7.5.8c.1.2.3.2.4.2c.2 0 .4 0 .5-.1c.2-.1.4-.4.7-.7l.5.4c-.4.4-.7.7-1 .9c-.3.2-.6.2-1 .2c-.2 0-.4 0-.6-.1c-.2-.1-.4-.2-.5-.4c-.2-.2-.3-.5-.5-.8l-1.1-3c-.5.6-.9 1.2-1.1 1.8c-.4.8-.7 1.7-.9 2.4c0 .03-1.1 0-1.1 0l2-8.9h-1.3s.17-.53.2-.5c.7-.1 1.3-.3 2-.6h.5zM249 8.2l.4.5c-.6.5-1.2.9-1.8 1.1c-.6.3-1.2.4-1.8.4c-.8 0-1.5-.3-1.9-.7c-.5-.5-.8-1.2-.8-2c0-.7.2-1.4.6-2.1c.4-.6 1-1.1 1.7-1.5c.7-.4 1.5-.6 2.3-.6c.7 0 1.2.1 1.6.4c.3.3.5.7.5 1.1c0 .2-.1.5-.2.7c-.2.3-.5.6-.8.8c-.4.2-1 .4-1.7.6c-.7.1-1.6.2-2.7.3v.4c0 .3.1.6.2.9c.2.3.4.5.7.7c.3.2.6.3.9.3c.3 0 .8-.2 1.3-.4c.5-.2 1-.5 1.5-.9zm-4.5-1.6c1-.1 1.8-.2 2.3-.3c.7-.2 1.2-.4 1.5-.7c.3-.2.4-.5.4-.8c0-.2-.1-.5-.3-.6c-.2-.2-.5-.3-.9-.3c-.4 0-.8.1-1.2.4c-.4.2-.8.5-1.1.9c-.3.4-.5.9-.7 1.4zm9.5-3.3s-.55 2.11-.5 2.1c.2-.5.5-.9.8-1.2c.3-.3.6-.6 1-.7c.2-.2.5-.2.7-.2c.2 0 .4 0 .6.2c.1.1.2.3.2.5c0 .2-.1.3-.2.4c-.1.2-.2.2-.4.2c-.1 0-.2 0-.4-.1h-.4c-.4 0-.8.2-1.2.8c-.6.8-1.1 1.9-1.4 3.5c-.03 0-.3 1.2-.3 1.2h-1.1l1.2-5.6h-1.2l.1-.6c.4 0 .8-.1 1.1-.2l.9-.3c-.04-.03.5 0 .5 0z" stroke="none" fill="#040705"/></g></svg>