<?xml version="1.0" standalone="no"?><!DOCTYPE svg PUBLIC "-//W3C//DTD SVG 1.1//EN" "http://www.w3.org/Graphics/SVG/1.1/DTD/svg11.dtd"><svg xmlns="http://www.w3.org/2000/svg" version="1.1" width="460px" height="48.6px" viewBox="0 -5 460 48.6" style="top:-5px"><desc>The triple Wave grouping is one of Lyman’s favorite groupings. The grouping seems to work regardless of how it is con...</desc><defs/><g id="Polygon123232"><path d="m3.3 35.6c-.5.5-.8.7-1 .8c-.2.1-.4.1-.6.1c-.4 0-.7-.1-.9-.4c-.3-.2-.4-.5-.4-1c0-.2.1-.4.2-.6c.1-.3.4-.5.8-.8c.4-.2 1-.5 1.9-.8v-.2c0-.5 0-.9-.2-1.1c-.2-.2-.4-.3-.7-.3c-.3 0-.5.1-.6.2c-.1.2-.2.3-.2.5v.3c0 .2-.1.3-.1.4c-.1.1-.3.2-.4.2c-.1 0-.3-.1-.3-.2c-.1-.1-.2-.2-.2-.4c0-.3.2-.6.5-.9c.4-.3.8-.4 1.4-.4c.5 0 .9.1 1.2.2c.2.1.4.3.5.6c.1.1.1.5.1 1v2.7c0 .1.1.2.1.2c.1.1.1.1.2.1s.1 0 .1-.1c.1 0 .3-.2.5-.4v.3c-.4.6-.8.9-1.2.9c-.2 0-.4-.1-.5-.2c-.1-.1-.1-.4-.2-.7zm-1.1.2c.3 0 .7-.2 1.1-.5v-2c-.5.2-.9.3-1.1.4c-.3.2-.5.4-.6.6c-.2.2-.2.4-.2.6c0 .3.1.5.2.7c.2.1.4.2.6.2zm4.9-3.7c.6-.8 1.2-1.1 1.8-1.1c.3 0 .5 0 .7.2c.2.1.4.4.5.7c.1.2.1.6.1 1.1v2.2c0 .3.1.6.1.7c.1.1.1.2.2.2c.1.1.3.1.6.1c-.05-.01 0 .2 0 .2H8.5v-.2h.1c.2 0 .4-.1.5-.1c.1-.1.1-.2.2-.4V33c0-.4-.1-.8-.2-1c-.1-.2-.3-.3-.6-.3c-.5 0-.9.2-1.4.7v2.8c0 .4 0 .6.1.7c0 .1.1.2.2.2c.1.1.3.1.6.1c-.02-.01 0 .2 0 .2H5.4v-.2h.1c.3 0 .4-.1.5-.2c.1-.2.2-.4.2-.8v-1.9c0-.7 0-1.1-.1-1.2c0-.1 0-.2-.1-.3c-.1 0-.1-.1-.2-.1c-.1 0-.3.1-.4.1c-.02.03-.1-.2-.1-.2l1.6-.6h.2s.02 1.09 0 1.1zm4.1-1h2.4v.2s-.09.04-.1 0c-.2 0-.3.1-.4.2c-.1 0-.1.1-.1.2c0 .2.1.4.2.7l1.3 2.6s1.14-2.9 1.1-2.9c.1-.2.1-.3.1-.5v-.1c0-.1-.1-.1-.1-.1c-.1 0-.2-.1-.4-.1v-.2h1.7s.02.24 0 .2c-.1.1-.2.1-.3.1l-.3.3l-.2.4l-2.1 5.3c-.2.5-.5.9-.8 1.1c-.3.3-.7.4-1 .4c-.2 0-.4 0-.5-.2c-.2-.1-.3-.2-.3-.4c0-.2.1-.3.2-.4c.1-.1.3-.1.4-.1c.2 0 .3 0 .6.1c.1 0 .2.1.2.1c.2 0 .3-.1.4-.2c.2-.1.3-.4.4-.7c.03 0 .4-.9.4-.9l-1.9-4c0-.1-.1-.2-.3-.4c-.1-.2-.1-.3-.2-.3c-.1-.1-.2-.1-.4-.2c-.03.04 0-.2 0-.2zm12.1 4.5c-.6.5-.9.7-1 .8c-.2.1-.5.1-.7.1c-.4 0-.7-.1-.9-.4c-.2-.2-.4-.5-.4-1c0-.2.1-.4.2-.6c.2-.3.4-.5.8-.8c.4-.2 1.1-.5 2-.8v-.2c0-.5-.1-.9-.3-1.1c-.1-.2-.4-.3-.7-.3c-.2 0-.4.1-.6.2c-.1.2-.2.3-.2.5v.3c0 .2 0 .3-.1.4c-.1.1-.2.2-.4.2c-.1 0-.2-.1-.3-.2c-.1-.1-.2-.2-.2-.4c0-.3.2-.6.6-.9c.3-.3.8-.4 1.4-.4c.4 0 .8.1 1.1.2c.2.1.4.3.5.6c.1.1.1.5.1 1v1.8c0 .5 0 .8.1.9v.2c.1.1.1.1.2.1c.1 0 .1 0 .2-.1l.4-.4v.3c-.4.6-.8.9-1.2.9c-.2 0-.3-.1-.5-.2c-.1-.1-.1-.4-.1-.7zm-1.2.2c.3 0 .7-.2 1.2-.5v-2c-.6.2-1 .3-1.1.4c-.3.2-.6.4-.7.6c-.1.2-.2.4-.2.6c0 .3.1.5.3.7c.1.1.3.2.5.2zm5-3.7c.6-.8 1.2-1.1 1.7-1.1c.3 0 .5 0 .8.2c.2.1.3.4.4.7c.1.2.2.6.2 1.1v2.2c0 .3 0 .6.1.7c0 .1.1.2.2.2c.1.1.2.1.5.1c-.02-.01 0 .2 0 .2h-2.6v-.2h.1c.2 0 .4-.1.5-.1c.1-.1.2-.2.2-.4V33c0-.4 0-.8-.2-1c-.1-.2-.3-.3-.6-.3c-.4 0-.9.2-1.3.7v3.5c.1.1.1.2.2.2c.1.1.3.1.6.1v.2h-2.6v-.2h.1c.3 0 .5-.1.6-.2c.1-.2.1-.4.1-.8v-3.1c-.1-.1-.1-.2-.2-.3c0 0-.1-.1-.2-.1c-.1 0-.2.1-.4.1c0 .03-.1-.2-.1-.2l1.6-.6h.3s-.05 1.09 0 1.1zm5.7 2.4c-.3-.2-.6-.4-.7-.7c-.2-.3-.3-.6-.3-.9c0-.5.2-1 .6-1.4c.4-.3.9-.5 1.5-.5c.5 0 .9.1 1.3.3h1.1c.2 0 .3 0 .3.1h.1v.4h-.1c0 .1-.1.1-.3.1h-.7c.3.2.4.6.4 1c0 .5-.2.9-.6 1.3c-.4.3-.9.5-1.5.5c-.3 0-.5 0-.8-.1c-.2.1-.3.3-.4.4v.2c0 .1 0 .2.1.2c0 .1.1.1.3.2h.8c.8 0 1.3.1 1.6.1c.3 0 .6.2.8.4c.2.2.3.5.3.8c0 .4-.2.8-.6 1.2c-.6.6-1.4.8-2.3.8c-.8 0-1.4-.1-1.9-.5c-.3-.2-.4-.4-.4-.6v-.2c.1-.2.2-.4.4-.6c.1-.1.3-.3.6-.7c-.2-.1-.3-.2-.4-.3c-.1-.1-.1-.2-.1-.3c0-.1 0-.3.2-.5c.1-.1.3-.4.7-.7zm1.8-2.9c-.2-.2-.5-.3-.8-.3c-.3 0-.5.1-.7.3c-.2.2-.3.6-.3 1c0 .6.1 1.1.4 1.4c.2.3.4.4.8.4c.2 0 .5-.1.7-.3c.2-.2.3-.6.3-1c0-.6-.2-1.1-.4-1.5zm.1 4.9c-.8 0-1.5 0-2-.1c-.1.2-.3.4-.4.5c-.1.2-.1.4-.1.5c0 .2.1.3.3.5c.4.2 1 .3 1.7.3c.7 0 1.2-.1 1.5-.3c.3-.3.5-.5.5-.8c0-.2-.1-.3-.3-.4c-.2-.1-.6-.2-1.2-.2zm4.4-8.3v7c0 .3 0 .6.1.7c0 .1.1.1.2.2c.1.1.3.1.5.1c.04-.01 0 .2 0 .2h-2.5s-.04-.21 0-.2c.2 0 .4 0 .5-.1l.2-.2v-6.6c0-.1-.1-.2-.1-.2c-.1-.1-.2-.1-.3-.1c-.1 0-.2 0-.3.1c-.04-.03-.1-.2-.1-.2l1.5-.7h.3zm2.3 4.9c0 .8.2 1.4.6 1.9c.4.4.8.6 1.4.6c.3 0 .6-.1.9-.3c.2-.2.4-.5.6-.9l.2.1c-.1.5-.3 1-.7 1.4c-.4.4-.9.7-1.5.7c-.6 0-1.2-.3-1.6-.8c-.5-.5-.7-1.1-.7-2c0-.9.2-1.6.7-2.1c.5-.5 1.1-.7 1.7-.7c.6 0 1.1.2 1.5.6c.4.3.6.9.6 1.5h-3.7zm0-.3h2.5c0-.4-.1-.6-.1-.7c-.1-.2-.3-.4-.5-.5c-.2-.2-.4-.2-.6-.2c-.3 0-.6.1-.8.3c-.3.3-.4.6-.5 1.1zm5.5 2.5c.2 0 .3 0 .4.2c.2.1.2.2.2.4c0 .2 0 .3-.2.5c-.1.1-.2.2-.4.2c-.2 0-.4-.1-.5-.2c-.1-.2-.2-.3-.2-.5c0-.2.1-.3.2-.4c.1-.2.3-.2.5-.2z" stroke="none" fill="#000"/></g><g id="Polygon123231"><path d="m1.9 16.9s.01 1.14 0 1.1c.4-.7.9-1.1 1.4-1.1c.2 0 .3 0 .5.2c.1.1.2.2.2.4c0 .1-.1.3-.2.4c-.1.1-.2.1-.3.1c-.1 0-.3 0-.5-.2c-.1-.1-.3-.2-.3-.2c-.1 0-.2.1-.3.1c-.1.2-.3.5-.5.8v2.5c0 .3 0 .6.1.7l.3.3c.1 0 .3.1.5.1c.03-.03 0 .2 0 .2H.1s.03-.23 0-.2c.3 0 .5-.1.6-.2c.1 0 .2-.1.2-.3c0 0 .1-.2.1-.5v-2c0-.7-.1-1-.1-1.1c0-.2 0-.2-.1-.3c-.1-.1-.2-.1-.3-.1c-.1 0-.2.1-.4.1c.03.01 0-.2 0-.2l1.6-.6h.2zM5.2 19c0 .8.2 1.4.5 1.8c.4.5.9.7 1.4.7c.3 0 .6-.1.9-.3c.2-.2.5-.5.6-1l.2.2c-.1.5-.3 1-.7 1.4c-.4.4-.9.6-1.4.6c-.7 0-1.2-.2-1.7-.7c-.4-.5-.6-1.2-.6-2c0-.9.2-1.6.6-2.1c.5-.5 1.1-.7 1.8-.7c.6 0 1.1.1 1.4.5c.4.4.6.9.6 1.6H5.2zm0-.3h2.4c0-.4-.1-.6-.1-.8c-.1-.2-.3-.3-.4-.5c-.2-.1-.4-.1-.6-.1c-.4 0-.6.1-.9.3c-.2.3-.4.6-.4 1.1zm5.7 1.7c-.3-.2-.6-.4-.7-.7c-.2-.3-.3-.6-.3-.9c0-.6.2-1 .6-1.4c.4-.4.9-.5 1.5-.5c.5 0 .9.1 1.3.3h1.4l.1.1v.4h-1.1c.3.3.4.7.4 1.1c0 .5-.2.9-.6 1.3c-.4.3-.9.5-1.5.5c-.3 0-.5-.1-.8-.1c-.2.1-.3.2-.3.3c-.1.2-.1.2-.1.3c0 .1 0 .2.1.2c0 .1.1.1.3.1c.1.1.4.1.8.1c.8 0 1.3 0 1.6.1c.3 0 .6.2.8.4c.2.2.3.4.3.8c0 .4-.2.8-.6 1.2c-.6.5-1.3.8-2.3.8c-.7 0-1.4-.2-1.9-.5c-.3-.2-.4-.4-.4-.6c0-.1 0-.2.1-.3c0-.1.2-.3.4-.6c0 0 .2-.2.5-.6c-.2-.1-.3-.2-.4-.3c-.1-.1-.1-.2-.1-.3c0-.1 0-.3.2-.5c.1-.2.3-.4.7-.7zm1.8-2.9c-.2-.2-.5-.4-.8-.4c-.3 0-.5.1-.7.4c-.2.2-.3.5-.3 1c0 .6.1 1.1.4 1.4c.2.3.5.4.8.4c.3 0 .5-.1.7-.3c.2-.2.3-.6.3-1.1c0-.6-.2-1-.4-1.4zm.1 4.9c-.8 0-1.5-.1-1.9-.1l-.5.5c0 .2-.1.3-.1.5c0 .2.1.3.3.5c.4.2 1 .3 1.7.3c.7 0 1.2-.1 1.5-.3c.4-.3.5-.5.5-.8c0-.2-.1-.4-.3-.4c-.2-.1-.6-.2-1.2-.2zm5.6-.9c-.6.4-.9.7-1 .7c-.3.1-.5.2-.7.2c-.4 0-.7-.1-.9-.4c-.2-.2-.4-.6-.4-1c0-.2.1-.5.2-.6c.2-.3.4-.5.8-.8c.4-.2 1.1-.5 2-.8v-.2c0-.5-.1-.9-.3-1.1c-.1-.2-.4-.3-.7-.3c-.2 0-.4.1-.6.2c-.1.1-.2.3-.2.5v.3c0 .2 0 .3-.1.4c-.1.1-.2.1-.4.1c-.1 0-.2 0-.3-.1c-.1-.1-.2-.2-.2-.4c0-.4.2-.7.5-.9c.4-.3.9-.4 1.5-.4c.4 0 .8 0 1.1.2c.2.1.4.3.5.6c.1.1.1.5.1 1v2.7c.1.1.1.2.1.2c.1 0 .1.1.2.1c.1 0 .1-.1.2-.1l.4-.4v.3c-.4.6-.8.9-1.2.9c-.2 0-.3-.1-.5-.2c-.1-.1-.1-.4-.1-.7zm-1.2.2c.3 0 .7-.2 1.2-.6v-2c-.6.3-1 .4-1.1.5c-.4.2-.6.4-.7.6c-.1.1-.2.3-.2.6c0 .2.1.5.3.6c.1.2.3.3.5.3zm5-4.8s-.05 1.14 0 1.1c.4-.7.8-1.1 1.3-1.1c.2 0 .4 0 .5.2c.2.1.2.2.2.4c0 .1 0 .3-.1.4c-.1.1-.2.1-.4.1c-.1 0-.3 0-.4-.2c-.2-.1-.3-.2-.4-.2c-.1 0-.1.1-.2.1c-.2.2-.4.5-.5.8v2.5c0 .3 0 .6.1.7c0 .1.1.2.2.3c.2 0 .3.1.6.1c-.03-.03 0 .2 0 .2h-2.7s-.02-.23 0-.2c.2 0 .4-.1.6-.2c.1 0 .1-.1.2-.3V18c-.1-.2-.1-.2-.2-.3c0-.1-.1-.1-.2-.1c-.1 0-.3.1-.4.1c-.02.01-.1-.2-.1-.2l1.6-.6h.3zm6 4.8c-.2.3-.5.4-.7.6c-.3.1-.5.1-.8.1c-.6 0-1.1-.2-1.5-.7c-.4-.5-.6-1.1-.6-1.8c0-.8.2-1.5.7-2.1c.4-.6 1-.9 1.8-.9c.5 0 .8.1 1.1.4v-2.1c0-.1-.1-.2-.1-.3h-.3c-.1 0-.2 0-.4.1c.04-.05 0-.3 0-.3l1.5-.6h.3s-.01 6.09 0 6.1v1.1c.1.2.1.2.2.3c0 .1.1.1.2.1c.1 0 .2 0 .4-.1c.01-.01.1.2.1.2l-1.6.6h-.3s.05-.72 0-.7zm-1 .1c.4 0 .7-.2 1-.5v-2.7c0-.3 0-.5-.2-.7c-.1-.3-.2-.4-.4-.5c-.2-.1-.4-.2-.6-.2c-.3 0-.6.2-.9.5c-.3.4-.5.9-.5 1.7c0 .8.2 1.4.5 1.8c.3.4.7.6 1.1.6zm5-7.7s.02 6.99 0 7c0 .3 0 .5.1.6c0 .1.1.2.2.3c.1 0 .3.1.6.1c-.03-.03 0 .2 0 .2h-2.6v-.2c.2 0 .4-.1.5-.1c.1-.1.1-.1.2-.3c0-.1.1-.3.1-.6v-4.8c0-.6 0-1-.1-1.1c0-.1 0-.2-.1-.3h-.2c-.1 0-.3 0-.4.1l-.1-.3l1.6-.6h.2zm2.4 4.9c0 .8.2 1.4.5 1.8c.4.5.9.7 1.4.7c.3 0 .6-.1.9-.3c.2-.2.5-.5.6-1l.2.2c-.1.5-.3 1-.7 1.4c-.4.4-.9.6-1.5.6c-.6 0-1.1-.2-1.6-.7c-.4-.5-.7-1.2-.7-2c0-.9.3-1.6.7-2.1c.5-.5 1.1-.7 1.8-.7c.6 0 1.1.1 1.4.5c.4.4.6.9.6 1.6h-3.6zm0-.3h2.4c0-.4-.1-.6-.1-.8c-.1-.2-.3-.3-.4-.5c-.2-.1-.4-.1-.6-.1c-.4 0-.6.1-.9.3c-.2.3-.4.6-.4 1.1zm7.7-1.8v1.8s-.19-.05-.2 0c-.1-.6-.3-1-.5-1.2c-.3-.2-.6-.3-.9-.3c-.3 0-.5.1-.7.2c-.1.2-.2.3-.2.5c0 .2 0 .4.2.5c.1.2.3.4.7.5l.8.4c.8.4 1.2.9 1.2 1.5c0 .5-.2.9-.5 1.2c-.4.3-.8.4-1.3.4c-.3 0-.6 0-1.1-.1c-.1-.1-.2-.1-.3-.1c-.1 0-.1.1-.2.2c.02-.04-.2 0-.2 0v-1.9s.22-.02.2 0c.1.5.3.9.6 1.2c.3.3.7.4 1.1.4c.2 0 .4-.1.6-.2c.2-.2.2-.4.2-.6c0-.3 0-.5-.2-.7c-.2-.1-.6-.4-1.1-.6c-.6-.3-1-.6-1.1-.8c-.2-.2-.3-.5-.3-.8c0-.5.2-.8.5-1.1c.3-.3.6-.4 1.1-.4c.2 0 .5 0 .8.1c.2 0 .3.1.3.1c.1 0 .2 0 .2-.1l.1-.1c.01-.04.2 0 .2 0zm4.6 0v1.8s-.21-.05-.2 0c-.2-.6-.3-1-.6-1.2c-.2-.2-.5-.3-.8-.3c-.3 0-.5.1-.7.2c-.2.2-.2.3-.2.5c0 .2 0 .4.1.5c.2.2.4.4.8.5l.8.4c.8.4 1.2.9 1.2 1.5c0 .5-.2.9-.6 1.2c-.3.3-.7.4-1.2.4c-.3 0-.7 0-1.1-.1c-.1-.1-.2-.1-.3-.1c-.1 0-.2.1-.2.2c0-.04-.2 0-.2 0v-1.9s.2-.02.2 0c.1.5.3.9.6 1.2c.3.3.7.4 1 .4c.3 0 .5-.1.7-.2c.1-.2.2-.4.2-.6c0-.3-.1-.5-.3-.7c-.1-.1-.5-.4-1.1-.6c-.5-.3-.9-.6-1.1-.8c-.1-.2-.2-.5-.2-.8c0-.5.1-.8.4-1.1c.3-.3.7-.4 1.2-.4c.2 0 .4 0 .7.1c.2 0 .4.1.4.1c.1 0 .1 0 .2-.1s0-.1.1-.1c-.01-.04.2 0 .2 0zm6.7 0c.8 0 1.4.3 1.9.9c.4.5.6 1.1.6 1.7c0 .5-.1 1-.3 1.5c-.3.5-.6.8-1 1.1c-.4.2-.8.3-1.3.3c-.8 0-1.4-.3-1.9-.9c-.4-.5-.6-1.1-.6-1.8c0-.5.1-1 .4-1.4c.2-.5.5-.9.9-1.1c.4-.2.8-.3 1.3-.3zm.8.9c-.2-.4-.6-.6-1-.6c-.2 0-.4.1-.6.2c-.2.1-.4.3-.5.6c-.1.3-.2.7-.2 1.2c0 .8.1 1.4.5 2c.3.6.7.8 1.2.8c.3 0 .6-.1.9-.4c.2-.3.3-.9.3-1.6c0-.9-.2-1.7-.6-2.2zm4.5-.4s.04 3.48 0 3.5c0 .5.1.8.2.9c.1.2.3.3.6.3c-.03-.03.4 0 .4 0v.2H57v-.2s.24-.03.2 0c.2 0 .3-.1.5-.1c.1-.1.2-.2.2-.4c.1-.1.1-.3.1-.7v-3.5h-1v-.4h1v-.3c0-.6.1-1 .2-1.4c.2-.3.5-.6.8-.8c.4-.3.8-.4 1.2-.4c.4 0 .8.1 1.1.4c.2.2.3.4.3.6c0 .1 0 .2-.1.3c-.1.1-.2.2-.3.2c-.1 0-.2-.1-.3-.1l-.4-.4c-.1-.2-.3-.4-.4-.5c-.1 0-.2-.1-.4-.1c-.1 0-.3.1-.4.2c-.1.1-.2.2-.3.4c0 .2-.1.7-.1 1.5c.04.03 0 .4 0 .4h1.4v.4h-1.4zm6.4-3.3v3.9c.4-.5.7-.8 1-.9c.2-.2.5-.2.7-.2c.3 0 .6 0 .8.2c.2.2.4.4.5.8c.1.2.1.7.1 1.3v1.9c0 .3 0 .5.1.7c0 .1.1.1.2.2c.1 0 .2.1.5.1c-.02-.03 0 .2 0 .2h-2.6v-.2s.12-.03.1 0c.3 0 .4-.1.5-.1c.1-.1.2-.2.2-.4v-3.5c-.1-.2-.2-.3-.3-.4c-.2-.1-.3-.1-.5-.1c-.2 0-.4 0-.6.1c-.2.1-.4.3-.7.6v3.5c.1 0 .2.1.3.2c.1 0 .3.1.5.1c.04-.03 0 .2 0 .2h-2.6s.03-.23 0-.2c.3 0 .4-.1.6-.1c.1-.1.1-.2.2-.3v-6.5c0-.1-.1-.2-.1-.3h-.3c-.1 0-.2 0-.4.1c.03-.05-.1-.3-.1-.3l1.6-.6h.3zm6.9 2.8c.8 0 1.4.3 1.9.9c.4.5.6 1.1.6 1.7c0 .5-.1 1-.3 1.5c-.2.5-.5.8-.9 1.1c-.4.2-.9.3-1.4.3c-.8 0-1.4-.3-1.9-.9c-.4-.5-.5-1.1-.5-1.8c0-.5.1-1 .3-1.4c.3-.5.6-.9 1-1.1c.3-.2.8-.3 1.2-.3zm.9.9c-.3-.4-.7-.6-1.1-.6c-.2 0-.4.1-.6.2c-.2.1-.4.3-.5.6c-.1.3-.2.7-.2 1.2c0 .8.2 1.4.5 2c.3.6.7.8 1.2.8c.4 0 .7-.1.9-.4c.2-.3.4-.9.4-1.6c0-.9-.2-1.7-.6-2.2zm2.1-.8h2.2s.02.23 0 .2c-.2 0-.3.1-.4.1c0 .1-.1.2-.1.3c0 .1.1.2.1.4c.02.01 1.1 3 1.1 3l1.2-2.4s-.32-.8-.3-.8c-.1-.2-.2-.4-.4-.5c-.1 0-.2-.1-.5-.1c.05.03 0-.2 0-.2h2.6s-.05.23 0 .2c-.3 0-.5.1-.6.2c-.1 0-.1.1-.1.3v.2l1.2 3l1.1-2.9c.1-.2.1-.4.1-.5c0-.1 0-.1-.1-.2c-.1 0-.2-.1-.4-.1c-.04.03 0-.2 0-.2h1.6s.02.23 0 .2c-.3.1-.6.3-.7.7L81 22.4h-.2l-1.3-3.3l-1.6 3.3h-.2S76.05 18.01 76 18c-.1-.3-.2-.5-.3-.6c-.1-.1-.3-.1-.5-.2v-.2zm13.1-2.9c.1 0 .3.1.4.2c.1.1.2.2.2.4c0 .1-.1.3-.2.4c-.1.1-.3.2-.4.2c-.2 0-.3-.1-.4-.2c-.1-.1-.2-.3-.2-.4c0-.2.1-.3.2-.4c.1-.1.2-.2.4-.2zm.5 2.8s-.04 4.19 0 4.2v.6c.1.2.1.2.2.3c.1 0 .3.1.6.1c-.04-.03 0 .2 0 .2H87v-.2c.3 0 .4-.1.5-.1c.1-.1.2-.1.2-.3c.1-.1.1-.3.1-.6v-3.2c-.1-.1-.1-.2-.2-.2c0-.1-.1-.1-.2-.1c-.1 0-.2.1-.4.1l-.1-.2l1.6-.6h.3zm2.9-1.6v1.7h1.3v.4h-1.3s.04 3.43 0 3.4c0 .4.1.6.2.7c.1.1.2.2.4.2c.1 0 .2 0 .3-.1c.1-.1.2-.2.3-.4h.2c-.1.4-.3.7-.5.9c-.3.2-.5.3-.8.3c-.2 0-.3-.1-.5-.2c-.2-.1-.3-.2-.4-.4c-.1-.2-.1-.5-.1-.8c-.01-.05 0-3.6 0-3.6h-.8s-.04-.17 0-.2c.2-.1.4-.2.6-.4c.2-.2.4-.4.6-.7l.4-.8c-.04-.02.1 0 .1 0zm6.1-1.2c.1 0 .3.1.4.2c.1.1.1.2.1.4c0 .1 0 .3-.1.4c-.1.1-.3.2-.4.2c-.2 0-.3-.1-.5-.2c-.1-.1-.1-.3-.1-.4c0-.2 0-.3.1-.4c.2-.1.3-.2.5-.2zm.4 2.8s.04 4.19 0 4.2c0 .3.1.5.1.6c.1.2.1.2.2.3c.1 0 .3.1.5.1c.03-.03 0 .2 0 .2h-2.5s-.02-.23 0-.2c.2 0 .4-.1.5-.1c.1-.1.2-.1.2-.3c.1-.1.1-.3.1-.6v-2c0-.6 0-1-.1-1.2c0-.1 0-.2-.1-.2c-.1-.1-.1-.1-.2-.1c-.1 0-.3.1-.4.1c-.02.01-.1-.2-.1-.2l1.6-.6h.2zm4.9 0v1.8s-.2-.05-.2 0c-.1-.6-.3-1-.6-1.2c-.2-.2-.5-.3-.8-.3c-.3 0-.5.1-.7.2c-.1.2-.2.3-.2.5c0 .2 0 .4.2.5c.1.2.3.4.7.5l.8.4c.8.4 1.2.9 1.2 1.5c0 .5-.2.9-.6 1.2c-.3.3-.7.4-1.2.4c-.3 0-.7 0-1.1-.1c-.1-.1-.2-.1-.3-.1c-.1 0-.1.1-.2.2c.01-.04-.2 0-.2 0v-1.9s.21-.02.2 0c.1.5.3.9.6 1.2c.3.3.7.4 1 .4c.3 0 .5-.1.7-.2c.2-.2.2-.4.2-.6c0-.3-.1-.5-.2-.7c-.2-.1-.6-.4-1.2-.6c-.5-.3-.9-.6-1-.8c-.2-.2-.3-.5-.3-.8c0-.5.1-.8.4-1.1c.3-.3.7-.4 1.2-.4c.2 0 .5 0 .7.1c.2 0 .4.1.4.1c.1 0 .1 0 .2-.1l.1-.1c0-.04.2 0 .2 0zm8.6 3.4c-.2.7-.4 1.2-.9 1.6c-.4.3-.8.5-1.3.5c-.6 0-1.1-.2-1.6-.7c-.4-.5-.7-1.2-.7-2.1c0-.8.3-1.4.8-2c.5-.5 1.1-.7 1.8-.7c.5 0 .9.1 1.2.4c.4.2.5.5.5.8c0 .2 0 .3-.1.4c-.1.1-.2.1-.4.1c-.2 0-.4-.1-.5-.2c-.1-.1-.1-.2-.1-.5c-.1-.2-.1-.4-.3-.5c-.1-.1-.3-.2-.5-.2c-.4 0-.7.2-1 .5c-.3.3-.4.8-.4 1.5c0 .6.1 1.1.4 1.6c.3.5.8.7 1.3.7c.4 0 .7-.1 1-.3c.2-.2.4-.5.6-1l.2.1zm3.3-3.4c.8 0 1.4.3 1.9.9c.4.5.6 1.1.6 1.7c0 .5-.1 1-.3 1.5c-.2.5-.5.8-.9 1.1c-.4.2-.9.3-1.4.3c-.8 0-1.4-.3-1.8-.9c-.4-.5-.6-1.1-.6-1.8c0-.5.1-1 .3-1.4c.3-.5.6-.9 1-1.1c.4-.2.8-.3 1.2-.3zm.9.9c-.3-.4-.7-.6-1.1-.6c-.2 0-.4.1-.6.2c-.2.1-.4.3-.5.6c-.1.3-.2.7-.2 1.2c0 .8.2 1.4.5 2c.3.6.7.8 1.2.8c.4 0 .7-.1.9-.4c.2-.3.4-.9.4-1.6c0-.9-.2-1.7-.6-2.2zm3.9.2c.7-.8 1.3-1.1 1.8-1.1c.3 0 .5 0 .8.2c.2.1.3.4.4.7c.1.2.2.6.2 1v2.3c0 .3 0 .5.1.7c0 .1.1.1.2.2c.1 0 .2.1.5.1c-.02-.03 0 .2 0 .2h-2.6v-.2s.08-.03.1 0c.2 0 .4-.1.5-.1c.1-.1.2-.2.2-.4v-2.7c0-.4 0-.8-.2-1c-.1-.2-.3-.3-.6-.3c-.4 0-.9.2-1.4.7v2.8c0 .3.1.6.1.6c.1.2.1.2.2.3c.1 0 .3.1.6.1v.2h-2.6v-.2s.12-.03.1 0c.3 0 .5-.1.6-.2c.1-.2.1-.4.1-.8V18c-.1-.2-.1-.3-.2-.3c0-.1-.1-.1-.2-.1c-.1 0-.2.1-.4.1l-.1-.2l1.6-.6h.2s.05 1.07 0 1.1zm6.1-1s2.24.01 2.2 0h.9c-.03-.02.2 0 .2 0c0 0 .02 4.06 0 4.1c0 .4.1.7.2.8c.1.1.3.2.7.2c-.04-.03 0 .2 0 .2h-2.7s.04-.23 0-.2c.4 0 .7-.1.8-.3c0-.1.1-.3.1-.7v-2.8c0-.4 0-.6-.1-.7c0 0-.1-.1-.2-.1c0 0-.3-.1-.8-.1c.02.04-1.3 0-1.3 0c0 0 .04 3.47 0 3.5c0 .4.1.6.1.8c0 .1.1.1.2.2c.2.1.3.2.5.2c-.05-.03.2 0 .2 0v.2H124v-.2s.23-.03.2 0c.3 0 .5-.1.6-.3c.1-.1.2-.4.2-.9v-3.5h-1v-.4h1c0-.7.1-1.2.3-1.6c.2-.4.5-.7.8-1c.4-.2.8-.3 1.3-.3c.4 0 .7.1.9.2c.3.1.5.2.6.4c.1.2.2.3.2.5c0 .1 0 .2-.1.3c-.1.1-.2.1-.3.1c-.2 0-.3 0-.4-.1c-.1 0-.2-.2-.4-.5l-.4-.4c-.1-.1-.3-.1-.4-.1c-.2 0-.4.1-.6.2c-.2.2-.3.4-.4.6c-.1.2-.2.7-.2 1.4c.04.01 0 .3 0 .3zm6.2 3.4c-.3-.2-.5-.4-.7-.7c-.2-.3-.3-.6-.3-.9c0-.6.2-1 .6-1.4c.4-.4.9-.5 1.5-.5c.5 0 1 .1 1.3.3h1.4c.1 0 .1.1.1.1v.4h-1c.2.3.3.7.3 1.1c0 .5-.2.9-.6 1.3c-.3.3-.8.5-1.5.5c-.2 0-.5-.1-.8-.1c-.1.1-.3.2-.3.3c-.1.2-.1.2-.1.3c0 .1 0 .2.1.2c.1.1.2.1.4.1c.1.1.3.1.8.1c.8 0 1.3 0 1.5.1c.4 0 .6.2.9.4c.2.2.3.4.3.8c0 .4-.2.8-.6 1.2c-.6.5-1.4.8-2.4.8c-.7 0-1.3-.2-1.8-.5c-.3-.2-.5-.4-.5-.6c0-.1 0-.2.1-.3c0-.1.2-.3.4-.6l.6-.6c-.2-.1-.4-.2-.4-.3c-.1-.1-.2-.2-.2-.3c0-.1.1-.3.2-.5c.1-.2.4-.4.7-.7zm1.8-2.9c-.2-.2-.4-.4-.8-.4c-.2 0-.5.1-.7.4c-.2.2-.3.5-.3 1c0 .6.2 1.1.4 1.4c.2.3.5.4.8.4c.3 0 .5-.1.7-.3c.2-.2.3-.6.3-1.1c0-.6-.1-1-.4-1.4zm.2 4.9c-.9 0-1.5-.1-2-.1c-.2.2-.3.4-.4.5c-.1.2-.2.3-.2.5c0 .2.2.3.4.5c.4.2.9.3 1.6.3c.7 0 1.2-.1 1.6-.3c.3-.3.5-.5.5-.8c0-.2-.1-.4-.3-.4c-.2-.1-.6-.2-1.2-.2zm7.1-5.4s.03 3.2 0 3.2c0 .6 0 1 .1 1.1c0 .2.1.2.1.3c.1.1.2.1.2.1c.2 0 .3 0 .4-.1c.04-.01.1.2.1.2l-1.6.6h-.2s-.01-1.08 0-1.1c-.5.5-.8.8-1 .9c-.3.2-.5.2-.8.2c-.3 0-.6 0-.8-.2c-.2-.2-.3-.4-.4-.7c-.1-.2-.1-.6-.1-1.1V18c0-.2-.1-.4-.1-.5c-.1-.1-.2-.2-.3-.2c-.1-.1-.3-.1-.5-.1c-.04.03 0-.2 0-.2h1.8v3.5c0 .5.1.8.3 1c.1.2.3.2.6.2c.1 0 .3 0 .5-.1c.3-.1.5-.3.8-.6v-3c0-.3-.1-.5-.2-.6c-.1-.1-.3-.2-.7-.2c.04.03 0-.2 0-.2h1.8zm2.8-.1s.04 1.14 0 1.1c.5-.7.9-1.1 1.4-1.1c.2 0 .4 0 .5.2c.2.1.2.2.2.4c0 .1 0 .3-.1.4c-.1.1-.2.1-.4.1c-.1 0-.3 0-.4-.2c-.2-.1-.3-.2-.4-.2c-.1 0-.1.1-.2.1c-.2.2-.4.5-.6.8v2.5c0 .3.1.6.2.7c0 .1.1.2.2.3c.1 0 .3.1.6.1c-.04-.03 0 .2 0 .2h-2.7s-.03-.23 0-.2c.2 0 .4-.1.6-.2c.1 0 .1-.1.2-.3V18c-.1-.2-.1-.2-.2-.3c0-.1-.1-.1-.2-.1c-.1 0-.3.1-.4.1c-.03.01-.1-.2-.1-.2l1.6-.6h.2zm3.3 2.1c0 .8.2 1.4.6 1.8c.4.5.8.7 1.3.7c.4 0 .7-.1.9-.3c.3-.2.5-.5.7-1l.1.2c0 .5-.3 1-.7 1.4c-.3.4-.8.6-1.4.6c-.6 0-1.2-.2-1.6-.7c-.5-.5-.7-1.2-.7-2c0-.9.2-1.6.7-2.1c.4-.5 1-.7 1.7-.7c.6 0 1.1.1 1.5.5c.4.4.5.9.5 1.6h-3.6zm0-.3h2.4c0-.4 0-.6-.1-.8c-.1-.2-.2-.3-.4-.5c-.2-.1-.4-.1-.6-.1c-.3 0-.6.1-.9.3c-.2.3-.4.6-.4 1.1zm8.1 3c-.3.3-.5.4-.8.6c-.2.1-.5.1-.8.1c-.6 0-1.1-.2-1.5-.7c-.4-.5-.6-1.1-.6-1.8c0-.8.2-1.5.7-2.1c.5-.6 1.1-.9 1.8-.9c.5 0 .9.1 1.2.4v-1c0-.6-.1-.9-.1-1.1c0-.1-.1-.2-.1-.3h-.2c-.1 0-.3 0-.4.1c-.04-.05-.1-.3-.1-.3l1.5-.6h.3s.01 6.09 0 6.1c0 .6 0 1 .1 1.1c0 .2 0 .2.1.3c.1.1.1.1.2.1c.1 0 .3 0 .4-.1c.02-.01.1.2.1.2l-1.6.6h-.2s-.04-.72 0-.7zm-1.1.1c.4 0 .7-.2 1.1-.5v-2.7c-.1-.3-.1-.5-.2-.7c-.2-.3-.3-.4-.5-.5c-.2-.1-.4-.2-.6-.2c-.3 0-.6.2-.9.5c-.3.4-.5.9-.5 1.7c0 .8.2 1.4.5 1.8c.4.4.7.6 1.1.6zm9.1-.3c-.5.4-.8.7-1 .7c-.2.1-.4.2-.6.2c-.4 0-.7-.1-.9-.4c-.3-.2-.4-.6-.4-1c0-.2.1-.5.2-.6c.1-.3.4-.5.8-.8c.4-.2 1-.5 1.9-.8v-.2c0-.5 0-.9-.2-1.1c-.2-.2-.4-.3-.7-.3c-.3 0-.5.1-.6.2c-.1.1-.2.3-.2.5v.3c0 .2-.1.3-.1.4c-.1.1-.3.1-.4.1c-.1 0-.3 0-.3-.1c-.1-.1-.2-.2-.2-.4c0-.4.2-.7.5-.9c.4-.3.8-.4 1.4-.4c.5 0 .9 0 1.2.2c.2.1.4.3.5.6c.1.1.1.5.1 1v2.7c0 .1.1.2.1.2c.1 0 .1.1.2.1l.1-.1c.1 0 .3-.2.5-.4v.3c-.4.6-.8.9-1.2.9c-.2 0-.4-.1-.5-.2c-.1-.1-.1-.4-.2-.7zm-1.1.2c.3 0 .7-.2 1.1-.6v-2c-.5.3-.9.4-1.1.5c-.3.2-.5.4-.6.6c-.2.1-.2.3-.2.6c0 .2.1.5.2.6c.2.2.4.3.6.3zm6.8-4.8v1.8s-.2-.05-.2 0c-.1-.6-.3-1-.6-1.2c-.2-.2-.5-.3-.8-.3c-.3 0-.5.1-.7.2c-.1.2-.2.3-.2.5c0 .2 0 .4.2.5c.1.2.3.4.7.5l.8.4c.8.4 1.2.9 1.2 1.5c0 .5-.2.9-.6 1.2c-.3.3-.7.4-1.2.4c-.3 0-.7 0-1.1-.1c-.1-.1-.2-.1-.3-.1c-.1 0-.1.1-.2.2c.01-.04-.2 0-.2 0v-1.9s.21-.02.2 0c.1.5.3.9.6 1.2c.3.3.7.4 1 .4c.3 0 .5-.1.7-.2c.2-.2.2-.4.2-.6c0-.3-.1-.5-.2-.7c-.2-.1-.6-.4-1.2-.6c-.5-.3-.9-.6-1-.8c-.2-.2-.3-.5-.3-.8c0-.5.1-.8.4-1.1c.3-.3.7-.4 1.2-.4c.2 0 .4 0 .7.1c.2 0 .4.1.4.1c.1 0 .1 0 .2-.1l.1-.1c0-.04.2 0 .2 0zm5.6-1.6v1.7h1.3v.4h-1.3s.04 3.43 0 3.4c0 .4.1.6.2.7c.1.1.2.2.4.2c.1 0 .2 0 .3-.1c.1-.1.2-.2.3-.4h.2c-.1.4-.3.7-.5.9c-.3.2-.5.3-.8.3c-.2 0-.3-.1-.5-.2c-.2-.1-.3-.2-.4-.4c-.1-.2-.1-.5-.1-.8c-.01-.05 0-3.6 0-3.6h-.8s-.05-.17 0-.2c.2-.1.4-.2.6-.4c.2-.2.4-.4.6-.7l.4-.8c-.04-.02.1 0 .1 0zm3.3-1.2s.02 3.85 0 3.9c.4-.5.8-.8 1-.9c.3-.2.5-.2.8-.2c.3 0 .5 0 .7.2c.3.2.4.4.5.8c.1.2.1.7.1 1.3v1.9c0 .3.1.5.1.7l.2.2c.1 0 .3.1.5.1c.02-.03 0 .2 0 .2h-2.6v-.2s.15-.03.2 0c.2 0 .4-.1.5-.1c.1-.1.1-.2.2-.4v-2.4c0-.5 0-.9-.1-1.1c-.1-.2-.2-.3-.3-.4c-.1-.1-.3-.1-.5-.1c-.2 0-.3 0-.5.1c-.3.1-.5.3-.8.6v2.8c0 .3 0 .6.1.7l.2.2c.1 0 .3.1.6.1c-.03-.03 0 .2 0 .2h-2.6s-.04-.23 0-.2c.2 0 .4-.1.5-.1c.1-.1.2-.2.2-.3c0-.1.1-.3.1-.6v-4.8c0-.6 0-.9-.1-1.1c0-.1 0-.2-.1-.3h-.2c-.1 0-.3 0-.4.1c-.04-.05-.1-.3-.1-.3l1.6-.6h.2zm5.2 4.9c0 .8.2 1.4.6 1.8c.4.5.8.7 1.4.7c.3 0 .6-.1.9-.3c.2-.2.4-.5.6-1l.2.2c-.1.5-.3 1-.7 1.4c-.4.4-.9.6-1.5.6c-.6 0-1.1-.2-1.6-.7c-.4-.5-.7-1.2-.7-2c0-.9.3-1.6.7-2.1c.5-.5 1.1-.7 1.8-.7c.5 0 1 .1 1.4.5c.4.4.6.9.6 1.6h-3.7zm0-.3h2.5c0-.4-.1-.6-.1-.8c-.1-.2-.3-.3-.5-.5c-.2-.1-.4-.1-.6-.1c-.3 0-.6.1-.8.3c-.3.3-.4.6-.5 1.1zm10.7-1.8v1.8s-.17-.05-.2 0c-.1-.6-.3-1-.5-1.2c-.3-.2-.5-.3-.9-.3c-.3 0-.5.1-.6.2c-.2.2-.3.3-.3.5c0 .2.1.4.2.5c.1.2.4.4.7.5l.9.4c.7.4 1.1.9 1.1 1.5c0 .5-.2.9-.5 1.2c-.4.3-.8.4-1.2.4c-.4 0-.7 0-1.1-.1c-.2-.1-.3-.1-.4-.1l-.2.2c.04-.04-.1 0-.1 0v-1.9s.14-.02.1 0c.1.5.4.9.7 1.2c.3.3.6.4 1 .4c.2 0 .5-.1.6-.2c.2-.2.3-.4.3-.6c0-.3-.1-.5-.3-.7c-.2-.1-.6-.4-1.1-.6c-.6-.3-.9-.6-1.1-.8c-.2-.2-.3-.5-.3-.8c0-.5.2-.8.5-1.1c.3-.3.7-.4 1.1-.4c.2 0 .5 0 .8.1c.2 0 .3.1.4.1c0 0 .1 0 .1-.1l.1-.1c.03-.04.2 0 .2 0zm5.7 3.4c-.2.7-.5 1.2-.9 1.6c-.4.3-.8.5-1.3.5c-.6 0-1.2-.2-1.6-.7c-.4-.5-.7-1.2-.7-2.1c0-.8.3-1.4.8-2c.5-.5 1.1-.7 1.7-.7c.6 0 1 .1 1.3.4c.4.2.5.5.5.8c0 .2 0 .3-.1.4c-.1.1-.2.1-.4.1c-.2 0-.4-.1-.5-.2c-.1-.1-.1-.2-.2-.5c0-.2-.1-.4-.2-.5c-.1-.1-.3-.2-.5-.2c-.4 0-.7.2-1 .5c-.3.3-.4.8-.4 1.5c0 .6.1 1.1.4 1.6c.3.5.8.7 1.3.7c.4 0 .7-.1 1-.3c.2-.2.4-.5.6-1l.2.1zm5.3-3.3s.03 3.2 0 3.2c0 .6 0 1 .1 1.1c0 .2.1.2.1.3c.1.1.2.1.2.1c.2 0 .3 0 .4-.1c.04-.01.1.2.1.2l-1.6.6h-.2s-.01-1.08 0-1.1c-.5.5-.8.8-1 .9c-.3.2-.5.2-.8.2c-.3 0-.6 0-.8-.2c-.2-.2-.3-.4-.4-.7c-.1-.2-.1-.6-.1-1.1V18c0-.2-.1-.4-.1-.5c-.1-.1-.2-.2-.3-.2c-.1-.1-.3-.1-.5-.1c-.03.03 0-.2 0-.2h1.8v3.5c0 .5.1.8.3 1c.1.2.3.2.6.2c.1 0 .3 0 .5-.1c.3-.1.5-.3.8-.6v-3c0-.3-.1-.5-.2-.6c-.1-.1-.3-.2-.7-.2c.04.03 0-.2 0-.2h1.8zm3.1-2.9v7c0 .3 0 .5.1.6c0 .1.1.2.2.3c.1 0 .3.1.6.1c-.04-.03 0 .2 0 .2h-2.6s-.02-.23 0-.2c.2 0 .4-.1.5-.1c.1-.1.1-.1.2-.3c0-.1.1-.3.1-.6v-4.8c0-.6-.1-1-.1-1.1c0-.1-.1-.2-.1-.3h-.2c-.1 0-.3 0-.4.1l-.1-.3l1.6-.6h.2zm1.1 3.4l1.6-.6h.2s.03 1.21 0 1.2c.3-.5.6-.8.9-1c.2-.1.5-.2.8-.2c.5 0 1 .2 1.3.6c.5.5.7 1.1.7 2c0 .9-.3 1.6-.8 2.2c-.4.5-1 .7-1.6.7c-.3 0-.5 0-.8-.1c-.1 0-.3-.2-.5-.3v1.6c0 .3.1.6.1.7c0 .1.1.1.2.2c.1 0 .3.1.6.1c.02-.02 0 .2 0 .2h-2.7v-.2s.11-.02.1 0c.2 0 .4-.1.5-.1l.2-.2c.1-.1.1-.4.1-.8v-4.9c0-.4 0-.6-.1-.7c0-.1 0-.1-.1-.2c-.1 0-.2-.1-.3-.1c-.1 0-.2.1-.3.1c-.04.02-.1-.2-.1-.2zm2.5.3c-.1.1-.4.3-.7.6v2c0 .4 0 .7.1.9c0 .2.2.4.4.5c.2.2.4.3.8.3c.3 0 .7-.2.9-.5c.3-.3.5-.9.5-1.6c0-.8-.2-1.4-.6-1.9c-.2-.3-.5-.4-.8-.4c-.2 0-.4 0-.6.1zm5.3-2.5v1.7h1.2v.4h-1.2s-.02 3.43 0 3.4c0 .4 0 .6.1.7c.1.1.3.2.4.2c.1 0 .3 0 .4-.1c.1-.1.2-.2.2-.4h.3c-.2.4-.4.7-.6.9c-.2.2-.5.3-.8.3c-.1 0-.3-.1-.5-.2c-.1-.1-.3-.2-.3-.4c-.1-.2-.2-.5-.2-.8c.04-.05 0-3.6 0-3.6h-.8v-.2c.2-.1.4-.2.6-.4c.3-.2.5-.4.6-.7l.4-.8c0-.02.2 0 .2 0zm6.3 1.7s.04 3.2 0 3.2c0 .6.1 1 .1 1.1c0 .2.1.2.1.3c.1.1.2.1.2.1c.2 0 .3 0 .4-.1c.04-.01.1.2.1.2l-1.6.6h-.2s-.01-1.08 0-1.1c-.5.5-.8.8-1 .9c-.3.2-.5.2-.8.2c-.3 0-.5 0-.8-.2c-.2-.2-.3-.4-.4-.7c-.1-.2-.1-.6-.1-1.1V18c0-.2-.1-.4-.1-.5c-.1-.1-.2-.2-.3-.2c-.1-.1-.3-.1-.5-.1c-.03.03 0-.2 0-.2h1.8v3.5c0 .5.1.8.3 1c.1.2.3.2.6.2c.1 0 .3 0 .5-.1c.3-.1.5-.3.8-.6v-3c0-.3-.1-.5-.2-.6c-.1-.1-.3-.2-.7-.2c.04.03 0-.2 0-.2h1.8zm2.8-.1s.05 1.14 0 1.1c.5-.7.9-1.1 1.4-1.1c.2 0 .4 0 .5.2c.2.1.2.2.2.4c0 .1 0 .3-.1.4c-.1.1-.2.1-.4.1c-.1 0-.3 0-.4-.2c-.2-.1-.3-.2-.4-.2c-.1 0-.1.1-.2.1c-.2.2-.4.5-.6.8v2.5c0 .3.1.6.2.7c0 .1.1.2.2.3c.1 0 .3.1.6.1c-.04-.03 0 .2 0 .2h-2.7s-.03-.23 0-.2c.2 0 .4-.1.6-.2c.1 0 .1-.1.2-.3V18c-.1-.2-.1-.2-.2-.3c0-.1-.1-.1-.2-.1c-.1 0-.3.1-.4.1c-.03.01-.1-.2-.1-.2l1.6-.6h.2zm3.3 2.1c0 .8.2 1.4.6 1.8c.4.5.8.7 1.3.7c.4 0 .7-.1.9-.3c.3-.2.5-.5.7-1l.1.2c0 .5-.3 1-.7 1.4c-.3.4-.8.6-1.4.6c-.6 0-1.2-.2-1.6-.7c-.5-.5-.7-1.2-.7-2c0-.9.2-1.6.7-2.1c.4-.5 1-.7 1.7-.7c.6 0 1.1.1 1.5.5c.4.4.5.9.5 1.6h-3.6zm0-.3h2.4c0-.4 0-.6-.1-.8c-.1-.2-.2-.3-.4-.5c-.2-.1-.4-.1-.6-.1c-.3 0-.6.1-.9.3c-.2.3-.3.6-.4 1.1zm7.7-1.8v1.8s-.14-.05-.1 0c-.2-.6-.4-1-.6-1.2c-.2-.2-.5-.3-.9-.3c-.2 0-.5.1-.6.2c-.2.2-.3.3-.3.5c0 .2.1.4.2.5c.1.2.4.4.7.5l.9.4c.8.4 1.1.9 1.1 1.5c0 .5-.1.9-.5 1.2c-.4.3-.8.4-1.2.4c-.3 0-.7 0-1.1-.1c-.1-.1-.2-.1-.3-.1c-.1 0-.2.1-.2.2c-.04-.04-.2 0-.2 0v-1.9s.16-.02.2 0c.1.5.3.9.6 1.2c.3.3.6.4 1 .4c.3 0 .5-.1.6-.2c.2-.2.3-.4.3-.6c0-.3-.1-.5-.3-.7c-.2-.1-.5-.4-1.1-.6c-.6-.3-.9-.6-1.1-.8c-.2-.2-.2-.5-.2-.8c0-.5.1-.8.4-1.1c.3-.3.7-.4 1.1-.4c.3 0 .5 0 .8.1c.2 0 .3.1.4.1c.1 0 .1 0 .1-.1c.1 0 .1-.1.2-.1c-.04-.04.1 0 .1 0zm5.7 1.1l.7-.7l.6-.3c.2-.1.4-.1.6-.1c.3 0 .6.1.8.2c.2.2.4.5.5.9c.4-.5.7-.8 1-.9c.3-.2.5-.2.8-.2c.3 0 .5 0 .8.2c.2.1.4.4.5.7c.1.2.1.5.1 1v2.3c0 .3 0 .5.1.7l.2.2c.1 0 .3.1.5.1v.2h-2.6v-.2s.11-.03.1 0c.2 0 .4-.1.5-.2c.1 0 .2-.1.2-.3c0 0 .1-.2.1-.5v-2.3c0-.4-.1-.7-.2-.9c-.2-.2-.4-.4-.7-.4c-.2 0-.4.1-.6.2c-.2.1-.5.3-.8.6c.02-.03 0 0 0 0v.3s.02 2.49 0 2.5c0 .3 0 .6.1.7l.2.2c.1 0 .3.1.6.1c-.02-.03 0 .2 0 .2h-2.7s.02-.23 0-.2c.3 0 .5-.1.6-.1c.1-.1.2-.2.2-.3c.1-.1.1-.3.1-.6v-2.3c0-.4-.1-.7-.2-.9c-.2-.2-.4-.4-.7-.4c-.2 0-.4.1-.6.2c-.4.2-.6.4-.8.6v2.8c0 .3.1.6.1.7c0 .1.1.1.2.2c.1 0 .3.1.6.1c-.02-.03 0 .2 0 .2H241s-.02-.23 0-.2c.2 0 .4-.1.5-.1c.1-.1.2-.1.2-.3c.1-.1.1-.3.1-.6v-2c0-.6 0-1-.1-1.1c0-.2 0-.3-.1-.3c-.1-.1-.1-.1-.2-.1c-.1 0-.3.1-.4.1c-.02.01-.1-.2-.1-.2l1.6-.6h.2s.03 1.08 0 1.1zm10.2-1.1c.8 0 1.4.3 1.9.9c.4.5.6 1.1.6 1.7c0 .5-.1 1-.3 1.5c-.2.5-.6.8-.9 1.1c-.4.2-.9.3-1.4.3c-.8 0-1.4-.3-1.9-.9c-.4-.5-.6-1.1-.6-1.8c0-.5.2-1 .4-1.4c.2-.5.6-.9.9-1.1c.4-.2.9-.3 1.3-.3zm.9.9c-.3-.4-.7-.6-1.1-.6c-.2 0-.4.1-.6.2c-.2.1-.4.3-.5.6c-.1.3-.2.7-.2 1.2c0 .8.2 1.4.5 2c.3.6.7.8 1.2.8c.3 0 .7-.1.9-.4c.2-.3.4-.9.4-1.6c0-.9-.2-1.7-.6-2.2zm2.1-.8h2.5v.2s-.16.03-.2 0c-.1 0-.2.1-.3.1c-.1.1-.1.2-.1.3c0 .2 0 .3.1.5l1.2 2.9s1.26-3 1.3-3c0-.2.1-.4.1-.5c0 0 0-.1-.1-.1c0-.1-.1-.1-.1-.1c-.1-.1-.2-.1-.4-.1v-.2h1.7v.2c-.2 0-.3.1-.4.1c-.1.2-.3.4-.4.6c.03.02-1.8 4.5-1.8 4.5h-.3s-1.85-4.4-1.9-4.4c0-.2-.1-.4-.2-.5c-.1 0-.2-.1-.3-.2c-.1 0-.2 0-.4-.1c.03.03 0-.2 0-.2zm7.1 2c0 .8.2 1.4.5 1.8c.4.5.9.7 1.4.7c.3 0 .6-.1.9-.3c.2-.2.5-.5.6-1l.2.2c-.1.5-.3 1-.7 1.4c-.4.4-.9.6-1.5.6c-.6 0-1.1-.2-1.6-.7c-.4-.5-.7-1.2-.7-2c0-.9.3-1.6.7-2.1c.5-.5 1.1-.7 1.8-.7c.6 0 1.1.1 1.4.5c.4.4.6.9.6 1.6H263zm0-.3h2.4c0-.4-.1-.6-.1-.8c-.1-.2-.3-.3-.4-.5c-.2-.1-.4-.1-.6-.1c-.4 0-.6.1-.9.3c-.2.3-.4.6-.4 1.1zm8.6-4.6c.1 0 .3.1.4.2c.1.1.2.2.2.4c0 .1-.1.3-.2.4c-.1.1-.3.2-.4.2c-.2 0-.3-.1-.4-.2c-.1-.1-.2-.3-.2-.4c0-.2.1-.3.2-.4c.1-.1.2-.2.4-.2zm.5 2.8s-.04 4.19 0 4.2v.6c.1.2.1.2.2.3c.1 0 .3.1.6.1c-.04-.03 0 .2 0 .2h-2.6v-.2c.3 0 .4-.1.5-.1c.1-.1.2-.1.2-.3c.1-.1.1-.3.1-.6v-3.2c-.1-.1-.1-.2-.2-.2c0-.1-.1-.1-.2-.1c-.1 0-.2.1-.4.1l-.1-.2l1.6-.6h.3zM275 18c.7-.8 1.3-1.1 1.8-1.1c.3 0 .5 0 .8.2c.2.1.3.4.4.7c.1.2.2.6.2 1v2.3c0 .3 0 .5.1.7c0 .1.1.1.2.2c0 0 .2.1.5.1c-.02-.03 0 .2 0 .2h-2.6v-.2s.08-.03.1 0c.2 0 .4-.1.5-.1c.1-.1.2-.2.2-.4v-2.7c0-.4 0-.8-.2-1c-.1-.2-.3-.3-.6-.3c-.4 0-.9.2-1.4.7v2.8c0 .3.1.6.1.6c.1.2.1.2.2.3c.1 0 .3.1.6.1v.2h-2.6v-.2s.11-.03.1 0c.3 0 .5-.1.6-.2c.1-.2.1-.4.1-.8V18c-.1-.2-.1-.3-.2-.3c0-.1-.1-.1-.2-.1c-.1 0-.3.1-.4.1l-.1-.2l1.6-.6h.2s.05 1.07 0 1.1zm10.3 3.5c-.5.4-.9.7-1 .7c-.2.1-.4.2-.7.2c-.3 0-.6-.1-.9-.4c-.2-.2-.3-.6-.3-1c0-.2 0-.5.2-.6c.1-.3.4-.5.8-.8c.4-.2 1-.5 1.9-.8v-.2c0-.5-.1-.9-.2-1.1c-.2-.2-.4-.3-.8-.3c-.2 0-.4.1-.5.2c-.2.1-.3.3-.3.5l.1.3c0 .2-.1.3-.2.4c-.1.1-.2.1-.3.1c-.2 0-.3 0-.4-.1c-.1-.1-.1-.2-.1-.4c0-.4.2-.7.5-.9c.3-.3.8-.4 1.4-.4c.5 0 .9 0 1.2.2c.2.1.4.3.5.6c0 .1.1.5.1 1v2.7c0 .1 0 .2.1.2l.1.1c.1 0 .2-.1.2-.1c.1 0 .2-.2.5-.4v.3c-.5.6-.9.9-1.3.9c-.2 0-.3-.1-.4-.2c-.1-.1-.2-.4-.2-.7zm-1.1.2c.3 0 .6-.2 1.1-.6v-2c-.6.3-.9.4-1.1.5c-.3.2-.5.4-.7.6c-.1.1-.1.3-.1.6c0 .2 0 .5.2.6c.2.2.4.3.6.3zm4.9-3.7c.6-.8 1.2-1.1 1.8-1.1c.2 0 .5 0 .7.2c.2.1.4.4.5.7c.1.2.1.6.1 1v2.3c0 .3 0 .5.1.7c0 .1.1.1.2.2c.1 0 .3.1.5.1c.02-.03 0 .2 0 .2h-2.6v-.2s.13-.03.1 0c.3 0 .4-.1.5-.1c.1-.1.2-.2.2-.4c.1 0 .1-.2.1-.5v-2.2c0-.4-.1-.8-.2-1c-.1-.2-.4-.3-.6-.3c-.5 0-1 .2-1.4.7v2.8c0 .3 0 .6.1.6c0 .2.1.2.2.3c.1 0 .3.1.5.1c.05-.03 0 .2 0 .2h-2.6v-.2s.16-.03.2 0c.2 0 .4-.1.5-.2c.1-.2.1-.4.1-.8V18c0-.2-.1-.3-.1-.3c-.1-.1-.2-.1-.3-.1c-.1 0-.2.1-.4.1c.04.01 0-.2 0-.2l1.5-.6h.3s-.01 1.07 0 1.1zm8.1 3.7c-.3.3-.6.4-.8.6c-.2.1-.5.1-.8.1c-.6 0-1.1-.2-1.5-.7c-.4-.5-.6-1.1-.6-1.8c0-.8.2-1.5.7-2.1c.4-.6 1.1-.9 1.8-.9c.5 0 .9.1 1.2.4v-1c0-.6-.1-.9-.1-1.1c0-.1-.1-.2-.1-.3h-.3c-.1 0-.2 0-.3.1c-.05-.05-.1-.3-.1-.3l1.5-.6h.3v7.2c.1.2.1.2.2.3c0 .1.1.1.2.1c.1 0 .2 0 .4-.1c.02-.01.1.2.1.2l-1.6.6h-.2s-.04-.72 0-.7zm-1.1.1c.4 0 .7-.2 1.1-.5v-2.7c-.1-.3-.1-.5-.3-.7c-.1-.3-.2-.4-.4-.5c-.2-.1-.4-.2-.6-.2c-.3 0-.6.2-.9.5c-.3.4-.5.9-.5 1.7c0 .8.2 1.4.5 1.8c.4.4.7.6 1.1.6zm8.7-4.9c.8 0 1.5.3 2 .9c.4.5.6 1.1.6 1.7c0 .5-.1 1-.4 1.5c-.2.5-.5.8-.9 1.1c-.4.2-.8.3-1.3.3c-.8 0-1.4-.3-1.9-.9c-.4-.5-.6-1.1-.6-1.8c0-.5.1-1 .4-1.4c.2-.5.5-.9.9-1.1c.4-.2.8-.3 1.2-.3zm.9.9c-.3-.4-.6-.6-1-.6c-.2 0-.4.1-.7.2c-.2.1-.3.3-.4.6c-.2.3-.2.7-.2 1.2c0 .8.1 1.4.4 2c.3.6.7.8 1.2.8c.4 0 .7-.1.9-.4c.3-.3.4-.9.4-1.6c0-.9-.2-1.7-.6-2.2zm7.1-.8s-.04 3.2 0 3.2v1.1c0 .2.1.2.1.3c.1.1.2.1.3.1c.1 0 .2 0 .4-.1c-.04-.01 0 .2 0 .2l-1.5.6h-.3s.01-1.08 0-1.1c-.4.5-.8.8-1 .9c-.3.2-.5.2-.8.2c-.3 0-.5 0-.7-.2c-.3-.2-.4-.4-.5-.7c-.1-.2-.1-.6-.1-1.1V18c0-.2 0-.4-.1-.5c-.1-.1-.1-.2-.2-.2c-.1-.1-.3-.1-.6-.1v-.2h1.8s.03 3.53 0 3.5c0 .5.1.8.3 1c.2.2.4.2.6.2c.2 0 .4 0 .6-.1c.2-.1.4-.3.7-.6v-3c0-.3 0-.5-.2-.6c-.1-.1-.3-.2-.6-.2c-.03.03 0-.2 0-.2h1.8zm2.8-1.7v1.7h1.2v.4h-1.2s-.04 3.43 0 3.4c0 .4 0 .6.1.7c.1.1.2.2.4.2c.1 0 .2 0 .3-.1c.2-.1.3-.2.3-.4h.2c-.1.4-.3.7-.5.9c-.3.2-.5.3-.8.3c-.2 0-.3-.1-.5-.2c-.2-.1-.3-.2-.4-.4c-.1-.2-.1-.5-.1-.8c.01-.05 0-3.6 0-3.6h-.8s-.02-.17 0-.2c.2-.1.4-.2.6-.4c.2-.2.4-.4.6-.7l.4-.8c-.02-.02.2 0 .2 0zm7.2 1.6c.8 0 1.4.3 1.9.9c.4.5.6 1.1.6 1.7c0 .5-.1 1-.3 1.5c-.2.5-.5.8-.9 1.1c-.4.2-.9.3-1.4.3c-.7 0-1.4-.3-1.8-.9c-.4-.5-.6-1.1-.6-1.8c0-.5.1-1 .3-1.4c.3-.5.6-.9 1-1.1c.4-.2.8-.3 1.2-.3zm.9.9c-.3-.4-.6-.6-1.1-.6c-.2 0-.4.1-.6.2c-.2.1-.3.3-.5.6c-.1.3-.2.7-.2 1.2c0 .8.2 1.4.5 2c.3.6.7.8 1.2.8c.4 0 .7-.1.9-.4c.3-.3.4-.9.4-1.6c0-.9-.2-1.7-.6-2.2zm4.5-.4s-.02 3.48 0 3.5c0 .5 0 .8.1.9c.2.2.4.3.6.3c.01-.03.5 0 .5 0v.2h-3.2v-.2s.28-.03.3 0c.1 0 .3-.1.4-.1c.1-.1.2-.2.3-.4v-.7c.03-.02 0-3.5 0-3.5h-1v-.4h1s.03-.33 0-.3c0-.6.1-1 .3-1.4c.2-.3.4-.6.8-.8c.3-.3.7-.4 1.1-.4c.4 0 .8.1 1.1.4c.3.2.4.4.4.6c0 .1-.1.2-.2.3c-.1.1-.2.2-.3.2c-.1 0-.2-.1-.3-.1c-.1-.1-.2-.2-.3-.4c-.2-.2-.3-.4-.4-.5c-.2 0-.3-.1-.4-.1c-.2 0-.4.1-.5.2c-.1.1-.2.2-.2.4c-.1.2-.1.7-.1 1.5c-.02.03 0 .4 0 .4h1.3v.4h-1.3zm8.2-.5v1.8s-.21-.05-.2 0c-.2-.6-.3-1-.6-1.2c-.2-.2-.5-.3-.8-.3c-.3 0-.5.1-.7.2c-.2.2-.2.3-.2.5c0 .2 0 .4.1.5c.2.2.4.4.8.5l.8.4c.8.4 1.2.9 1.2 1.5c0 .5-.2.9-.6 1.2c-.3.3-.7.4-1.2.4c-.3 0-.7 0-1.1-.1c-.1-.1-.2-.1-.3-.1c-.1 0-.2.1-.2.2c0-.04-.2 0-.2 0v-1.9s.2-.02.2 0c.1.5.3.9.6 1.2c.3.3.7.4 1 .4c.3 0 .5-.1.7-.2c.1-.2.2-.4.2-.6c0-.3-.1-.5-.3-.7c-.1-.1-.5-.4-1.1-.6c-.5-.3-.9-.6-1.1-.8c-.1-.2-.2-.5-.2-.8c0-.5.1-.8.4-1.1c.3-.3.7-.4 1.2-.4c.2 0 .4 0 .7.1c.2 0 .4.1.4.1c.1 0 .1 0 .2-.1s0-.1.1-.1c-.01-.04.2 0 .2 0zm.9.1h2.4v.2s-.11.03-.1 0c-.2 0-.3.1-.4.1c-.1.1-.1.2-.1.3c0 .2 0 .4.2.6c-.04.04 1.2 2.7 1.2 2.7c0 0 1.22-2.92 1.2-2.9c.1-.2.1-.3.1-.5v-.1c-.1-.1-.1-.1-.2-.1c0-.1-.1-.1-.3-.1v-.2h1.7v.2c-.1 0-.2.1-.3.1c-.1.1-.2.1-.3.3l-.2.4l-2.1 5.3c-.2.5-.5.9-.8 1.1c-.4.3-.7.4-1 .4c-.2 0-.4-.1-.6-.2c-.1-.1-.2-.3-.2-.4c0-.2.1-.3.2-.4c.1-.1.2-.2.4-.2c.1 0 .3.1.5.2h.3c.1 0 .3 0 .4-.1c.1-.1.3-.4.4-.7l.4-.9l-1.9-4c-.1-.1-.2-.3-.3-.4c-.1-.2-.2-.3-.2-.3c-.1-.1-.2-.1-.4-.2c-.04.03 0-.2 0-.2zm7.7 1c.6-.8 1.2-1.1 1.7-1.1c.3 0 .6 0 .8.2c.2.1.3.4.5.7c.1.2.1.6.1 1v2.3c0 .3 0 .5.1.7c0 .1.1.1.2.2c.1 0 .3.1.5.1v.2h-2.6v-.2s.11-.03.1 0c.3 0 .4-.1.5-.1c.1-.1.2-.2.2-.4c0 0 .1-.2.1-.5v-2.2c0-.4-.1-.8-.2-1c-.2-.2-.4-.3-.7-.3c-.4 0-.9.2-1.3.7v3.4c.1.2.2.2.3.3c.1 0 .2.1.5.1c.03-.03 0 .2 0 .2h-2.6v-.2s.14-.03.1 0c.3 0 .5-.1.6-.2c.1-.2.1-.4.1-.8V18c0-.2-.1-.3-.1-.3c-.1-.1-.2-.1-.3-.1c-.1 0-.2.1-.4.1c.03.01-.1-.2-.1-.2l1.6-.6h.3s-.03 1.07 0 1.1zm8.8 2.3c-.2.7-.4 1.2-.8 1.6c-.5.3-.9.5-1.4.5c-.6 0-1.1-.2-1.6-.7c-.4-.5-.6-1.2-.6-2.1c0-.8.2-1.4.7-2c.5-.5 1.1-.7 1.8-.7c.5 0 .9.1 1.2.4c.4.2.5.5.5.8c0 .2 0 .3-.1.4c-.1.1-.2.1-.4.1c-.2 0-.4-.1-.5-.2c-.1-.1-.1-.2-.1-.5c-.1-.2-.1-.4-.3-.5c-.1-.1-.3-.2-.5-.2c-.4 0-.7.2-.9.5c-.4.3-.5.8-.5 1.5c0 .6.1 1.1.4 1.6c.4.5.8.7 1.3.7c.4 0 .7-.1 1-.3c.2-.2.4-.5.6-1l.2.1zm3.4-3.3h2.2v.2c-.2 0-.3.1-.4.1c-.1.1-.1.2-.1.3c0 .1 0 .2.1.4l1.1 3l1.2-2.4s-.34-.8-.3-.8c-.1-.2-.3-.4-.4-.5c-.1 0-.2-.1-.5-.1c.03.03 0-.2 0-.2h2.5s.03.23 0 .2c-.2 0-.4.1-.6.2c0 0-.1.1-.1.3c0 0 0 .1.1.2c-.02 0 1.2 3 1.2 3c0 0 1.08-2.89 1.1-2.9c.1-.2.1-.4.1-.5c0-.1 0-.1-.1-.2c-.1 0-.2-.1-.5-.1c.04.03 0-.2 0-.2h1.7v.2c-.3.1-.6.3-.7.7c-.03 0-1.8 4.5-1.8 4.5h-.2l-1.3-3.3l-1.6 3.3h-.2s-1.67-4.39-1.7-4.4c-.1-.3-.2-.5-.3-.6c-.1-.1-.3-.1-.5-.2v-.2zm10.3-2.9s.03 3.85 0 3.9c.5-.5.8-.8 1-.9c.3-.2.5-.2.8-.2c.3 0 .5 0 .8.2c.2.2.3.4.4.8c.1.2.1.7.1 1.3v1.9c0 .3.1.5.1.7l.2.2c.1 0 .3.1.5.1c.02-.03 0 .2 0 .2h-2.6v-.2s.16-.03.2 0c.2 0 .4-.1.5-.1c.1-.1.1-.2.2-.4v-2.4c0-.5 0-.9-.1-1.1c-.1-.2-.2-.3-.3-.4c-.1-.1-.3-.1-.5-.1c-.1 0-.3 0-.5.1c-.2.1-.5.3-.8.6v2.8c0 .3 0 .6.1.7l.2.2c.1 0 .3.1.6.1c-.02-.03 0 .2 0 .2h-2.6s-.03-.23 0-.2c.2 0 .4-.1.5-.1c.1-.1.2-.2.2-.3c0-.1.1-.3.1-.6v-4.8c0-.6 0-.9-.1-1.1c0-.1 0-.2-.1-.3h-.2c-.1 0-.3 0-.4.1c-.03-.05-.1-.3-.1-.3l1.6-.6h.2zm5.2 4.9c0 .8.2 1.4.6 1.8c.4.5.8.7 1.4.7c.3 0 .6-.1.9-.3c.2-.2.4-.5.6-1l.2.2c-.1.5-.3 1-.7 1.4c-.4.4-.9.6-1.5.6c-.6 0-1.1-.2-1.6-.7c-.4-.5-.7-1.2-.7-2c0-.9.3-1.6.7-2.1c.5-.5 1.1-.7 1.8-.7c.6 0 1 .1 1.4.5c.4.4.6.9.6 1.6h-3.7zm0-.3h2.5c0-.4-.1-.6-.1-.8c-.1-.2-.3-.3-.5-.5c-.2-.1-.4-.1-.6-.1c-.3 0-.6.1-.8.3c-.3.3-.4.6-.5 1.1zm5.9-.7c.6-.8 1.2-1.1 1.8-1.1c.3 0 .5 0 .7.2c.2.1.4.4.5.7c.1.2.1.6.1 1v2.3c0 .3.1.5.1.7l.2.2c.1 0 .3.1.5.1c.05-.03 0 .2 0 .2h-2.6v-.2s.16-.03.2 0c.2 0 .4-.1.5-.1c.1-.1.1-.2.2-.4v-2.7c0-.4-.1-.8-.2-1c-.1-.2-.3-.3-.6-.3c-.5 0-.9.2-1.4.7v2.8c0 .3 0 .6.1.6c0 .2.1.2.2.3c.1 0 .3.1.6.1c-.03-.03 0 .2 0 .2h-2.6v-.2s.09-.03.1 0c.3 0 .4-.1.5-.2c.1-.2.2-.4.2-.8v-2c0-.6 0-1-.1-1.1c0-.2 0-.3-.1-.3c-.1-.1-.1-.1-.2-.1c-.1 0-.3.1-.4.1c-.03.01-.1-.2-.1-.2l1.6-.6h.2s.02 1.07 0 1.1zm7-1h2.5v.2s-.15.03-.1 0c-.2 0-.3.1-.4.1c-.1.1-.1.2-.1.3c0 .2 0 .3.1.5l1.2 2.9s1.27-3 1.3-3c.1-.2.1-.4.1-.5v-.1c-.1-.1-.1-.1-.2-.1c-.1-.1-.2-.1-.4-.1v-.2h1.7v.2c-.2 0-.3.1-.4.1c-.1.2-.3.4-.4.6c.04.02-1.8 4.5-1.8 4.5h-.3s-1.84-4.4-1.8-4.4c-.1-.2-.2-.4-.3-.5c-.1 0-.2-.1-.3-.2c0 0-.2 0-.4-.1c.04.03 0-.2 0-.2zm7.5-2.9c.2 0 .3.1.4.2c.2.1.2.2.2.4c0 .1 0 .3-.2.4c-.1.1-.2.2-.4.2c-.1 0-.3-.1-.4-.2c-.1-.1-.2-.3-.2-.4c0-.2.1-.3.2-.4c.1-.1.3-.2.4-.2zm.5 2.8v4.2c0 .3 0 .5.1.6c0 .2.1.2.2.3c.1 0 .3.1.5.1v.2h-2.6s.05-.23 0-.2c.3 0 .5-.1.6-.1c.1-.1.1-.1.2-.3c0-.1.1-.3.1-.6v-2c0-.6-.1-1-.1-1.2c0-.1-.1-.2-.1-.2c-.1-.1-.2-.1-.3-.1c-.1 0-.2.1-.4.1c.05.01 0-.2 0-.2l1.6-.6h.2zm2.3 2.1c0 .8.2 1.4.6 1.8c.4.5.8.7 1.4.7c.3 0 .6-.1.9-.3c.2-.2.4-.5.6-1l.2.2c-.1.5-.3 1-.7 1.4c-.4.4-.9.6-1.5.6c-.6 0-1.1-.2-1.6-.7c-.4-.5-.7-1.2-.7-2c0-.9.3-1.6.7-2.1c.5-.5 1.1-.7 1.8-.7c.5 0 1 .1 1.4.5c.4.4.6.9.6 1.6h-3.7zm0-.3h2.5c0-.4-.1-.6-.1-.8c-.1-.2-.3-.3-.5-.5c-.2-.1-.4-.1-.6-.1c-.3 0-.6.1-.8.3c-.3.3-.4.6-.5 1.1zM400 17h2.2v.2c-.2 0-.3.1-.4.1c-.1.1-.1.2-.1.3c0 .1 0 .2.1.4l1.1 3l1.2-2.4s-.34-.8-.3-.8c-.1-.2-.3-.4-.4-.5c-.1 0-.2-.1-.5-.1c.02.03 0-.2 0-.2h2.5s.03.23 0 .2c-.2 0-.4.1-.6.2c0 0-.1.1-.1.3c0 0 0 .1.1.2c-.03 0 1.2 3 1.2 3c0 0 1.08-2.89 1.1-2.9c.1-.2.1-.4.1-.5c0-.1 0-.1-.1-.2c-.1 0-.2-.1-.5-.1c.04.03 0-.2 0-.2h1.7v.2c-.3.1-.6.3-.7.7c-.03 0-1.8 4.5-1.8 4.5h-.2l-1.3-3.3l-1.6 3.3h-.2s-1.68-4.39-1.7-4.4c-.1-.3-.2-.5-.3-.6c-.1-.1-.3-.1-.5-.2v-.2zm9.7 2c0 .8.1 1.4.5 1.8c.4.5.9.7 1.4.7c.3 0 .6-.1.9-.3c.2-.2.4-.5.6-1l.2.2c-.1.5-.3 1-.7 1.4c-.4.4-.9.6-1.5.6c-.6 0-1.1-.2-1.6-.7c-.4-.5-.7-1.2-.7-2c0-.9.3-1.6.7-2.1c.5-.5 1.1-.7 1.8-.7c.6 0 1.1.1 1.4.5c.4.4.6.9.6 1.6h-3.6zm0-.3h2.4c0-.4-.1-.6-.1-.8c-.1-.2-.3-.3-.5-.5c-.1-.1-.3-.1-.5-.1c-.4 0-.6.1-.9.3c-.2.3-.4.6-.4 1.1zm8 3c-.2.3-.5.4-.7.6c-.3.1-.5.1-.8.1c-.6 0-1.1-.2-1.5-.7c-.5-.5-.7-1.1-.7-1.8c0-.8.3-1.5.7-2.1c.5-.6 1.1-.9 1.9-.9c.4 0 .8.1 1.1.4v-2.1c-.1-.1-.1-.2-.2-.3h-.2c-.1 0-.2 0-.4.1c.01-.05-.1-.3-.1-.3l1.6-.6h.3s-.04 6.09 0 6.1v1.1c0 .2.1.2.1.3c.1.1.2.1.3.1c.1 0 .2 0 .4-.1c-.02-.01 0 .2 0 .2l-1.5.6h-.3s.02-.72 0-.7zm-1 .1c.4 0 .7-.2 1-.5v-2.7c0-.3-.1-.5-.2-.7c-.1-.3-.3-.4-.4-.5c-.2-.1-.4-.2-.6-.2c-.3 0-.6.2-.9.5c-.4.4-.5.9-.5 1.7c0 .8.1 1.4.5 1.8c.3.4.7.6 1.1.6zm8.2-4.4s-.02 3.48 0 3.5c0 .5 0 .8.1.9c.2.2.4.3.6.3c.01-.03.5 0 .5 0v.2h-3.2v-.2s.28-.03.3 0c.1 0 .3-.1.4-.1c.1-.1.2-.2.3-.4v-.7c.03-.02 0-3.5 0-3.5h-1v-.4h1s.03-.33 0-.3c0-.6.1-1 .3-1.4c.2-.3.4-.6.8-.8c.3-.3.7-.4 1.1-.4c.4 0 .8.1 1.1.4c.3.2.4.4.4.6c0 .1-.1.2-.2.3c-.1.1-.2.2-.3.2c-.1 0-.2-.1-.3-.1c-.1-.1-.2-.2-.3-.4c-.2-.2-.3-.4-.4-.5c-.2 0-.3-.1-.4-.1c-.2 0-.4.1-.5.2c-.1.1-.2.2-.2.4c-.1.2-.1.7-.1 1.5c-.02.03 0 .4 0 .4h1.3v.4h-1.3zm3.4-.5s-.02 1.14 0 1.1c.4-.7.9-1.1 1.3-1.1c.2 0 .4 0 .6.2c.1.1.2.2.2.4c0 .1-.1.3-.2.4c-.1.1-.2.1-.3.1c-.2 0-.3 0-.5-.2c-.2-.1-.3-.2-.4-.2c0 0-.1.1-.2.1c-.2.2-.3.5-.5.8v2.5c0 .3 0 .6.1.7c0 .1.1.2.3.3c.1 0 .3.1.5.1v.2h-2.7v-.2c.3 0 .5-.1.6-.2c.1 0 .2-.1.2-.3V18c0-.2-.1-.2-.1-.3c-.1-.1-.2-.1-.3-.1c-.1 0-.2.1-.4.1l-.1-.2l1.6-.6h.3zm4.9 0c.8 0 1.5.3 2 .9c.4.5.6 1.1.6 1.7c0 .5-.1 1-.4 1.5c-.2.5-.5.8-.9 1.1c-.4.2-.8.3-1.3.3c-.8 0-1.5-.3-1.9-.9c-.4-.5-.6-1.1-.6-1.8c0-.5.1-1 .3-1.4c.3-.5.6-.9 1-1.1c.4-.2.8-.3 1.2-.3zm.9.9c-.3-.4-.6-.6-1-.6c-.2 0-.5.1-.7.2c-.2.1-.3.3-.5.6c-.1.3-.1.7-.1 1.2c0 .8.1 1.4.4 2c.3.6.7.8 1.2.8c.4 0 .7-.1.9-.4c.3-.3.4-.9.4-1.6c0-.9-.2-1.7-.6-2.2zm4 .2l.7-.7c.2-.1.3-.2.5-.3c.2-.1.4-.1.6-.1c.4 0 .6.1.9.2c.2.2.4.5.5.9c.4-.5.7-.8 1-.9c.2-.2.5-.2.8-.2c.3 0 .5 0 .7.2c.3.1.4.4.6.7c0 .2.1.5.1 1v2.3c0 .3 0 .5.1.7l.2.2c.1 0 .2.1.5.1c-.03-.03 0 .2 0 .2h-2.6v-.2s.08-.03.1 0c.2 0 .4-.1.5-.2c.1 0 .2-.1.2-.3v-2.8c0-.4 0-.7-.1-.9c-.2-.2-.4-.4-.7-.4c-.3 0-.5.1-.7.2c-.2.1-.4.3-.7.6c0-.03 0 0 0 0v2.8c0 .3 0 .6.1.7l.2.2c.1 0 .3.1.6.1c-.05-.03 0 .2 0 .2h-2.7v-.2c.3 0 .5-.1.6-.1c.1-.1.2-.2.2-.3v-2.9c0-.4 0-.7-.1-.9c-.2-.2-.4-.4-.7-.4c-.3 0-.5.1-.7.2c-.3.2-.5.4-.7.6v2.8c0 .3 0 .6.1.7c0 .1.1.1.2.2c.1 0 .3.1.6.1c-.04-.03 0 .2 0 .2h-2.6s-.04-.23 0-.2c.2 0 .4-.1.5-.1c.1-.1.1-.1.2-.3c0-.1.1-.3.1-.6v-2c0-.6-.1-1-.1-1.1c0-.2-.1-.3-.1-.3c-.1-.1-.2-.1-.3-.1c-.1 0-.2.1-.3.1c-.04.01-.1-.2-.1-.2l1.6-.6h.2v1.1z" stroke="none" fill="#000"/></g><g id="Polygon123230"><path d="m6.8.4l.1 1.8h-.2c-.1-.3-.1-.6-.2-.7c-.1-.2-.3-.4-.5-.5c-.2-.1-.4-.1-.7-.1c-.05-.04-1.1 0-1.1 0c0 0-.05 5.91 0 5.9c0 .5 0 .8.1.9c.2.2.4.2.7.2c-.02.04.3 0 .3 0v.3H1.9v-.3s.32.04.3 0c.4 0 .6-.1.7-.3c.1-.1.2-.4.2-.8c-.05.01 0-5.9 0-5.9c0 0-.99-.04-1 0h-.8c-.2.1-.3.2-.5.5c-.1.2-.2.4-.2.8h-.2V.4h6.4zM9.1 0v3.8c.4-.4.8-.7 1-.9c.3-.1.5-.2.8-.2c.3 0 .5.1.7.3c.2.2.4.4.5.8c.1.2.1.7.1 1.3v1.9c0 .3 0 .5.1.7l.2.2c.1 0 .2.1.5.1v.2h-2.6v-.2s.13-.05.1 0c.3 0 .4-.1.5-.2c.1 0 .2-.1.2-.3c.1-.1.1-.2.1-.5V5.1c0-.6-.1-.9-.1-1.1c-.1-.2-.2-.3-.3-.4c-.1-.1-.3-.2-.5-.2c-.2 0-.4.1-.6.2c-.2.1-.4.3-.7.6v2.8c0 .3 0 .6.1.6c0 .1.1.2.2.3c.1 0 .3.1.5.1c.05-.05 0 .2 0 .2H7.3s.04-.25 0-.2c.3 0 .5-.1.6-.2c.1 0 .1-.1.2-.2V1.1C8.1 1 8 .9 8 .8c-.1 0-.2-.1-.3-.1c0 0-.2.1-.4.1c.04.03 0-.2 0-.2L8.8 0h.3zm5.2 4.9c0 .8.2 1.4.6 1.8c.4.5.8.7 1.3.7c.4 0 .7-.1.9-.3c.3-.2.5-.5.7-1l.2.1c-.1.6-.4 1-.7 1.5c-.4.4-.9.6-1.5.6c-.6 0-1.2-.2-1.6-.7c-.5-.5-.7-1.2-.7-2c0-.9.2-1.6.7-2.1c.5-.5 1-.8 1.7-.8c.6 0 1.1.2 1.5.6c.4.4.6.9.6 1.6h-3.7zm0-.4h2.5c-.1-.3-.1-.5-.2-.7c-.1-.2-.2-.4-.4-.5c-.2-.1-.4-.2-.6-.2c-.3 0-.6.2-.8.4c-.3.3-.4.6-.5 1zm8.8-3.3v1.7h1.3v.4h-1.3s.03 3.41 0 3.4c0 .4.1.6.2.7c.1.1.2.2.4.2c.1 0 .2-.1.3-.1c.1-.1.2-.2.3-.4h.2c-.1.4-.3.7-.6.9c-.2.1-.4.2-.7.2c-.2 0-.4 0-.5-.1c-.2-.1-.3-.2-.4-.4c-.1-.2-.1-.5-.1-.9c-.02.04 0-3.5 0-3.5h-.9s.05-.19 0-.2c.3-.1.5-.2.7-.4c.2-.2.4-.5.6-.7c.1-.2.2-.4.3-.8c.05-.03.2 0 .2 0zm3.3 1.5v1.2c.4-.8.9-1.2 1.4-1.2c.2 0 .3.1.5.2c.1.2.2.3.2.5c0 .1-.1.3-.2.4c-.1.1-.2.1-.3.1c-.1 0-.3-.1-.5-.2c-.1-.1-.3-.2-.3-.2c-.1 0-.2.1-.3.1c-.1.2-.3.4-.5.8v2.5c0 .3 0 .5.1.7c.1.1.2.2.3.2c.1.1.3.2.5.2c.03-.05 0 .2 0 .2h-2.7s.03-.25 0-.2c.3 0 .5-.1.6-.2c.1 0 .2-.1.2-.3c0 0 .1-.2.1-.5V4.9c0-.6-.1-.9-.1-1.1c0-.1 0-.2-.1-.2c-.1-.1-.2-.1-.3-.1c-.1 0-.2 0-.4.1c.03-.01 0-.2 0-.2l1.6-.7h.2zM30.1 0c.2 0 .3 0 .4.2c.1.1.2.2.2.4c0 .1-.1.3-.2.4c-.1.1-.2.2-.4.2c-.1 0-.3-.1-.4-.2c-.1-.1-.2-.3-.2-.4c0-.2.1-.3.2-.4c.1-.2.3-.2.4-.2zm.5 2.7v4.3c0 .3 0 .5.1.6c0 .1.1.2.2.3c.1 0 .3.1.5.1v.2h-2.6s.04-.25 0-.2c.3 0 .5-.1.6-.1c0-.1.1-.2.2-.3V3.8c0-.1-.1-.2-.1-.2c-.1-.1-.2-.1-.3-.1c-.1 0-.2 0-.4.1c.04-.01 0-.2 0-.2l1.5-.7h.3zm1.1.7l1.6-.6h.2v1.2c.3-.5.6-.8.8-1c.3-.2.6-.3.9-.3c.5 0 1 .2 1.3.7c.5.5.7 1.1.7 1.9c0 .9-.3 1.7-.8 2.3c-.4.5-1 .7-1.6.7c-.3 0-.6 0-.8-.1c-.1-.1-.3-.2-.5-.3v1.6c0 .3 0 .5.1.6c0 .1.1.2.2.3c.1 0 .3.1.6.1v.2h-2.8v-.2s.19-.04.2 0c.2 0 .4-.1.5-.2c.1 0 .2-.1.2-.2c0-.1.1-.3.1-.7v-5c0-.3-.1-.5-.1-.6c0-.1-.1-.2-.1-.2c-.1-.1-.2-.1-.3-.1c-.1 0-.2 0-.4.1c.04 0 0-.2 0-.2zm2.5.3c-.1.1-.4.3-.7.6v2c0 .4 0 .7.1.8c0 .3.1.5.4.6c.2.2.4.3.7.3c.4 0 .7-.2 1-.5c.3-.4.4-.9.4-1.6c0-.8-.1-1.4-.5-1.9c-.2-.3-.5-.4-.9-.4c-.1 0-.3 0-.5.1zM39.7 0s.05 6.97 0 7c0 .3.1.5.1.6c.1.1.1.2.2.3c.1 0 .3.1.6.1v.2H38s.02-.25 0-.2c.3 0 .4-.1.5-.1c.1-.1.2-.2.2-.3c.1-.1.1-.3.1-.6V1.1c-.1-.1-.1-.2-.2-.3c0 0-.1-.1-.2-.1c-.1 0-.2.1-.4.1l-.1-.2l1.6-.6h.2zm2.4 4.9c0 .8.2 1.4.6 1.8c.3.5.8.7 1.3.7c.4 0 .7-.1.9-.3c.3-.2.5-.5.6-1l.2.1c-.1.6-.3 1-.7 1.5c-.4.4-.8.6-1.4.6c-.7 0-1.2-.2-1.7-.7c-.4-.5-.6-1.2-.6-2c0-.9.2-1.6.7-2.1c.4-.5 1-.8 1.7-.8c.6 0 1.1.2 1.5.6c.3.4.5.9.5 1.6h-3.6zm0-.4h2.4c0-.3 0-.5-.1-.7c-.1-.2-.2-.4-.4-.5c-.2-.1-.4-.2-.6-.2c-.3 0-.6.2-.9.4c-.2.3-.4.6-.4 1zM60.7.4s-.04.18 0 .2c-.2 0-.3 0-.4.1L60 1c0 .1-.1.4-.3.9c-.03.01-2.5 6.4-2.5 6.4h-.2l-1.9-5l-2.2 5h-.2S50.17 1.98 50.2 2c-.3-.7-.5-1.1-.6-1.2c-.1-.1-.3-.2-.5-.2v-.2h3.4s-.02.18 0 .2c-.3 0-.5 0-.6.1c-.1.1-.1.2-.1.3c0 .1.1.4.3.9c-.01.01 1.5 3.8 1.5 3.8l1.2-3s-.28-.79-.3-.8c-.2-.4-.3-.7-.4-.9c-.1-.1-.2-.3-.3-.3c-.1-.1-.3-.1-.6-.1c.03-.02 0-.2 0-.2h3.8v.2h-.6c0 .1-.1.1-.2.2v.2c0 .1.1.4.2.8c.03 0 1.5 3.7 1.5 3.7l1.2-3.3c.2-.4.2-.6.3-.8v-.3c0-.2 0-.3-.1-.4c-.2-.1-.4-.1-.7-.1c.04-.02 0-.2 0-.2h2.1zm2.8 7c-.7.5-1.3.8-1.8.8c-.3 0-.5-.1-.8-.3c-.2-.2-.3-.4-.3-.7c0-.4.2-.8.6-1.1c.3-.4 1.1-.8 2.3-1.3v-.6c0-.4 0-.6-.1-.7c0-.1-.1-.2-.2-.3c-.2-.1-.3-.1-.5-.1c-.2 0-.4 0-.6.1c-.1.1-.1.2-.1.3c0 .1 0 .1.1.3c.2.1.3.3.3.4c0 .2-.1.4-.2.5c-.2.2-.4.2-.6.2c-.2 0-.4 0-.6-.2c-.2-.1-.2-.3-.2-.5c0-.3.1-.5.3-.8c.2-.2.5-.4.9-.6c.4-.1.8-.2 1.2-.2c.5 0 .9.1 1.2.3c.3.3.5.5.6.8c.1.1.1.5.1 1.1v2.5c0 .1.1.1.1.2h.1c.1 0 .2-.1.3-.2l.2.1c-.2.3-.4.5-.6.6c-.2.2-.4.2-.7.2c-.3 0-.5 0-.7-.2c-.2-.1-.3-.3-.3-.6zm-.7-.1c.2 0 .4-.1.7-.4V5.1c-.5.3-.8.6-1.1.9c-.1.2-.2.4-.2.6c0 .2.1.4.2.5c.1.1.2.2.4.2zm6 1S67.01 4.15 67 4.2c-.2-.5-.4-.9-.5-1c-.1-.1-.2-.2-.4-.2v-.2h2.9s-.04.2 0 .2c-.2 0-.3 0-.4.1c-.1.1-.1.2-.1.3c0 .1 0 .4.2.8c.01-.01.9 2 .9 2c0 0 .7-1.73.7-1.7c.2-.5.3-.9.3-1.1c0-.1 0-.2-.1-.3c-.1-.1-.3-.1-.5-.1c.02 0 0-.2 0-.2h1.8s-.02.2 0 .2c-.2 0-.3.1-.4.2c-.1.1-.3.4-.5.9c-.02 0-1.8 4.2-1.8 4.2h-.3zm8-3h-2.9c0 .7.2 1.3.5 1.7c.3.3.6.4 1 .4c.2 0 .4 0 .6-.1c.2-.2.4-.4.6-.7l.2.1c-.3.6-.6 1-.9 1.2c-.4.3-.8.4-1.3.4c-.8 0-1.4-.3-1.8-.9c-.3-.5-.5-1.1-.5-1.8c0-.9.3-1.6.8-2.2c.4-.5 1-.8 1.7-.8c.5 0 1 .2 1.4.7c.4.4.6 1.1.6 2zm-1.4-.4c0-.6 0-1-.1-1.3c-.1-.2-.2-.4-.3-.5c-.1-.1-.2-.1-.3-.1c-.2 0-.4.1-.5.3c-.2.3-.3.8-.3 1.4c-.05-.01 0 .2 0 .2h1.5zm6.4 1.3c-.3-.1-.5-.3-.7-.6c-.2-.3-.3-.6-.3-1c0-.5.2-.9.6-1.3c.4-.4.9-.6 1.5-.6c.5 0 1 .2 1.3.4h1.4s.1 0 .1.1v.4h-1c.2.3.3.7.3 1.1c0 .5-.2.9-.6 1.2c-.4.4-.9.6-1.5.6c-.3 0-.5-.1-.8-.2c-.2.2-.3.3-.3.4c-.1.1-.1.2-.1.3c0 .1 0 .1.1.2c0 .1.2.1.3.1c.1 0 .4.1.8.1c.8 0 1.3 0 1.6.1c.3 0 .6.1.8.3c.2.3.3.5.3.8c0 .5-.2.9-.6 1.3c-.6.5-1.3.8-2.3.8c-.7 0-1.4-.2-1.9-.5c-.3-.2-.4-.4-.4-.6c0-.1 0-.2.1-.3c0-.1.2-.3.4-.6c0 0 .2-.2.5-.6c-.2-.1-.3-.2-.4-.3c-.1-.1-.1-.2-.1-.3c0-.2.1-.3.2-.5c.1-.2.3-.4.7-.8zm1.8-2.8c-.2-.3-.5-.4-.8-.4c-.3 0-.5.1-.7.4c-.2.2-.3.5-.3 1c0 .6.1 1.1.4 1.4c.2.3.5.4.8.4c.3 0 .5-.1.7-.3c.2-.3.3-.6.3-1.1c0-.6-.2-1.1-.4-1.4zm.1 4.9c-.8 0-1.5-.1-1.9-.1c-.2.2-.4.3-.4.5c-.1.2-.2.3-.2.5c0 .2.1.3.3.5c.4.2 1 .3 1.7.3c.7 0 1.2-.1 1.5-.4c.4-.2.5-.5.5-.7c0-.2-.1-.4-.3-.5c-.2 0-.6-.1-1.2-.1zm4.1-5.6s.03 1.22 0 1.2c.5-.8.9-1.2 1.4-1.2c.2 0 .4.1.5.2c.1.2.2.3.2.5c0 .1 0 .3-.1.4c-.1.1-.2.1-.4.1c-.1 0-.3-.1-.4-.2c-.2-.1-.3-.2-.4-.2c-.1 0-.2.1-.2.1c-.2.2-.4.4-.6.8v2.5c0 .3.1.5.1.7c.1.1.2.2.3.2c.1.1.3.2.6.2c-.05-.05 0 .2 0 .2h-2.7s-.04-.25 0-.2c.2 0 .4-.1.6-.2c.1 0 .1-.1.2-.3V4.9c0-.6 0-.9-.1-1.1c0-.1 0-.2-.1-.2c-.1-.1-.1-.1-.2-.1c-.2 0-.3 0-.4.1c-.04-.01-.1-.2-.1-.2l1.6-.7h.2zm5 0c.8 0 1.4.3 1.9.9c.4.6.6 1.2.6 1.8c0 .5-.1 1-.3 1.5c-.2.4-.6.8-1 1.1c-.4.2-.8.3-1.3.3c-.8 0-1.4-.3-1.9-.9c-.4-.6-.6-1.2-.6-1.8c0-.5.2-1 .4-1.5c.2-.4.6-.8.9-1c.4-.2.8-.4 1.3-.4zm.8 1c-.2-.4-.6-.6-1-.6c-.2 0-.4.1-.6.2c-.2.1-.4.3-.5.6c-.1.3-.2.7-.2 1.2c0 .8.2 1.4.5 2c.3.5.7.8 1.2.8c.3 0 .6-.1.9-.4c.2-.4.3-.9.3-1.6c0-1-.2-1.7-.6-2.2zm7.1-.8v4.3c.1.1.1.2.2.3c.1 0 .1.1.2.1c.1 0 .3-.1.4-.1c.01-.03.1.2.1.2l-1.6.6h-.2s-.04-1.1 0-1.1c-.5.5-.8.8-1.1.9c-.2.2-.5.2-.7.2c-.3 0-.6-.1-.8-.2c-.2-.2-.4-.4-.4-.7c-.1-.3-.2-.6-.2-1.1V3.9c0-.2 0-.4-.1-.5c0-.1-.1-.2-.2-.2c-.1-.1-.3-.1-.6-.1c.04.01 0-.2 0-.2h1.9s-.02 3.52 0 3.5c0 .5.1.8.2 1c.2.1.4.2.7.2c.1 0 .3 0 .5-.1c.2-.1.5-.3.8-.6v-3c0-.3-.1-.5-.2-.6c-.1-.1-.3-.2-.7-.2v-.2h1.8zm.9.5l1.6-.6h.2s.04 1.19 0 1.2c.3-.5.6-.8.9-1c.2-.2.5-.3.8-.3c.5 0 1 .2 1.3.7c.5.5.7 1.1.7 1.9c0 .9-.3 1.7-.8 2.3c-.4.5-1 .7-1.6.7c-.3 0-.5 0-.7-.1l-.6-.3v1.6c0 .3.1.5.1.6c0 .1.1.2.2.3c.1 0 .3.1.6.1c.03-.04 0 .2 0 .2h-2.7v-.2s.11-.04.1 0c.2 0 .4-.1.6-.2c0 0 .1-.1.1-.2c.1-.1.1-.3.1-.7v-5c0-.3 0-.5-.1-.6c0-.1 0-.2-.1-.2c-.1-.1-.2-.1-.3-.1c-.1 0-.2 0-.3.1c-.03 0-.1-.2-.1-.2zm2.5.3c-.1.1-.3.3-.7.6v2c0 .4.1.7.1.8c0 .3.2.5.4.6c.2.2.5.3.8.3c.4 0 .7-.2.9-.5c.3-.4.5-.9.5-1.6c0-.8-.2-1.4-.6-1.9c-.2-.3-.5-.4-.8-.4c-.2 0-.4 0-.6.1zm5.1-3.7c.2 0 .3 0 .4.2c.1.1.2.2.2.4c0 .1-.1.3-.2.4c-.1.1-.2.2-.4.2c-.2 0-.3-.1-.4-.2c-.1-.1-.2-.3-.2-.4c0-.2.1-.3.2-.4c.1-.2.2-.2.4-.2zm.5 2.7s-.03 4.27 0 4.3v.6l.3.3c.1 0 .2.1.5.1c-.03-.05 0 .2 0 .2h-2.6s.02-.25 0-.2c.3 0 .4-.1.5-.1c.1-.1.2-.2.2-.3c.1-.1.1-.3.1-.6V3.8c-.1-.1-.1-.2-.2-.2c0-.1-.1-.1-.2-.1c-.1 0-.2 0-.4.1c.02-.01-.1-.2-.1-.2l1.6-.7h.3zm3 1.2c.6-.8 1.2-1.2 1.7-1.2c.3 0 .6.1.8.3c.2.1.3.3.5.7c0 .2.1.5.1 1v2.3c0 .3 0 .5.1.6c0 .1.1.2.2.3c.1 0 .2.1.5.1v.2H114v-.2s.1-.05.1 0c.2 0 .4-.1.5-.2c.1 0 .2-.1.2-.3V4.8c0-.5 0-.8-.1-1c-.2-.2-.4-.4-.7-.4c-.4 0-.9.3-1.3.8v3.4c.1.1.2.2.2.3c.1 0 .3.1.6.1c.02-.05 0 .2 0 .2h-2.6v-.2s.13-.05.1 0c.3 0 .5-.1.6-.3c.1-.1.1-.3.1-.7V3.9c-.1-.2-.1-.3-.2-.3c0-.1-.1-.1-.2-.1c-.1 0-.2 0-.4.1c.01-.01-.1-.2-.1-.2l1.6-.7h.3s-.04 1.15 0 1.2zm5.7 2.3c-.3-.1-.6-.3-.7-.6c-.2-.3-.3-.6-.3-1c0-.5.2-.9.6-1.3c.4-.4.9-.6 1.5-.6c.5 0 1 .2 1.3.4h1.4s.1 0 .1.1v.4h-1.1c.3.3.4.7.4 1.1c0 .5-.2.9-.6 1.2c-.4.4-.9.6-1.5.6c-.3 0-.5-.1-.8-.2c-.2.2-.3.3-.3.4c-.1.1-.1.2-.1.3c0 .1 0 .1.1.2c0 .1.1.1.3.1c.1 0 .4.1.8.1c.8 0 1.3 0 1.6.1c.3 0 .6.1.8.3c.2.3.3.5.3.8c0 .5-.2.9-.6 1.3c-.6.5-1.3.8-2.3.8c-.7 0-1.4-.2-1.9-.5c-.3-.2-.4-.4-.4-.6c0-.1 0-.2.1-.3c0-.1.2-.3.4-.6c0 0 .2-.2.5-.6c-.2-.1-.3-.2-.4-.3c-.1-.1-.1-.2-.1-.3c0-.2.1-.3.2-.5c.1-.2.3-.4.7-.8zm1.8-2.8c-.2-.3-.5-.4-.8-.4c-.3 0-.5.1-.7.4c-.2.2-.3.5-.3 1c0 .6.1 1.1.4 1.4c.2.3.5.4.8.4c.3 0 .5-.1.7-.3c.2-.3.3-.6.3-1.1c0-.6-.2-1.1-.4-1.4zm.1 4.9c-.8 0-1.5-.1-1.9-.1c-.2.2-.4.3-.4.5c-.1.2-.2.3-.2.5c0 .2.1.3.3.5c.4.2 1 .3 1.7.3c.7 0 1.2-.1 1.5-.4c.4-.2.5-.5.5-.7c0-.2-.1-.4-.3-.5c-.2 0-.6-.1-1.2-.1zm6.9-8.3c.1 0 .3 0 .4.2c.1.1.2.2.2.4c0 .1-.1.3-.2.4c-.1.1-.3.2-.4.2c-.2 0-.3-.1-.4-.2c-.2-.1-.2-.3-.2-.4c0-.2 0-.3.2-.4c.1-.2.2-.2.4-.2zm.4 2.7s.05 4.27 0 4.3c0 .3.1.5.1.6c.1.1.1.2.2.3c.1 0 .3.1.5.1c.05-.05 0 .2 0 .2h-2.5v-.2c.2 0 .4-.1.5-.1c.1-.1.2-.2.2-.3c.1-.1.1-.3.1-.6V4.9c0-.5 0-.9-.1-1.1c0-.1 0-.2-.1-.2c0-.1-.1-.1-.2-.1c-.1 0-.3 0-.4.1l-.1-.2l1.6-.7h.2zm4.9 0v1.8s-.19.03-.2 0c-.1-.5-.3-.9-.5-1.1c-.3-.2-.6-.3-.9-.3c-.3 0-.5 0-.7.2c-.1.1-.2.3-.2.5c0 .2 0 .4.2.5c.1.2.3.3.7.5l.8.4c.8.4 1.2.9 1.2 1.5c0 .5-.2.9-.5 1.2c-.4.3-.8.4-1.3.4c-.3 0-.6 0-1.1-.2h-.3c-.1 0-.1 0-.2.1c.02.04-.2 0-.2 0V6.4s.22-.04.2 0c.1.5.3.9.6 1.2c.3.2.7.4 1.1.4c.2 0 .4-.1.6-.3c.2-.1.2-.3.2-.5c0-.3 0-.5-.2-.7c-.2-.2-.6-.4-1.1-.7c-.6-.2-1-.5-1.1-.7c-.2-.2-.3-.5-.3-.8c0-.5.2-.8.5-1.1c.3-.3.6-.5 1.1-.5c.2 0 .5.1.8.2c.2 0 .3.1.3.1c.1 0 .2-.1.2-.1c0 0 .1-.1.1-.2c.01.04.2 0 .2 0zm6.7 0c.8 0 1.4.3 1.9.9c.4.6.6 1.2.6 1.8c0 .5-.1 1-.3 1.5c-.2.4-.5.8-.9 1.1c-.4.2-.9.3-1.4.3c-.8 0-1.4-.3-1.9-.9c-.4-.6-.6-1.2-.6-1.8c0-.5.2-1 .4-1.5c.2-.4.6-.8 1-1c.3-.2.8-.4 1.2-.4zm.9 1c-.3-.4-.7-.6-1.1-.6c-.2 0-.4.1-.6.2c-.2.1-.4.3-.5.6c-.1.3-.2.7-.2 1.2c0 .8.2 1.4.5 2c.3.5.7.8 1.2.8c.3 0 .7-.1.9-.4c.2-.4.4-.9.4-1.6c0-1-.2-1.7-.6-2.2zm3.9.2c.7-.8 1.2-1.2 1.8-1.2c.3 0 .5.1.7.3c.2.1.4.3.5.7c.1.2.2.5.2 1v2.9c.1.1.2.2.2.3c.1 0 .3.1.6.1c-.03-.05 0 .2 0 .2h-2.6v-.2s.07-.05.1 0c.2 0 .4-.1.5-.2c.1 0 .2-.1.2-.3V4.8c0-.5 0-.8-.2-1c-.1-.2-.3-.4-.6-.4c-.5 0-.9.3-1.4.8v2.8c0 .3.1.5.1.6c.1.1.1.2.2.3c.1 0 .3.1.6.1v.2h-2.6v-.2s.11-.05.1 0c.3 0 .5-.1.5-.3c.1-.1.2-.3.2-.7v-2c0-.6 0-1-.1-1.1c0-.2 0-.3-.1-.3c0-.1-.1-.1-.2-.1c-.1 0-.3 0-.4.1l-.1-.2l1.6-.7h.2s.04 1.15 0 1.2zm5.3 1c0 .8.2 1.4.5 1.8c.4.5.9.7 1.4.7c.3 0 .6-.1.9-.3c.2-.2.5-.5.6-1l.2.1c-.1.6-.3 1-.7 1.5c-.4.4-.9.6-1.4.6c-.7 0-1.2-.2-1.7-.7c-.4-.5-.6-1.2-.6-2c0-.9.2-1.6.6-2.1c.5-.5 1.1-.8 1.8-.8c.6 0 1.1.2 1.4.6c.4.4.6.9.6 1.6h-3.6zm0-.4h2.4c0-.3-.1-.5-.1-.7c-.1-.2-.3-.4-.4-.5c-.2-.1-.4-.2-.6-.2c-.4 0-.6.2-.9.4c-.2.3-.4.6-.4 1zm9.8-1.8c.8 0 1.5.3 1.9.9c.5.6.7 1.2.7 1.8c0 .5-.2 1-.4 1.5c-.2.4-.5.8-.9 1.1c-.4.2-.9.3-1.3.3c-.8 0-1.5-.3-1.9-.9c-.4-.6-.6-1.2-.6-1.8c0-.5.1-1 .3-1.5c.3-.4.6-.8 1-1c.4-.2.8-.4 1.2-.4zm.9 1c-.3-.4-.6-.6-1.1-.6c-.2 0-.4.1-.6.2c-.2.1-.3.3-.5.6c-.1.3-.2.7-.2 1.2c0 .8.2 1.4.5 2c.3.5.7.8 1.2.8c.4 0 .7-.1.9-.4c.3-.4.4-.9.4-1.6c0-1-.2-1.7-.6-2.2zm4.5-.4v3.5c0 .5 0 .8.1.9c.2.2.4.3.6.3c.02-.05.5 0 .5 0v.2h-3.1v-.2s.19-.05.2 0c.1 0 .3-.1.4-.2c.1 0 .2-.1.3-.3v-.7c.04-.03 0-3.5 0-3.5h-1v-.4h1s.04-.35 0-.3c0-.6.1-1 .3-1.4c.2-.3.4-.6.8-.9c.3-.2.7-.3 1.1-.3c.4 0 .8.1 1.1.4c.3.2.4.4.4.6c0 .1-.1.2-.2.3c-.1.1-.2.1-.3.1h-.3c-.1-.1-.2-.2-.3-.5l-.4-.4c-.1 0-.3-.1-.4-.1c-.2 0-.3.1-.5.2c-.1 0-.2.2-.2.4c-.1.2-.1.7-.1 1.5v.4h1.3v.4h-1.3zM175.7 6h.2l-.7 2.2h-6v-.3s.25.04.3 0c.3 0 .5-.1.7-.3c0-.1.1-.4.1-.8V1.7c0-.4-.1-.7-.2-.9c-.1-.1-.4-.2-.6-.2c-.05-.02-.3 0-.3 0v-.2h3.5s-.02.18 0 .2c-.4 0-.7 0-.9.1c-.2.1-.3.2-.3.3c-.1.1-.1.4-.1.9v4.9c0 .3 0 .5.1.6c0 .1.1.2.2.2c.1 0 .4.1.9.1h.6c.5 0 1-.1 1.2-.2c.2-.1.5-.2.7-.4c.2-.3.4-.6.6-1.1zm-.2-3.1h2.5v.2h-.1c-.2 0-.3 0-.4.1c-.1.1-.2.2-.2.3c0 .1.1.4.2.6c.03.02 1.3 2.7 1.3 2.7c0 0 1.19-2.93 1.2-2.9c.1-.2.1-.3.1-.5c0-.1 0-.1-.1-.2l-.1-.1h-.3c-.04.01 0-.2 0-.2h1.7s-.03.21 0 .2c-.2 0-.3.1-.4.1c0 0-.1.1-.2.3l-.2.4l-2.1 5.3c-.3.5-.5.8-.9 1.1c-.3.3-.6.4-.9.4c-.3 0-.4-.1-.6-.2c-.1-.1-.2-.3-.2-.4c0-.2.1-.3.2-.4c.1-.1.2-.2.4-.2c.1 0 .3.1.5.1c.2.1.3.1.3.1c.1 0 .2 0 .4-.1c.1-.2.2-.4.4-.7c-.02-.04.4-.9.4-.9c0 0-1.94-4.02-1.9-4c-.1-.1-.2-.3-.3-.5l-.2-.2c-.1-.1-.3-.1-.5-.2c.03.01 0-.2 0-.2zm7.8 1c.4-.4.6-.6.6-.7c.2-.1.4-.3.6-.3c.2-.1.4-.2.6-.2c.3 0 .6.1.8.3c.3.2.4.5.5.9c.4-.5.8-.8 1-.9c.3-.2.6-.3.9-.3c.2 0 .5.1.7.3c.2.1.4.3.5.7c.1.2.1.5.1 1v2.3c0 .3.1.5.1.6c.1.1.1.2.2.3c.1 0 .3.1.5.1c.04-.05 0 .2 0 .2h-2.6v-.2s.15-.05.2 0c.2 0 .4-.1.5-.2c.1 0 .1-.1.2-.3V4.7c0-.4-.1-.7-.2-.9c-.1-.2-.3-.4-.7-.4c-.2 0-.4.1-.6.2c-.2.1-.4.3-.7.5c-.03.05 0 .1 0 .1v.3s-.03 2.47 0 2.5v.6c.1.1.1.2.3.3c.1 0 .3.1.5.1c.02-.05 0 .2 0 .2h-2.6s-.04-.25 0-.2c.3 0 .5-.1.6-.2c.1 0 .1-.1.2-.3V4.7c0-.4 0-.7-.2-.9c-.1-.3-.4-.4-.7-.4c-.2 0-.4.1-.6.2c-.3.1-.6.3-.7.5v3.5l.3.3c.1 0 .2.1.5.1c.03-.05 0 .2 0 .2h-2.6s.03-.25 0-.2c.3 0 .4-.1.5-.1c.1-.1.2-.2.2-.3c.1-.1.1-.3.1-.6V3.8c-.1-.1-.1-.2-.2-.2c0-.1-.1-.1-.2-.1c-.1 0-.2 0-.4.1c.03-.01-.1-.2-.1-.2l1.6-.7h.3s-.03 1.16 0 1.2zm10.5 3.5c-.5.4-.8.7-1 .7c-.2.1-.4.2-.6.2c-.4 0-.7-.2-.9-.4c-.3-.3-.4-.6-.4-1c0-.2.1-.5.2-.7c.1-.2.4-.5.8-.7c.4-.2 1-.5 1.9-.8v-.2c0-.6 0-.9-.2-1.1c-.2-.2-.4-.3-.7-.3c-.3 0-.5.1-.6.2c-.2.1-.2.3-.2.4v.4c0 .1-.1.3-.2.4c0 .1-.2.1-.3.1c-.1 0-.3 0-.4-.1c0-.1-.1-.3-.1-.4c0-.4.2-.7.5-.9c.4-.3.8-.5 1.4-.5c.5 0 .9.1 1.2.3c.2.1.4.3.5.5c.1.2.1.5.1 1v2.8c0 .1.1.1.1.2h.3c.1-.1.3-.2.5-.4v.3c-.4.6-.8.9-1.2.9c-.2 0-.4-.1-.5-.2c-.1-.2-.2-.4-.2-.7zm-1.1.2c.3 0 .7-.2 1.1-.6v-2c-.5.3-.9.4-1.1.5c-.3.2-.5.4-.6.5c-.2.2-.2.4-.2.6c0 .3.1.5.2.7c.2.2.4.3.6.3zm4.9-3.7c.6-.8 1.2-1.2 1.8-1.2c.3 0 .5.1.7.3c.2.1.4.3.5.7c.1.2.1.5.1 1v2.3c0 .3.1.5.1.6c.1.1.1.2.2.3c.1 0 .3.1.5.1c.05-.05 0 .2 0 .2h-2.6v-.2s.15-.05.2 0c.2 0 .4-.1.5-.2c.1 0 .1-.1.2-.3V4.8c0-.5-.1-.8-.2-1c-.1-.2-.3-.4-.6-.4c-.5 0-.9.3-1.4.8v2.8c0 .3 0 .5.1.6c0 .1.1.2.2.3c.1 0 .3.1.6.1c-.03-.05 0 .2 0 .2h-2.6v-.2s.08-.05.1 0c.3 0 .4-.1.5-.3c.1-.1.2-.3.2-.7v-2c0-.6 0-1-.1-1.1c0-.2 0-.3-.1-.3c-.1-.1-.1-.1-.2-.1c-.2 0-.3 0-.4.1c-.03-.01-.1-.2-.1-.2l1.6-.7h.2s.02 1.15 0 1.2zm6.3-1.3c-.2.2-.5.4-.9.6v-.3c.4-.2.6-.5.8-.7c.1-.1.1-.3.1-.5v-.2c-.1-.1-.1-.1-.2-.1h-.2c-.1 0-.1.1-.2.1c-.2 0-.3-.1-.4-.2c-.1-.1-.2-.3-.2-.4c0-.2.1-.4.2-.5c.1-.1.3-.2.6-.2c.2 0 .4.1.7.3c.2.2.3.5.3.8c0 .5-.2.9-.6 1.3zm4.7.1v1.8s-.16.03-.2 0c-.1-.5-.3-.9-.5-1.1c-.2-.2-.5-.3-.9-.3c-.3 0-.5 0-.6.2c-.2.1-.3.3-.3.5c0 .2.1.4.2.5c.1.2.4.3.7.5l.9.4c.7.4 1.1.9 1.1 1.5c0 .5-.2.9-.5 1.2c-.4.3-.8.4-1.2.4c-.3 0-.7 0-1.1-.2h-.3c-.1 0-.2 0-.2.1c-.05.04-.2 0-.2 0V6.4s.15-.04.2 0c.1.5.3.9.6 1.2c.3.2.6.4 1 .4c.2 0 .5-.1.6-.3c.2-.1.3-.3.3-.5c0-.3-.1-.5-.3-.7c-.2-.2-.6-.4-1.1-.7c-.6-.2-.9-.5-1.1-.7c-.2-.2-.3-.5-.3-.8c0-.5.2-.8.5-1.1c.3-.3.7-.5 1.1-.5c.2 0 .5.1.8.2c.2 0 .3.1.4.1l.1-.1c.1 0 .1-.1.1-.2c.04.04.2 0 .2 0zm6.2.6v3.5c0 .5.1.8.2.9c.1.2.3.3.5.3c.04-.05.5 0 .5 0v.2h-3.1v-.2s.21-.05.2 0c.2 0 .3-.1.4-.2c.2 0 .2-.1.3-.3c0-.1.1-.4.1-.7c-.04-.03 0-3.5 0-3.5h-1.1v-.4h1.1s-.04-.35 0-.3c0-.6 0-1 .2-1.4c.2-.3.4-.6.8-.9c.3-.2.7-.3 1.2-.3c.4 0 .7.1 1.1.4c.2.2.3.4.3.6c0 .1-.1.2-.2.3c-.1.1-.2.1-.3.1h-.3c0-.1-.2-.2-.3-.5l-.4-.4c-.1 0-.3-.1-.4-.1c-.2 0-.3.1-.4.2c-.2 0-.3.2-.3.4c-.1.2-.1.7-.1 1.5v.4h1.4v.4h-1.4zm4.9 4.1c-.6.4-.9.7-1.1.7c-.2.1-.4.2-.6.2c-.4 0-.7-.2-.9-.4c-.3-.3-.4-.6-.4-1c0-.2.1-.5.2-.7c.2-.2.4-.5.8-.7c.4-.2 1-.5 2-.8v-.2c0-.6-.1-.9-.3-1.1c-.2-.2-.4-.3-.7-.3c-.3 0-.5.1-.6.2c-.1.1-.2.3-.2.4v.4c0 .1-.1.3-.1.4c-.1.1-.2.1-.4.1c-.1 0-.3 0-.3-.1c-.1-.1-.2-.3-.2-.4c0-.4.2-.7.5-.9c.4-.3.8-.5 1.4-.5c.5 0 .9.1 1.2.3c.2.1.4.3.5.5c.1.2.1.5.1 1v2.8c0 .1.1.1.1.2h.3c.1-.1.3-.2.5-.4v.3c-.4.6-.8.9-1.2.9c-.2 0-.4-.1-.5-.2c-.1-.2-.1-.4-.1-.7zm-1.2.2c.3 0 .7-.2 1.2-.6v-2c-.6.3-1 .4-1.2.5c-.3.2-.5.4-.6.5c-.1.2-.2.4-.2.6c0 .3.1.5.2.7c.2.2.4.3.6.3zm3.1-4.7h2.5v.2h-.2c-.1 0-.2 0-.3.1c-.1.1-.1.2-.1.3c0 .1 0 .3.1.5l1.2 2.9s1.25-3.02 1.3-3c0-.2.1-.4.1-.5c0-.1 0-.1-.1-.1c0-.1-.1-.1-.1-.2h-.4c-.02.01 0-.2 0-.2h1.7v.2c-.2 0-.3.1-.4.1c-.1.1-.3.3-.4.6c.02 0-1.8 4.5-1.8 4.5h-.3s-1.86-4.42-1.9-4.4c0-.2-.1-.4-.2-.5c-.1-.1-.2-.1-.3-.2c-.1 0-.2-.1-.4-.1c.02.01 0-.2 0-.2zm8.7-.2c.8 0 1.5.3 2 .9c.4.6.6 1.2.6 1.8c0 .5-.1 1-.4 1.5c-.2.4-.5.8-.9 1.1c-.4.2-.8.3-1.3.3c-.8 0-1.4-.3-1.9-.9c-.4-.6-.6-1.2-.6-1.8c0-.5.1-1 .4-1.5c.2-.4.5-.8.9-1c.4-.2.8-.4 1.2-.4zm.9 1c-.3-.4-.6-.6-1-.6c-.2 0-.4.1-.6.2c-.2.1-.4.3-.5.6c-.2.3-.2.7-.2 1.2c0 .8.1 1.4.4 2c.3.5.7.8 1.2.8c.4 0 .7-.1 1-.4c.2-.4.3-.9.3-1.6c0-1-.2-1.7-.6-2.2zm4-1v1.2c.4-.8.9-1.2 1.4-1.2c.2 0 .3.1.5.2c.1.2.2.3.2.5c0 .1-.1.3-.2.4c-.1.1-.2.1-.3.1c-.2 0-.3-.1-.5-.2c-.1-.1-.3-.2-.3-.2c-.1 0-.2.1-.3.1c-.1.2-.3.4-.5.8v2.5c0 .3 0 .5.1.7c.1.1.1.2.3.2c.1.1.3.2.5.2c.02-.05 0 .2 0 .2h-2.7s.02-.25 0-.2c.3 0 .5-.1.6-.2c.1 0 .2-.1.2-.3V3.8c0-.1-.1-.2-.1-.2c-.1-.1-.2-.1-.3-.1c-.1 0-.2 0-.4.1c.02-.01 0-.2 0-.2l1.6-.7h.2zm3.7-2.7c.2 0 .3 0 .4.2c.1.1.2.2.2.4c0 .1-.1.3-.2.4c-.1.1-.2.2-.4.2c-.1 0-.3-.1-.4-.2c-.1-.1-.2-.3-.2-.4c0-.2.1-.3.2-.4c.1-.2.2-.2.4-.2zm.5 2.7v4.3c0 .3 0 .5.1.6c0 .1.1.2.2.3c.1 0 .2.1.5.1v.2h-2.6s.03-.25 0-.2c.3 0 .5-.1.5-.1l.3-.3V3.8c0-.1-.1-.2-.1-.2c-.1-.1-.2-.1-.3-.1c-.1 0-.2 0-.4.1c.03-.01 0-.2 0-.2l1.5-.7h.3zm3-1.5v1.7h1.2v.4h-1.2s-.03 3.41 0 3.4c0 .4 0 .6.1.7c.1.1.2.2.4.2c.1 0 .2-.1.4-.1c.1-.1.2-.2.2-.4h.3c-.2.4-.4.7-.6.9c-.3.1-.5.2-.8.2c-.1 0-.3 0-.5-.1c-.2-.1-.3-.2-.4-.4c0-.2-.1-.5-.1-.9c.02.04 0-3.5 0-3.5h-.8v-.2c.2-.1.4-.2.6-.4c.3-.2.5-.5.6-.7l.4-.8c-.01-.03.2 0 .2 0zm2.6 3.7c0 .8.2 1.4.6 1.8c.3.5.8.7 1.3.7c.4 0 .7-.1.9-.3c.3-.2.5-.5.7-1l.1.1c0 .6-.3 1-.7 1.5c-.4.4-.8.6-1.4.6c-.7 0-1.2-.2-1.6-.7c-.5-.5-.7-1.2-.7-2c0-.9.2-1.6.7-2.1c.4-.5 1-.8 1.7-.8c.6 0 1.1.2 1.5.6c.3.4.5.9.5 1.6H245zm0-.4h2.4c0-.3 0-.5-.1-.7c-.1-.2-.2-.4-.4-.5c-.2-.1-.4-.2-.6-.2c-.3 0-.6.2-.9.4c-.2.3-.4.6-.4 1zm8.7 1.7c-.3-.1-.6-.3-.8-.6c-.1-.3-.2-.6-.2-1c0-.5.2-.9.6-1.3c.4-.4.9-.6 1.5-.6c.5 0 .9.2 1.3.4h1.4v.1c.1 0 .1.1.1.2c0 .1 0 .1-.1.2h-1c.2.3.3.7.3 1.1c0 .5-.2.9-.5 1.2c-.4.4-.9.6-1.5.6c-.3 0-.6-.1-.8-.2l-.4.4c0 .1-.1.2-.1.3c0 .1.1.1.1.2c.1.1.2.1.4.1c.1 0 .4.1.8.1c.8 0 1.3 0 1.5.1c.4 0 .7.1.9.3c.2.3.3.5.3.8c0 .5-.2.9-.6 1.3c-.6.5-1.4.8-2.3.8c-.8 0-1.4-.2-1.9-.5c-.3-.2-.4-.4-.4-.6v-.3c.1-.1.2-.3.4-.6l.6-.6c-.2-.1-.3-.2-.4-.3c-.1-.1-.1-.2-.1-.3c0-.2 0-.3.1-.5c.1-.2.4-.4.8-.8zm1.7-2.8c-.2-.3-.4-.4-.7-.4c-.3 0-.5.1-.7.4c-.2.2-.3.5-.3 1c0 .6.1 1.1.4 1.4c.2.3.4.4.7.4c.3 0 .6-.1.7-.3c.2-.3.3-.6.3-1.1c0-.6-.1-1.1-.4-1.4zm.2 4.9c-.8 0-1.5-.1-2-.1c-.2.2-.3.3-.4.5c-.1.2-.1.3-.1.5c0 .2.1.3.3.5c.4.2.9.3 1.7.3c.7 0 1.2-.1 1.5-.4c.3-.2.5-.5.5-.7c0-.2-.1-.4-.3-.5c-.2 0-.6-.1-1.2-.1zm4.1-5.6v1.2c.4-.8.9-1.2 1.4-1.2c.2 0 .3.1.5.2c.1.2.2.3.2.5c0 .1-.1.3-.2.4c-.1.1-.2.1-.3.1c-.2 0-.3-.1-.5-.2c-.1-.1-.3-.2-.3-.2c-.1 0-.2.1-.3.1c-.1.2-.3.4-.5.8v2.5c0 .3 0 .5.1.7c.1.1.1.2.3.2c.1.1.3.2.5.2c.02-.05 0 .2 0 .2h-2.7s.02-.25 0-.2c.3 0 .5-.1.6-.2c.1 0 .2-.1.2-.3V3.8c0-.1-.1-.2-.1-.2c-.1-.1-.2-.1-.3-.1c-.1 0-.2 0-.4.1c.02-.01 0-.2 0-.2l1.6-.7h.2zm4.9 0c.8 0 1.5.3 2 .9c.4.6.6 1.2.6 1.8c0 .5-.1 1-.4 1.5c-.2.4-.5.8-.9 1.1c-.4.2-.8.3-1.3.3c-.8 0-1.4-.3-1.9-.9c-.4-.6-.6-1.2-.6-1.8c0-.5.1-1 .4-1.5c.2-.4.5-.8.9-1c.4-.2.8-.4 1.2-.4zm.9 1c-.3-.4-.6-.6-1-.6c-.2 0-.4.1-.6.2c-.2.1-.4.3-.5.6c-.2.3-.2.7-.2 1.2c0 .8.1 1.4.4 2c.3.5.7.8 1.2.8c.4 0 .7-.1 1-.4c.2-.4.3-.9.3-1.6c0-1-.2-1.7-.6-2.2zm7.1-.8s-.03 3.18 0 3.2v1.1c0 .1.1.2.2.3c0 0 .1.1.2.1c.1 0 .2-.1.4-.1c-.03-.03.1.2.1.2l-1.6.6h-.3s.02-1.1 0-1.1c-.4.5-.8.8-1 .9c-.2.2-.5.2-.8.2c-.3 0-.5-.1-.7-.2c-.2-.2-.4-.4-.5-.7c-.1-.3-.1-.6-.1-1.1V3.9c0-.2 0-.4-.1-.5c0-.1-.1-.2-.2-.2c-.1-.1-.3-.1-.6-.1v-.2h1.8s.05 3.52 0 3.5c0 .5.1.8.3 1c.2.1.4.2.6.2c.2 0 .4 0 .6-.1c.2-.1.4-.3.7-.6v-3c0-.3 0-.5-.1-.6c-.2-.1-.4-.2-.7-.2c-.02.01 0-.2 0-.2h1.8zm.9.5l1.6-.6h.2v1.2c.3-.5.5-.8.8-1c.3-.2.6-.3.9-.3c.5 0 1 .2 1.3.7c.4.5.7 1.1.7 1.9c0 .9-.3 1.7-.8 2.3c-.5.5-1 .7-1.6.7c-.3 0-.6 0-.8-.1c-.1-.1-.3-.2-.5-.3v1.6c0 .3 0 .5.1.6c0 .1.1.2.2.3c.1 0 .3.1.6.1v.2h-2.8v-.2s.18-.04.2 0c.2 0 .4-.1.5-.2c.1 0 .1-.1.2-.2V3.8c0-.1-.1-.2-.1-.2c-.1-.1-.2-.1-.3-.1c-.1 0-.2 0-.4.1c.03 0 0-.2 0-.2zm2.5.3c-.2.1-.4.3-.7.6v2c0 .4 0 .7.1.8c0 .3.1.5.3.6c.3.2.5.3.8.3c.4 0 .7-.2 1-.5c.3-.4.4-.9.4-1.6c0-.8-.1-1.4-.5-1.9c-.2-.3-.5-.4-.9-.4c-.2 0-.3 0-.5.1zm5.1-3.7c.1 0 .3 0 .4.2c.1.1.1.2.1.4c0 .1 0 .3-.1.4c-.1.1-.3.2-.4.2c-.2 0-.3-.1-.5-.2c-.1-.1-.1-.3-.1-.4c0-.2 0-.3.1-.4c.2-.2.3-.2.5-.2zm.4 2.7s.04 4.27 0 4.3c0 .3.1.5.1.6c.1.1.1.2.2.3c.1 0 .3.1.5.1c.04-.05 0 .2 0 .2h-2.5s-.02-.25 0-.2c.2 0 .4-.1.5-.1c.1-.1.2-.2.2-.3c.1-.1.1-.3.1-.6V4.9c0-.5 0-.9-.1-1.1c0-.1 0-.2-.1-.2c-.1-.1-.1-.1-.2-.1c-.1 0-.3 0-.4.1c-.02-.01-.1-.2-.1-.2l1.6-.7h.2zm3 1.2c.6-.8 1.2-1.2 1.8-1.2c.3 0 .5.1.7.3c.2.1.4.3.5.7c.1.2.1.5.1 1v2.3c0 .3.1.5.1.6c.1.1.1.2.2.3c.1 0 .3.1.6.1c-.05-.05 0 .2 0 .2h-2.6v-.2s.06-.05.1 0c.2 0 .4-.1.5-.2c.1 0 .1-.1.2-.3V4.8c0-.5-.1-.8-.2-1c-.1-.2-.3-.4-.6-.4c-.5 0-.9.3-1.4.8v2.8c0 .3 0 .5.1.6c0 .1.1.2.2.3c.1 0 .3.1.6.1c-.02-.05 0 .2 0 .2h-2.6v-.2s.09-.05.1 0c.3 0 .4-.1.5-.3c.1-.1.2-.3.2-.7v-2c0-.6 0-1-.1-1.1c0-.2 0-.3-.1-.3c-.1-.1-.1-.1-.2-.1c-.1 0-.3 0-.4.1c-.02-.01-.1-.2-.1-.2l1.6-.7h.2s.02 1.15 0 1.2zm5.8 2.3c-.3-.1-.6-.3-.8-.6c-.1-.3-.2-.6-.2-1c0-.5.2-.9.6-1.3c.4-.4.9-.6 1.5-.6c.5 0 .9.2 1.3.4h1.4v.1c.1 0 .1.1.1.2c0 .1 0 .1-.1.2h-1c.2.3.3.7.3 1.1c0 .5-.2.9-.5 1.2c-.4.4-.9.6-1.5.6c-.3 0-.6-.1-.8-.2l-.4.4c0 .1-.1.2-.1.3c0 .1.1.1.1.2c.1.1.2.1.4.1c.1 0 .4.1.8.1c.8 0 1.3 0 1.5.1c.4 0 .7.1.9.3c.2.3.3.5.3.8c0 .5-.2.9-.6 1.3c-.6.5-1.4.8-2.3.8c-.8 0-1.4-.2-1.9-.5c-.3-.2-.4-.4-.4-.6v-.3c.1-.1.2-.3.4-.6l.6-.6c-.2-.1-.3-.2-.4-.3c-.1-.1-.1-.2-.1-.3c0-.2 0-.3.1-.5c.1-.2.4-.4.8-.8zm1.7-2.8c-.2-.3-.4-.4-.7-.4c-.3 0-.5.1-.7.4c-.2.2-.3.5-.3 1c0 .6.1 1.1.4 1.4c.2.3.4.4.7.4c.3 0 .6-.1.7-.3c.2-.3.3-.6.3-1.1c0-.6-.1-1.1-.4-1.4zm.2 4.9c-.9 0-1.5-.1-2-.1c-.2.2-.3.3-.4.5c-.1.2-.1.3-.1.5c0 .2.1.3.3.5c.4.2.9.3 1.7.3c.7 0 1.2-.1 1.5-.4c.3-.2.5-.5.5-.7c0-.2-.1-.4-.3-.5c-.2 0-.6-.1-1.2-.1zm6-5.6v1.8s-.23.03-.2 0c-.2-.5-.4-.9-.6-1.1c-.2-.2-.5-.3-.9-.3c-.2 0-.4 0-.6.2c-.2.1-.3.3-.3.5c0 .2.1.4.2.5c.1.2.4.3.7.5l.9.4c.8.4 1.2.9 1.2 1.5c0 .5-.2.9-.6 1.2c-.4.3-.8.4-1.2.4c-.3 0-.7 0-1.1-.2h-.3c-.1 0-.2 0-.2.1c-.03.04-.2 0-.2 0V6.4s.17-.04.2 0c.1.5.3.9.6 1.2c.3.2.6.4 1 .4c.3 0 .5-.1.7-.3c.1-.1.2-.3.2-.5c0-.3-.1-.5-.3-.7c-.2-.2-.5-.4-1.1-.7c-.5-.2-.9-.5-1.1-.7c-.2-.2-.2-.5-.2-.8c0-.5.1-.8.4-1.1c.3-.3.7-.5 1.2-.5c.2 0 .4.1.7.2c.2 0 .3.1.4.1c.1 0 .1-.1.1-.1c.1 0 .1-.1.2-.2c-.03.04.2 0 .2 0zm2.2 4.3c.2 0 .4.1.5.2c.1.2.2.3.2.5c0 .2-.1.3-.2.4c-.1.2-.3.2-.5.2c-.1 0-.3 0-.4-.2c-.1-.1-.2-.2-.2-.4c0-.2.1-.4.2-.5c.1-.1.3-.2.4-.2zm14-6.6l.1 1.8h-.2c-.1-.3-.1-.6-.2-.7c-.1-.2-.3-.4-.5-.5c-.2-.1-.5-.1-.8-.1c.03-.04-1.1 0-1.1 0c0 0 .03 5.91 0 5.9c0 .5.1.8.2.9c.1.2.4.2.7.2c-.04.04.2 0 .2 0v.3h-3.3v-.3s.3.04.3 0c.3 0 .6-.1.7-.3c.1-.1.1-.4.1-.8c.03.01 0-5.9 0-5.9c0 0-.91-.04-.9 0h-.8c-.2.1-.4.2-.5.5c-.1.2-.2.4-.2.8h-.3l.1-1.8h6.4zm2.3-.4s-.02 3.84 0 3.8c.4-.4.7-.7 1-.9c.2-.1.5-.2.7-.2c.3 0 .6.1.8.3c.2.2.4.4.5.8c.1.2.1.7.1 1.3v1.9c0 .3 0 .5.1.7l.2.2c.1 0 .2.1.5.1c-.03-.05 0 .2 0 .2H318v-.2s.11-.05.1 0c.3 0 .4-.1.5-.2c.1 0 .2-.1.2-.3V5.1c0-.6 0-.9-.1-1.1c0-.2-.1-.3-.2-.4c-.2-.1-.3-.2-.5-.2c-.2 0-.4.1-.6.2c-.2.1-.4.3-.7.6v3.4l.3.3c.1 0 .3.1.5.1c.03-.05 0 .2 0 .2h-2.6s.02-.25 0-.2c.3 0 .4-.1.6-.2l.2-.2V1.1c0-.1-.1-.2-.2-.3c0 0-.1-.1-.2-.1c-.1 0-.2.1-.4.1l-.1-.2l1.6-.6h.3zm5.2 4.9c0 .8.2 1.4.6 1.8c.3.5.8.7 1.3.7c.4 0 .7-.1.9-.3c.3-.2.5-.5.7-1l.1.1c0 .6-.3 1-.7 1.5c-.4.4-.8.6-1.4.6c-.7 0-1.2-.2-1.6-.7c-.5-.5-.7-1.2-.7-2c0-.9.2-1.6.7-2.1c.4-.5 1-.8 1.7-.8c.6 0 1.1.2 1.5.6c.3.4.5.9.5 1.6h-3.6zm0-.4h2.4c0-.3 0-.5-.1-.7c-.1-.2-.2-.4-.4-.5c-.2-.1-.4-.2-.6-.2c-.3 0-.6.2-.9.4c-.2.3-.4.6-.4 1zm8.7 1.7c-.3-.1-.6-.3-.8-.6c-.1-.3-.2-.6-.2-1c0-.5.2-.9.6-1.3c.4-.4.9-.6 1.5-.6c.5 0 .9.2 1.3.4h1.4v.1c.1 0 .1.1.1.2c0 .1 0 .1-.1.2h-1c.2.3.3.7.3 1.1c0 .5-.2.9-.5 1.2c-.4.4-.9.6-1.5.6c-.3 0-.6-.1-.8-.2l-.4.4c0 .1-.1.2-.1.3c0 .1.1.1.1.2c.1.1.2.1.4.1c.1 0 .4.1.8.1c.8 0 1.3 0 1.5.1c.4 0 .7.1.9.3c.2.3.3.5.3.8c0 .5-.2.9-.6 1.3c-.6.5-1.4.8-2.3.8c-.8 0-1.4-.2-1.9-.5c-.3-.2-.4-.4-.4-.6v-.3c.1-.1.2-.3.4-.6c.1 0 .2-.2.6-.6c-.2-.1-.3-.2-.4-.3c-.1-.1-.1-.2-.1-.3c0-.2 0-.3.1-.5c.1-.2.4-.4.8-.8zm1.7-2.8c-.2-.3-.4-.4-.7-.4c-.3 0-.5.1-.7.4c-.2.2-.3.5-.3 1c0 .6.1 1.1.4 1.4c.2.3.4.4.7.4c.3 0 .6-.1.8-.3c.1-.3.2-.6.2-1.1c0-.6-.1-1.1-.4-1.4zm.2 4.9c-.8 0-1.5-.1-2-.1c-.2.2-.3.3-.4.5c-.1.2-.1.3-.1.5c0 .2.1.3.3.5c.4.2 1 .3 1.7.3c.7 0 1.2-.1 1.5-.4c.3-.2.5-.5.5-.7c0-.2-.1-.4-.3-.5c-.2 0-.6-.1-1.2-.1zm4.1-5.6v1.2c.4-.8.9-1.2 1.4-1.2c.2 0 .3.1.5.2c.1.2.2.3.2.5c0 .1-.1.3-.2.4c-.1.1-.2.1-.3.1c-.2 0-.3-.1-.5-.2c-.1-.1-.3-.2-.3-.2c-.1 0-.2.1-.3.1c-.1.2-.3.4-.5.8v2.5c0 .3 0 .5.1.7c.1.1.1.2.3.2c.1.1.3.2.5.2c.02-.05 0 .2 0 .2h-2.7s.02-.25 0-.2c.3 0 .5-.1.6-.2c.1 0 .2-.1.2-.3c0 0 .1-.2.1-.5V4.9c0-.6-.1-.9-.1-1.1c0-.1-.1-.2-.1-.2c-.1-.1-.2-.1-.3-.1c-.1 0-.2 0-.4.1c.02-.01 0-.2 0-.2l1.6-.7h.2zm4.9 0c.8 0 1.5.3 2 .9c.4.6.6 1.2.6 1.8c0 .5-.1 1-.4 1.5c-.2.4-.5.8-.9 1.1c-.4.2-.8.3-1.3.3c-.8 0-1.4-.3-1.9-.9c-.4-.6-.6-1.2-.6-1.8c0-.5.1-1 .4-1.5c.2-.4.5-.8.9-1c.4-.2.8-.4 1.2-.4zm.9 1c-.3-.4-.6-.6-1-.6c-.2 0-.4.1-.6.2c-.2.1-.4.3-.5.6c-.2.3-.2.7-.2 1.2c0 .8.1 1.4.4 2c.3.5.7.8 1.2.8c.4 0 .7-.1 1-.4c.2-.4.3-.9.3-1.6c0-1-.2-1.7-.6-2.2zm7.1-.8s-.03 3.18 0 3.2v1.1c0 .1.1.2.2.3c0 0 .1.1.2.1c.1 0 .2-.1.4-.1l.1.2l-1.6.6h-.3s.02-1.1 0-1.1c-.4.5-.8.8-1 .9c-.2.2-.5.2-.8.2c-.3 0-.5-.1-.7-.2c-.2-.2-.4-.4-.5-.7c-.1-.3-.1-.6-.1-1.1V3.9c0-.2 0-.4-.1-.5c0-.1-.1-.2-.2-.2c-.1-.1-.3-.1-.6-.1v-.2h1.8s.05 3.52 0 3.5c0 .5.1.8.3 1c.2.1.4.2.6.2c.2 0 .4 0 .6-.1c.2-.1.4-.3.7-.6v-3c0-.3 0-.5-.1-.6c-.1-.1-.4-.2-.7-.2c-.02.01 0-.2 0-.2h1.8zm.9.5l1.6-.6h.2v1.2c.3-.5.5-.8.8-1c.3-.2.6-.3.9-.3c.5 0 1 .2 1.3.7c.4.5.7 1.1.7 1.9c0 .9-.3 1.7-.8 2.3c-.5.5-1 .7-1.6.7c-.3 0-.6 0-.8-.1c-.1-.1-.3-.2-.5-.3v1.6c0 .3 0 .5.1.6c0 .1.1.2.2.3c.1 0 .3.1.6.1v.2h-2.8v-.2s.18-.04.2 0c.2 0 .4-.1.5-.2c.1 0 .1-.1.2-.2V3.8c0-.1-.1-.2-.1-.2c-.1-.1-.2-.1-.3-.1c-.1 0-.2 0-.4.1c.03 0 0-.2 0-.2zm2.5.3c-.2.1-.4.3-.7.6v2c0 .4 0 .7.1.8c0 .3.1.5.3.6c.3.2.5.3.8.3c.4 0 .7-.2 1-.5c.3-.4.4-.9.4-1.6c0-.8-.1-1.4-.5-1.9c-.2-.3-.5-.4-.9-.4c-.2 0-.3 0-.5.1zM358 0c.1 0 .3 0 .4.2c.1.1.1.2.1.4c0 .1 0 .3-.1.4c-.1.1-.3.2-.4.2c-.2 0-.3-.1-.5-.2c-.1-.1-.1-.3-.1-.4c0-.2 0-.3.1-.4c.2-.2.3-.2.5-.2zm.4 2.7s.04 4.27 0 4.3c0 .3.1.5.1.6c.1.1.1.2.2.3c.1 0 .3.1.5.1c.04-.05 0 .2 0 .2h-2.5s-.02-.25 0-.2c.2 0 .4-.1.5-.1c.1-.1.2-.2.2-.3c.1-.1.1-.3.1-.6V4.9c0-.5 0-.9-.1-1.1c0-.1 0-.2-.1-.2c-.1-.1-.1-.1-.2-.1c-.1 0-.3 0-.4.1c-.02-.01-.1-.2-.1-.2l1.6-.7h.2zm3 1.2c.6-.8 1.2-1.2 1.8-1.2c.3 0 .5.1.7.3c.2.1.4.3.5.7c.1.2.2.5.2 1v2.9c.1.1.1.2.2.3c.1 0 .3.1.6.1c-.04-.05 0 .2 0 .2h-2.6v-.2s.06-.05.1 0c.2 0 .4-.1.5-.2c.1 0 .1-.1.2-.3V4.8c0-.5-.1-.8-.2-1c-.1-.2-.3-.4-.6-.4c-.5 0-.9.3-1.4.8v2.8c0 .3 0 .5.1.6c0 .1.1.2.2.3c.1 0 .3.1.6.1c-.02-.05 0 .2 0 .2h-2.6v-.2s.09-.05.1 0c.3 0 .4-.1.5-.3c.1-.1.2-.3.2-.7v-2c0-.6 0-1-.1-1.1c0-.2 0-.3-.1-.3c-.1-.1-.1-.1-.2-.1c-.1 0-.3 0-.4.1c-.02-.01-.1-.2-.1-.2l1.6-.7h.2s.03 1.15 0 1.2zm5.8 2.3c-.3-.1-.6-.3-.8-.6c-.1-.3-.2-.6-.2-1c0-.5.2-.9.6-1.3c.4-.4.9-.6 1.5-.6c.5 0 .9.2 1.3.4h1.4v.1c.1 0 .1.1.1.2c0 .1 0 .1-.1.2h-1c.2.3.3.7.3 1.1c0 .5-.2.9-.5 1.2c-.4.4-.9.6-1.5.6c-.3 0-.6-.1-.8-.2l-.4.4c0 .1-.1.2-.1.3c0 .1.1.1.1.2c.1.1.2.1.4.1c.1 0 .4.1.8.1c.8 0 1.3 0 1.5.1c.4 0 .7.1.9.3c.2.3.3.5.3.8c0 .5-.2.9-.6 1.3c-.6.5-1.4.8-2.3.8c-.8 0-1.4-.2-1.9-.5c-.3-.2-.4-.4-.4-.6v-.3c.1-.1.2-.3.4-.6l.6-.6c-.2-.1-.3-.2-.4-.3c-.1-.1-.1-.2-.1-.3c0-.2 0-.3.1-.5c.1-.2.4-.4.8-.8zm1.7-2.8c-.2-.3-.4-.4-.7-.4c-.3 0-.5.1-.7.4c-.2.2-.3.5-.3 1c0 .6.1 1.1.4 1.4c.2.3.4.4.7.4c.3 0 .6-.1.7-.3c.2-.3.3-.6.3-1.1c0-.6-.1-1.1-.4-1.4zm.2 4.9c-.8 0-1.5-.1-2-.1c-.2.2-.3.3-.4.5c-.1.2-.1.3-.1.5c0 .2.1.3.3.5c.4.2.9.3 1.7.3c.7 0 1.2-.1 1.5-.4c.3-.2.5-.5.5-.7c0-.2-.1-.4-.3-.5c-.2 0-.6-.1-1.2-.1zm8.9-5.6v1.8s-.19.03-.2 0c-.1-.5-.3-.9-.6-1.1c-.2-.2-.5-.3-.8-.3c-.3 0-.5 0-.7.2c-.1.1-.2.3-.2.5c0 .2 0 .4.2.5c.1.2.3.3.7.5l.8.4c.8.4 1.2.9 1.2 1.5c0 .5-.2.9-.5 1.2c-.4.3-.8.4-1.3.4c-.3 0-.7 0-1.1-.2h-.3c-.1 0-.1 0-.2.1c.02.04-.2 0-.2 0V6.4s.22-.04.2 0c.1.5.3.9.6 1.2c.3.2.7.4 1 .4c.3 0 .5-.1.7-.3c.2-.1.2-.3.2-.5c0-.3 0-.5-.2-.7c-.2-.2-.6-.4-1.1-.7c-.6-.2-1-.5-1.1-.7c-.2-.2-.3-.5-.3-.8c0-.5.2-.8.4-1.1c.3-.3.7-.5 1.2-.5c.2 0 .5.1.8.2c.1 0 .3.1.3.1c.1 0 .2-.1.2-.1c0 0 .1-.1.1-.2c.01.04.2 0 .2 0zm2.1 2.2c0 .8.1 1.4.5 1.8c.4.5.9.7 1.4.7c.3 0 .6-.1.9-.3c.2-.2.4-.5.6-1l.2.1c-.1.6-.3 1-.7 1.5c-.4.4-.9.6-1.5.6c-.6 0-1.1-.2-1.6-.7c-.4-.5-.7-1.2-.7-2c0-.9.3-1.6.7-2.1c.5-.5 1.1-.8 1.8-.8c.6 0 1 .2 1.4.6c.4.4.6.9.6 1.6h-3.6zm0-.4h2.4c0-.3-.1-.5-.1-.7c-.1-.2-.3-.4-.5-.5c-.1-.1-.3-.2-.5-.2c-.4 0-.6.2-.9.4c-.3.3-.4.6-.4 1zm5.2.4c0 .8.2 1.4.6 1.8c.3.5.8.7 1.3.7c.3 0 .6-.1.9-.3c.3-.2.5-.5.6-1l.2.1c-.1.6-.3 1-.7 1.5c-.4.4-.9.6-1.4.6c-.7 0-1.2-.2-1.7-.7c-.4-.5-.6-1.2-.6-2c0-.9.2-1.6.7-2.1c.4-.5 1-.8 1.7-.8c.6 0 1.1.2 1.5.6c.3.4.5.9.5 1.6h-3.6zm0-.4h2.4c0-.3 0-.5-.1-.7c-.1-.2-.2-.4-.4-.5c-.2-.1-.4-.2-.6-.2c-.3 0-.6.2-.9.4c-.2.3-.4.6-.4 1zm5.9-.6l.7-.7c.1-.1.3-.3.5-.3c.2-.1.4-.2.6-.2c.3 0 .6.1.9.3c.2.2.4.5.4.9c.4-.5.8-.8 1-.9c.3-.2.6-.3.9-.3c.3 0 .5.1.7.3c.2.1.4.3.5.7c.1.2.2.5.2 1v2.9c.1.1.1.2.2.3c.1 0 .3.1.6.1c-.05-.05 0 .2 0 .2h-2.6v-.2s.06-.05.1 0c.2 0 .4-.1.5-.2c.1 0 .1-.1.2-.3V4.7c0-.4 0-.7-.2-.9c-.1-.2-.3-.4-.7-.4c-.2 0-.4.1-.6.2c-.2.1-.4.3-.7.5c-.02.05 0 .1 0 .1v.3s-.02 2.47 0 2.5v.6l.3.3c.1 0 .3.1.5.1c.03-.05 0 .2 0 .2h-2.6s-.03-.25 0-.2c.3 0 .5-.1.6-.2c.1 0 .2-.1.2-.3V4.7c0-.4 0-.7-.2-.9c-.1-.3-.4-.4-.7-.4c-.2 0-.4.1-.6.2c-.3.1-.5.3-.7.5v2.9c0 .3 0 .5.1.6c0 .1.1.2.2.3c.1 0 .3.1.5.1c.04-.05 0 .2 0 .2h-2.6s.04-.25 0-.2c.3 0 .4-.1.5-.1l.3-.3V3.8c0-.1-.1-.2-.1-.2c-.1-.1-.2-.1-.3-.1c-.1 0-.2 0-.4.1c.04-.01-.1-.2-.1-.2l1.6-.7h.3s-.02 1.16 0 1.2zm11-1.2v1.8s-.22.03-.2 0c-.2-.5-.4-.9-.6-1.1c-.2-.2-.5-.3-.8-.3c-.3 0-.5 0-.7.2c-.2.1-.2.3-.2.5c0 .2 0 .4.1.5c.2.2.4.3.8.5l.8.4c.8.4 1.2.9 1.2 1.5c0 .5-.2.9-.6 1.2c-.3.3-.7.4-1.2.4c-.3 0-.7 0-1.1-.2h-.3c-.1 0-.2 0-.2.1c-.01.04-.2 0-.2 0V6.4s.19-.04.2 0c.1.5.3.9.6 1.2c.3.2.6.4 1 .4c.3 0 .5-.1.7-.3c.1-.1.2-.3.2-.5c0-.3-.1-.5-.3-.7c-.1-.2-.5-.4-1.1-.7c-.5-.2-.9-.5-1.1-.7c-.1-.2-.2-.5-.2-.8c0-.5.1-.8.4-1.1c.3-.3.7-.5 1.2-.5c.2 0 .4.1.7.2c.2 0 .4.1.4.1c.1 0 .1-.1.2-.1c0 0 0-.1.1-.2c-.02.04.2 0 .2 0zm5.6-1.5v1.7h1.2v.4h-1.2s.02 3.41 0 3.4c0 .4.1.6.2.7c.1.1.2.2.3.2c.2 0 .3-.1.4-.1c.1-.1.2-.2.3-.4h.2c-.1.4-.3.7-.6.9c-.2.1-.5.2-.7.2c-.2 0-.4 0-.5-.1c-.2-.1-.3-.2-.4-.4c-.1-.2-.1-.5-.1-.9c-.03.04 0-3.5 0-3.5h-.9s.04-.19 0-.2c.2-.1.5-.2.7-.4c.2-.2.4-.5.6-.7c.1-.2.2-.4.3-.8c.04-.03.2 0 .2 0zm4.3 1.5c.8 0 1.5.3 2 .9c.4.6.6 1.2.6 1.8c0 .5-.1 1-.4 1.5c-.2.4-.5.8-.9 1.1c-.4.2-.8.3-1.3.3c-.8 0-1.5-.3-1.9-.9c-.4-.6-.6-1.2-.6-1.8c0-.5.1-1 .3-1.5c.3-.4.6-.8 1-1c.4-.2.8-.4 1.2-.4zm.9 1c-.3-.4-.6-.6-1-.6c-.2 0-.5.1-.7.2c-.2.1-.3.3-.5.6c-.1.3-.1.7-.1 1.2c0 .8.1 1.4.4 2c.3.5.7.8 1.2.8c.4 0 .7-.1.9-.4c.3-.4.4-.9.4-1.6c0-1-.2-1.7-.6-2.2zm5.1-.8h2.2v.2c-.2 0-.3.1-.4.1c-.1.1-.1.2-.1.3c0 .1 0 .2.1.4l1.1 3l1.2-2.4s-.34-.82-.3-.8c-.1-.2-.3-.4-.4-.5c-.1 0-.2-.1-.5-.1c.02.01 0-.2 0-.2h2.5s.03.21 0 .2c-.2 0-.4.1-.6.2c0 0-.1.1-.1.3c0 0 0 .1.1.2c-.03-.01 1.2 3 1.2 3c0 0 1.08-2.91 1.1-2.9c.1-.2.1-.4.1-.5c0-.1 0-.1-.1-.2c-.1-.1-.2-.1-.5-.1c.04.01 0-.2 0-.2h1.7v.2c-.3.1-.6.3-.7.7c-.03-.01-1.8 4.5-1.8 4.5h-.2L422.4 5l-1.6 3.3h-.2s-1.68-4.41-1.7-4.4c-.1-.3-.2-.5-.3-.6c-.1-.1-.3-.1-.5-.2v-.2zm11.4-.2c.7 0 1.4.3 1.9.9c.4.6.6 1.2.6 1.8c0 .5-.1 1-.4 1.5c-.2.4-.5.8-.9 1.1c-.4.2-.8.3-1.3.3c-.8 0-1.4-.3-1.9-.9c-.4-.6-.6-1.2-.6-1.8c0-.5.1-1 .4-1.5c.2-.4.5-.8.9-1c.4-.2.8-.4 1.3-.4zm.8 1c-.3-.4-.6-.6-1-.6c-.2 0-.4.1-.6.2c-.2.1-.4.3-.5.6c-.2.3-.2.7-.2 1.2c0 .8.1 1.4.4 2c.3.5.7.8 1.2.8c.4 0 .7-.1 1-.4c.2-.4.3-.9.3-1.6c0-1-.2-1.7-.6-2.2zm4-1v1.2c.4-.8.9-1.2 1.4-1.2c.2 0 .3.1.5.2c.1.2.2.3.2.5c0 .1-.1.3-.2.4c-.1.1-.2.1-.3.1c-.2 0-.3-.1-.5-.2c-.1-.1-.3-.2-.3-.2c-.1 0-.2.1-.3.1c-.1.2-.3.4-.5.8v2.5c0 .3 0 .5.1.7c.1.1.1.2.3.2c.1.1.3.2.5.2c.02-.05 0 .2 0 .2h-2.7s.03-.25 0-.2c.3 0 .5-.1.6-.2c.1 0 .2-.1.2-.3c0 0 .1-.2.1-.5V4.9c0-.6-.1-.9-.1-1.1c0-.1-.1-.2-.1-.2c-.1-.1-.2-.1-.3-.1c-.1 0-.2 0-.4.1c.03-.01 0-.2 0-.2l1.6-.7h.2zm3.9-2.7v5.2s1.37-1.2 1.4-1.2l.5-.5v-.1c0-.1 0-.2-.1-.2c0-.1-.1-.1-.3-.1v-.2h2.3v.2c-.3 0-.6 0-.8.1c-.2.1-.4.3-.7.5l-1.3 1.2s1.32 1.75 1.3 1.7c.4.5.6.8.8.9c.2.2.3.3.5.4c.1 0 .2.1.5.1c-.04-.05 0 .2 0 .2h-2.6v-.2c.2-.1.3-.1.3-.1c.1-.1.1-.1.1-.2c0-.1-.1-.2-.3-.4c.05-.01-1.6-2.1-1.6-2.1c0 0 .04 1.77 0 1.8c0 .3.1.5.1.6c.1.2.1.2.2.3c.1 0 .3 0 .6.1v.2h-2.7v-.2c.3 0 .5-.1.6-.1l.2-.2c.1-.2.1-.4.1-.7V2.2c0-.6 0-1-.1-1.1c0-.1 0-.2-.1-.3c-.1 0-.1-.1-.2-.1c-.1 0-.2.1-.4.1l-.1-.2L438 0h.2z" stroke="none" fill="#000"/></g></svg>